M48
; DRILL file {KiCad (5.1.4)-1} date 1/5/2021 9:43:55 AM
; FORMAT={-:-/ absolute / inch / decimal}
; #@! TF.CreationDate,2021-01-05T09:43:55-08:00
; #@! TF.GenerationSoftware,Kicad,Pcbnew,(5.1.4)-1
; #@! TF.FileFunction,NonPlated,1,2,NPTH
FMAT,2
INCH
T1C0.0315
T2C0.0669
T3C0.0689
T4C0.1570
%
G90
G05
T1
X9.3461Y-1.7096
X7.4711Y-2.4596
X6.1492Y-0.8547
X6.1492Y-1.1303
X9.9086Y-0.9596
X11.9711Y-2.4596
X8.9711Y-2.4596
X9.7211Y-2.4596
X10.4711Y-2.4596
X7.6586Y-0.9596
X10.8461Y-1.7096
X7.0961Y-1.7096
X6.9086Y-0.9596
X11.4086Y-0.9596
X9.1586Y-0.9596
X7.8461Y-1.7096
X8.2211Y-2.4596
X7.8461Y-3.2096
X11.5961Y-1.7096
X8.5961Y-1.7096
X7.0961Y-3.2096
X10.6586Y-0.9596
X8.5961Y-3.2096
X10.0961Y-1.7096
X11.2211Y-2.4596
X8.4086Y-0.9596
T2
X7.9866Y-1.125
X8.4197Y-1.125
X8.9241Y-1.875
X9.3572Y-1.875
X7.0491Y-2.625
X7.4822Y-2.625
X9.4866Y-1.125
X9.9197Y-1.125
X11.5491Y-2.625
X11.9822Y-2.625
X8.5491Y-2.625
X8.9822Y-2.625
X9.2991Y-2.625
X9.7322Y-2.625
X10.0491Y-2.625
X10.4822Y-2.625
X7.2366Y-1.125
X7.6697Y-1.125
X10.4241Y-1.875
X10.8572Y-1.875
X6.6741Y-1.875
X7.1072Y-1.875
X6.4866Y-1.125
X6.9197Y-1.125
X10.9866Y-1.125
X11.4197Y-1.125
X8.7366Y-1.125
X9.1697Y-1.125
X7.4241Y-1.875
X7.8572Y-1.875
X7.7991Y-2.625
X8.2322Y-2.625
X7.4241Y-3.375
X7.8572Y-3.375
X11.1741Y-1.875
X11.6072Y-1.875
X8.1741Y-1.875
X8.6072Y-1.875
X6.6741Y-3.375
X7.1072Y-3.375
X10.2366Y-1.125
X10.6697Y-1.125
X8.1741Y-3.375
X8.6072Y-3.375
X9.6741Y-1.875
X10.1072Y-1.875
X10.7991Y-2.625
X11.2322Y-2.625
T3
X9.3156Y-2.625
X9.7156Y-2.625
X10.0656Y-2.625
X10.4656Y-2.625
X7.2531Y-1.125
X7.6531Y-1.125
X10.4406Y-1.875
X10.8406Y-1.875
X6.6906Y-1.875
X7.0906Y-1.875
X6.5031Y-1.125
X6.9031Y-1.125
X11.0031Y-1.125
X11.4031Y-1.125
X8.7531Y-1.125
X9.1531Y-1.125
X7.4406Y-1.875
X7.8406Y-1.875
X7.8156Y-2.625
X8.2156Y-2.625
X7.4406Y-3.375
X7.8406Y-3.375
X11.1906Y-1.875
X11.5906Y-1.875
X8.1906Y-1.875
X8.5906Y-1.875
X6.6906Y-3.375
X7.0906Y-3.375
X10.2531Y-1.125
X10.6531Y-1.125
X8.1906Y-3.375
X8.5906Y-3.375
X9.6906Y-1.875
X10.0906Y-1.875
X10.8156Y-2.625
X11.2156Y-2.625
X8.0031Y-1.125
X8.4031Y-1.125
X8.9406Y-1.875
X9.3406Y-1.875
X7.0656Y-2.625
X7.4656Y-2.625
X9.5031Y-1.125
X9.9031Y-1.125
X11.5656Y-2.625
X11.9656Y-2.625
X8.5656Y-2.625
X8.9656Y-2.625
T4
X10.6406Y-1.875
X6.8906Y-1.875
X6.7031Y-1.125
X11.2031Y-1.125
X8.9531Y-1.125
X7.6406Y-1.875
X8.0156Y-2.625
X7.6406Y-3.375
X11.3906Y-1.875
X8.3906Y-1.875
X6.8906Y-3.375
X10.4531Y-1.125
X8.3906Y-3.375
X9.8906Y-1.875
X11.0156Y-2.625
X8.2031Y-1.125
X9.1406Y-1.875
X7.2656Y-2.625
X9.7031Y-1.125
X11.7656Y-2.625
X8.7656Y-2.625
X9.5156Y-2.625
X10.2656Y-2.625
X7.4531Y-1.125
T0
M30
