M48
; DRILL file {KiCad (5.1.4)-1} date 1/5/2021 9:43:55 AM
; FORMAT={-:-/ absolute / inch / decimal}
; #@! TF.CreationDate,2021-01-05T09:43:55-08:00
; #@! TF.GenerationSoftware,Kicad,Pcbnew,(5.1.4)-1
; #@! TF.FileFunction,Plated,1,2,PTH
FMAT,2
INCH
T1C0.0157
T2C0.0295
T3C0.0315
T4C0.0354
T5C0.0390
T6C0.0430
T7C0.0472
T8C0.0579
%
G90
G05
T1
X9.1535Y-3.5823
X9.9917Y-1.4984
X10.2965Y-1.5634
X10.4Y-2.3705
X10.4567Y-2.3717
T2
X8.8035Y-3.2189
X8.8035Y-3.2976
T3
X8.8Y-3.4732
X8.8Y-3.5717
X8.8Y-3.6701
X8.926Y-3.4732
X8.926Y-3.5717
X8.926Y-3.6701
T5
X11.3406Y-1.675
X11.4406Y-1.675
X8.3406Y-1.675
X8.4406Y-1.675
X6.8406Y-3.175
X6.9406Y-3.175
X10.4031Y-0.925
X10.5031Y-0.925
X8.3406Y-3.175
X8.4406Y-3.175
X9.8406Y-1.675
X9.9406Y-1.675
X10.9656Y-2.425
X11.0656Y-2.425
X8.1531Y-0.925
X8.2531Y-0.925
X9.0906Y-1.675
X9.1906Y-1.675
X7.2156Y-2.425
X7.3156Y-2.425
X9.6531Y-0.925
X9.7531Y-0.925
X11.7156Y-2.425
X11.8156Y-2.425
X8.7156Y-2.425
X8.8156Y-2.425
X9.4656Y-2.425
X9.5656Y-2.425
X10.2156Y-2.425
X10.3156Y-2.425
X7.4031Y-0.925
X7.5031Y-0.925
X10.5906Y-1.675
X10.6906Y-1.675
X6.8406Y-1.675
X6.9406Y-1.675
X6.6531Y-0.925
X6.7531Y-0.925
X11.1531Y-0.925
X11.2531Y-0.925
X8.9031Y-0.925
X9.0031Y-0.925
X7.5906Y-1.675
X7.6906Y-1.675
X7.9656Y-2.425
X8.0656Y-2.425
X7.5906Y-3.175
X7.6906Y-3.175
T6
X9.0134Y-3.089
X9.0134Y-3.689
X9.1134Y-3.089
X9.1134Y-3.689
X9.2134Y-3.089
X9.2134Y-3.189
X9.2134Y-3.289
X9.2134Y-3.389
X9.2134Y-3.689
X9.3134Y-3.089
X9.3134Y-3.689
X9.4134Y-3.089
X9.4134Y-3.689
X9.5134Y-3.089
X9.5134Y-3.689
X9.6134Y-3.089
X9.6134Y-3.689
X9.7134Y-3.089
X9.7134Y-3.689
X9.8134Y-3.089
X9.8134Y-3.689
X9.9134Y-3.089
X9.9134Y-3.689
X10.0134Y-3.089
X10.0134Y-3.689
X10.1134Y-3.089
X10.1134Y-3.689
X10.2134Y-3.089
X10.2134Y-3.689
T7
X7.8188Y-2.7746
X8.0156Y-2.8573
X7.4438Y-3.5246
X7.6406Y-3.6073
X11.1938Y-2.0246
X11.3906Y-2.1073
X8.1938Y-2.0246
X8.3906Y-2.1073
X6.6938Y-3.5246
X6.8906Y-3.6073
X10.2563Y-1.2746
X10.4531Y-1.3573
X8.1938Y-3.5246
X8.3906Y-3.6073
X9.6938Y-2.0246
X9.8906Y-2.1073
X10.8188Y-2.7746
X11.0156Y-2.8573
X8.0063Y-1.2746
X8.2031Y-1.3573
X8.9438Y-2.0246
X9.1406Y-2.1073
X7.0688Y-2.7746
X7.2656Y-2.8573
X9.5063Y-1.2746
X9.7031Y-1.3573
X11.5688Y-2.7746
X11.7656Y-2.8573
X8.5688Y-2.7746
X8.7656Y-2.8573
X9.3188Y-2.7746
X9.5156Y-2.8573
X10.0688Y-2.7746
X10.2656Y-2.8573
X7.2563Y-1.2746
X7.4531Y-1.3573
X10.4438Y-2.0246
X10.6406Y-2.1073
X6.6938Y-2.0246
X6.8906Y-2.1073
X6.5063Y-1.2746
X6.7031Y-1.3573
X11.0063Y-1.2746
X11.2031Y-1.3573
X8.7563Y-1.2746
X8.9531Y-1.3573
X7.4438Y-2.0246
X7.6406Y-2.1073
T8
X8.6656Y-2.825
X8.6672Y-2.8022
X8.8641Y-2.7825
X8.9156Y-2.725
X9.4156Y-2.825
X9.4172Y-2.8022
X9.6141Y-2.7825
X9.6656Y-2.725
X10.1656Y-2.825
X10.1672Y-2.8022
X10.3641Y-2.7825
X10.4156Y-2.725
X7.3531Y-1.325
X7.3547Y-1.3022
X7.5516Y-1.2825
X7.6031Y-1.225
X10.5406Y-2.075
X10.5422Y-2.0522
X10.7391Y-2.0325
X10.7906Y-1.975
X6.7906Y-2.075
X6.7922Y-2.0522
X6.9891Y-2.0325
X7.0406Y-1.975
X6.6031Y-1.325
X6.6047Y-1.3022
X6.8016Y-1.2825
X6.8531Y-1.225
X11.1031Y-1.325
X11.1047Y-1.3022
X11.3016Y-1.2825
X11.3531Y-1.225
X8.8531Y-1.325
X8.8547Y-1.3022
X9.0516Y-1.2825
X9.1031Y-1.225
X7.5406Y-2.075
X7.5422Y-2.0522
X7.7391Y-2.0325
X7.7906Y-1.975
X7.9156Y-2.825
X7.9172Y-2.8022
X8.1141Y-2.7825
X8.1656Y-2.725
X7.5406Y-3.575
X7.5422Y-3.5522
X7.7391Y-3.5325
X7.7906Y-3.475
X11.2906Y-2.075
X11.2922Y-2.0522
X11.4891Y-2.0325
X11.5406Y-1.975
X8.2906Y-2.075
X8.2922Y-2.0522
X8.4891Y-2.0325
X8.5406Y-1.975
X6.7906Y-3.575
X6.7922Y-3.5522
X6.9891Y-3.5325
X7.0406Y-3.475
X10.3531Y-1.325
X10.3547Y-1.3022
X10.5516Y-1.2825
X10.6031Y-1.225
X8.2906Y-3.575
X8.2922Y-3.5522
X8.4891Y-3.5325
X8.5406Y-3.475
X9.7906Y-2.075
X9.7922Y-2.0522
X9.9891Y-2.0325
X10.0406Y-1.975
X10.9156Y-2.825
X10.9172Y-2.8022
X11.1141Y-2.7825
X11.1656Y-2.725
X8.1031Y-1.325
X8.1047Y-1.3022
X8.3016Y-1.2825
X8.3531Y-1.225
X9.0406Y-2.075
X9.0422Y-2.0522
X9.2391Y-2.0325
X9.2906Y-1.975
X7.1656Y-2.825
X7.1672Y-2.8022
X7.3641Y-2.7825
X7.4156Y-2.725
X9.6031Y-1.325
X9.6047Y-1.3022
X9.8016Y-1.2825
X9.8531Y-1.225
X11.6656Y-2.825
X11.6672Y-2.8022
X11.8641Y-2.7825
X11.9156Y-2.725
T4
G00X6.0587Y-1.2287
M15
G01X6.0587Y-1.2445
M16
G05
G00X6.2398Y-0.9098
M15
G01X6.2398Y-0.9256
M16
G05
G00X6.2398Y-1.028
M15
G01X6.2398Y-1.0437
M16
G05
G00X6.2398Y-1.1854
M15
G01X6.2398Y-1.2012
M16
G05
T0
M30
