G04 #@! TF.GenerationSoftware,KiCad,Pcbnew,(5.1.4)-1*
G04 #@! TF.CreationDate,2021-01-05T09:43:52-08:00*
G04 #@! TF.ProjectId,andante-classic,616e6461-6e74-4652-9d63-6c6173736963,rev?*
G04 #@! TF.SameCoordinates,Original*
G04 #@! TF.FileFunction,Copper,L1,Top*
G04 #@! TF.FilePolarity,Positive*
%FSLAX46Y46*%
G04 Gerber Fmt 4.6, Leading zero omitted, Abs format (unit mm)*
G04 Created by KiCad (PCBNEW (5.1.4)-1) date 2021-01-05 09:43:52*
%MOMM*%
%LPD*%
G04 APERTURE LIST*
%ADD10R,1.905000X1.905000*%
%ADD11C,1.905000*%
%ADD12C,2.000000*%
%ADD13C,2.250000*%
%ADD14C,2.250000*%
%ADD15O,1.750000X1.200000*%
%ADD16C,0.100000*%
%ADD17C,1.200000*%
%ADD18C,1.752600*%
%ADD19O,1.600000X2.000000*%
%ADD20C,1.600000*%
%ADD21R,1.600000X1.600000*%
%ADD22C,0.800000*%
%ADD23C,0.250000*%
G04 APERTURE END LIST*
D10*
X240426875Y-61595000D03*
D11*
X242966875Y-61595000D03*
D12*
X241696875Y-72575000D03*
X236696875Y-70475000D03*
D13*
X244196875Y-70675000D03*
X244851880Y-69945004D03*
D14*
X245506875Y-69215000D02*
X244196885Y-70675008D01*
D13*
X239156875Y-71755000D03*
X239177104Y-71465016D03*
D14*
X239196875Y-71175000D02*
X239157333Y-71755032D01*
D10*
X259476875Y-61595000D03*
D11*
X262016875Y-61595000D03*
D12*
X260746875Y-72575000D03*
X255746875Y-70475000D03*
D13*
X263246875Y-70675000D03*
X263901880Y-69945004D03*
D14*
X264556875Y-69215000D02*
X263246885Y-70675008D01*
D13*
X258206875Y-71755000D03*
X258227104Y-71465016D03*
D14*
X258246875Y-71175000D02*
X258207333Y-71755032D01*
D10*
X202326875Y-61595000D03*
D11*
X204866875Y-61595000D03*
D12*
X203596875Y-72575000D03*
X198596875Y-70475000D03*
D13*
X206096875Y-70675000D03*
X206751880Y-69945004D03*
D14*
X207406875Y-69215000D02*
X206096885Y-70675008D01*
D13*
X201056875Y-71755000D03*
X201077104Y-71465016D03*
D14*
X201096875Y-71175000D02*
X201057333Y-71755032D01*
D10*
X207089375Y-23495000D03*
D11*
X209629375Y-23495000D03*
D12*
X208359375Y-34475000D03*
X203359375Y-32375000D03*
D13*
X210859375Y-32575000D03*
X211514380Y-31845004D03*
D14*
X212169375Y-31115000D02*
X210859385Y-32575008D01*
D13*
X205819375Y-33655000D03*
X205839604Y-33365016D03*
D14*
X205859375Y-33075000D02*
X205819833Y-33655032D01*
D10*
X188039375Y-23495000D03*
D11*
X190579375Y-23495000D03*
D12*
X189309375Y-34475000D03*
X184309375Y-32375000D03*
D13*
X191809375Y-32575000D03*
X192464380Y-31845004D03*
D14*
X193119375Y-31115000D02*
X191809385Y-32575008D01*
D13*
X186769375Y-33655000D03*
X186789604Y-33365016D03*
D14*
X186809375Y-33075000D02*
X186769833Y-33655032D01*
D10*
X288051875Y-42545000D03*
D11*
X290591875Y-42545000D03*
D12*
X289321875Y-53525000D03*
X284321875Y-51425000D03*
D13*
X291821875Y-51625000D03*
X292476880Y-50895004D03*
D14*
X293131875Y-50165000D02*
X291821885Y-51625008D01*
D13*
X286781875Y-52705000D03*
X286802104Y-52415016D03*
D14*
X286821875Y-52125000D02*
X286782333Y-52705032D01*
D10*
X230901875Y-42545000D03*
D11*
X233441875Y-42545000D03*
D12*
X232171875Y-53525000D03*
X227171875Y-51425000D03*
D13*
X234671875Y-51625000D03*
X235326880Y-50895004D03*
D14*
X235981875Y-50165000D02*
X234671885Y-51625008D01*
D13*
X229631875Y-52705000D03*
X229652104Y-52415016D03*
D14*
X229671875Y-52125000D02*
X229632333Y-52705032D01*
D10*
X269001875Y-42545000D03*
D11*
X271541875Y-42545000D03*
D12*
X270271875Y-53525000D03*
X265271875Y-51425000D03*
D13*
X272771875Y-51625000D03*
X273426880Y-50895004D03*
D14*
X274081875Y-50165000D02*
X272771885Y-51625008D01*
D13*
X267731875Y-52705000D03*
X267752104Y-52415016D03*
D14*
X267771875Y-52125000D02*
X267732333Y-52705032D01*
D10*
X211851875Y-42545000D03*
D11*
X214391875Y-42545000D03*
D12*
X213121875Y-53525000D03*
X208121875Y-51425000D03*
D13*
X215621875Y-51625000D03*
X216276880Y-50895004D03*
D14*
X216931875Y-50165000D02*
X215621885Y-51625008D01*
D13*
X210581875Y-52705000D03*
X210602104Y-52415016D03*
D14*
X210621875Y-52125000D02*
X210582333Y-52705032D01*
D15*
X223610000Y-83760000D03*
D16*
G36*
X224259505Y-81161204D02*
G01*
X224283773Y-81164804D01*
X224307572Y-81170765D01*
X224330671Y-81179030D01*
X224352850Y-81189520D01*
X224373893Y-81202132D01*
X224393599Y-81216747D01*
X224411777Y-81233223D01*
X224428253Y-81251401D01*
X224442868Y-81271107D01*
X224455480Y-81292150D01*
X224465970Y-81314329D01*
X224474235Y-81337428D01*
X224480196Y-81361227D01*
X224483796Y-81385495D01*
X224485000Y-81409999D01*
X224485000Y-82110001D01*
X224483796Y-82134505D01*
X224480196Y-82158773D01*
X224474235Y-82182572D01*
X224465970Y-82205671D01*
X224455480Y-82227850D01*
X224442868Y-82248893D01*
X224428253Y-82268599D01*
X224411777Y-82286777D01*
X224393599Y-82303253D01*
X224373893Y-82317868D01*
X224352850Y-82330480D01*
X224330671Y-82340970D01*
X224307572Y-82349235D01*
X224283773Y-82355196D01*
X224259505Y-82358796D01*
X224235001Y-82360000D01*
X222984999Y-82360000D01*
X222960495Y-82358796D01*
X222936227Y-82355196D01*
X222912428Y-82349235D01*
X222889329Y-82340970D01*
X222867150Y-82330480D01*
X222846107Y-82317868D01*
X222826401Y-82303253D01*
X222808223Y-82286777D01*
X222791747Y-82268599D01*
X222777132Y-82248893D01*
X222764520Y-82227850D01*
X222754030Y-82205671D01*
X222745765Y-82182572D01*
X222739804Y-82158773D01*
X222736204Y-82134505D01*
X222735000Y-82110001D01*
X222735000Y-81409999D01*
X222736204Y-81385495D01*
X222739804Y-81361227D01*
X222745765Y-81337428D01*
X222754030Y-81314329D01*
X222764520Y-81292150D01*
X222777132Y-81271107D01*
X222791747Y-81251401D01*
X222808223Y-81233223D01*
X222826401Y-81216747D01*
X222846107Y-81202132D01*
X222867150Y-81189520D01*
X222889329Y-81179030D01*
X222912428Y-81170765D01*
X222936227Y-81164804D01*
X222960495Y-81161204D01*
X222984999Y-81160000D01*
X224235001Y-81160000D01*
X224259505Y-81161204D01*
X224259505Y-81161204D01*
G37*
D17*
X223610000Y-81760000D03*
D10*
X283289375Y-23495000D03*
D11*
X285829375Y-23495000D03*
D12*
X284559375Y-34475000D03*
X279559375Y-32375000D03*
D13*
X287059375Y-32575000D03*
X287714380Y-31845004D03*
D14*
X288369375Y-31115000D02*
X287059385Y-32575008D01*
D13*
X282019375Y-33655000D03*
X282039604Y-33365016D03*
D14*
X282059375Y-33075000D02*
X282019833Y-33655032D01*
D10*
X264239375Y-23495000D03*
D11*
X266779375Y-23495000D03*
D12*
X265509375Y-34475000D03*
X260509375Y-32375000D03*
D13*
X268009375Y-32575000D03*
X268664380Y-31845004D03*
D14*
X269319375Y-31115000D02*
X268009385Y-32575008D01*
D13*
X262969375Y-33655000D03*
X262989604Y-33365016D03*
D14*
X263009375Y-33075000D02*
X262969833Y-33655032D01*
D10*
X245189375Y-23495000D03*
D11*
X247729375Y-23495000D03*
D12*
X246459375Y-34475000D03*
X241459375Y-32375000D03*
D13*
X248959375Y-32575000D03*
X249614380Y-31845004D03*
D14*
X250269375Y-31115000D02*
X248959385Y-32575008D01*
D13*
X243919375Y-33655000D03*
X243939604Y-33365016D03*
D14*
X243959375Y-33075000D02*
X243919833Y-33655032D01*
D10*
X226139375Y-23495000D03*
D11*
X228679375Y-23495000D03*
D12*
X227409375Y-34475000D03*
X222409375Y-32375000D03*
D13*
X229909375Y-32575000D03*
X230564380Y-31845004D03*
D14*
X231219375Y-31115000D02*
X229909385Y-32575008D01*
D13*
X224869375Y-33655000D03*
X224889604Y-33365016D03*
D14*
X224909375Y-33075000D02*
X224869833Y-33655032D01*
D10*
X249951875Y-42545000D03*
D11*
X252491875Y-42545000D03*
D12*
X251221875Y-53525000D03*
X246221875Y-51425000D03*
D13*
X253721875Y-51625000D03*
X254376880Y-50895004D03*
D14*
X255031875Y-50165000D02*
X253721885Y-51625008D01*
D13*
X248681875Y-52705000D03*
X248702104Y-52415016D03*
D14*
X248721875Y-52125000D02*
X248682333Y-52705032D01*
D10*
X221376875Y-61595000D03*
D11*
X223916875Y-61595000D03*
D12*
X222646875Y-72575000D03*
X217646875Y-70475000D03*
D13*
X225146875Y-70675000D03*
X225801880Y-69945004D03*
D14*
X226456875Y-69215000D02*
X225146885Y-70675008D01*
D13*
X220106875Y-71755000D03*
X220127104Y-71465016D03*
D14*
X220146875Y-71175000D02*
X220107333Y-71755032D01*
D10*
X192801875Y-42545000D03*
D11*
X195341875Y-42545000D03*
D12*
X194071875Y-53525000D03*
X189071875Y-51425000D03*
D13*
X196571875Y-51625000D03*
X197226880Y-50895004D03*
D14*
X197881875Y-50165000D02*
X196571885Y-51625008D01*
D13*
X191531875Y-52705000D03*
X191552104Y-52415016D03*
D14*
X191571875Y-52125000D02*
X191532333Y-52705032D01*
D10*
X192801875Y-80645000D03*
D11*
X195341875Y-80645000D03*
D12*
X194071875Y-91625000D03*
X189071875Y-89525000D03*
D13*
X196571875Y-89725000D03*
X197226880Y-88995004D03*
D14*
X197881875Y-88265000D02*
X196571885Y-89725008D01*
D13*
X191531875Y-90805000D03*
X191552104Y-90515016D03*
D14*
X191571875Y-90225000D02*
X191532333Y-90805032D01*
D10*
X183276875Y-61595000D03*
D11*
X185816875Y-61595000D03*
D12*
X184546875Y-72575000D03*
X179546875Y-70475000D03*
D13*
X187046875Y-70675000D03*
X187701880Y-69945004D03*
D14*
X188356875Y-69215000D02*
X187046885Y-70675008D01*
D13*
X182006875Y-71755000D03*
X182027104Y-71465016D03*
D14*
X182046875Y-71175000D02*
X182007333Y-71755032D01*
D10*
X173751875Y-42545000D03*
D11*
X176291875Y-42545000D03*
D12*
X175021875Y-53525000D03*
X170021875Y-51425000D03*
D13*
X177521875Y-51625000D03*
X178176880Y-50895004D03*
D14*
X178831875Y-50165000D02*
X177521885Y-51625008D01*
D13*
X172481875Y-52705000D03*
X172502104Y-52415016D03*
D14*
X172521875Y-52125000D02*
X172482333Y-52705032D01*
D18*
X256880000Y-78460000D03*
X254340000Y-78460000D03*
X251800000Y-78460000D03*
X249260000Y-78460000D03*
X246720000Y-78460000D03*
X244180000Y-78460000D03*
X241640000Y-78460000D03*
X239100000Y-78460000D03*
X236560000Y-78460000D03*
X234020000Y-78460000D03*
X231480000Y-78460000D03*
X228940000Y-93700000D03*
X231480000Y-93700000D03*
X234020000Y-93700000D03*
X236560000Y-93700000D03*
X239100000Y-93700000D03*
X241640000Y-93700000D03*
X244180000Y-93700000D03*
X246720000Y-93700000D03*
X249260000Y-93700000D03*
X251800000Y-93700000D03*
X254340000Y-93700000D03*
X228940000Y-78460000D03*
X256880000Y-93700000D03*
X259420000Y-93700000D03*
X259420000Y-78460000D03*
X234020000Y-81000000D03*
X234020000Y-83540000D03*
X234020000Y-86080000D03*
D19*
X158490000Y-26310000D03*
X158490000Y-23310000D03*
X158490000Y-30310000D03*
X153890000Y-31410000D03*
D10*
X168989375Y-23495000D03*
D11*
X171529375Y-23495000D03*
D12*
X170259375Y-34475000D03*
X165259375Y-32375000D03*
D13*
X172759375Y-32575000D03*
X173414380Y-31845004D03*
D14*
X174069375Y-31115000D02*
X172759385Y-32575008D01*
D13*
X167719375Y-33655000D03*
X167739604Y-33365016D03*
D14*
X167759375Y-33075000D02*
X167719833Y-33655032D01*
D10*
X173751875Y-80645000D03*
D11*
X176291875Y-80645000D03*
D12*
X175021875Y-91625000D03*
X170021875Y-89525000D03*
D13*
X177521875Y-89725000D03*
X178176880Y-88995004D03*
D14*
X178831875Y-88265000D02*
X177521885Y-89725008D01*
D13*
X172481875Y-90805000D03*
X172502104Y-90515016D03*
D14*
X172521875Y-90225000D02*
X172482333Y-90805032D01*
D20*
X223520000Y-93220000D03*
X223520000Y-90720000D03*
X223520000Y-88220000D03*
X226720000Y-93220000D03*
X226720000Y-90720000D03*
D21*
X226720000Y-88220000D03*
D10*
X211851875Y-80645000D03*
D11*
X214391875Y-80645000D03*
D12*
X213121875Y-91625000D03*
X208121875Y-89525000D03*
D13*
X215621875Y-89725000D03*
X216276880Y-88995004D03*
D14*
X216931875Y-88265000D02*
X215621885Y-89725008D01*
D13*
X210581875Y-90805000D03*
X210602104Y-90515016D03*
D14*
X210621875Y-90225000D02*
X210582333Y-90805032D01*
D10*
X297576875Y-61595000D03*
D11*
X300116875Y-61595000D03*
D12*
X298846875Y-72575000D03*
X293846875Y-70475000D03*
D13*
X301346875Y-70675000D03*
X302001880Y-69945004D03*
D14*
X302656875Y-69215000D02*
X301346885Y-70675008D01*
D13*
X296306875Y-71755000D03*
X296327104Y-71465016D03*
D14*
X296346875Y-71175000D02*
X296307333Y-71755032D01*
D10*
X278526875Y-61595000D03*
D11*
X281066875Y-61595000D03*
D12*
X279796875Y-72575000D03*
X274796875Y-70475000D03*
D13*
X282296875Y-70675000D03*
X282951880Y-69945004D03*
D14*
X283606875Y-69215000D02*
X282296885Y-70675008D01*
D13*
X277256875Y-71755000D03*
X277277104Y-71465016D03*
D14*
X277296875Y-71175000D02*
X277257333Y-71755032D01*
D22*
X232500000Y-90990000D03*
X253790000Y-38060000D03*
X264160000Y-60210000D03*
X261530000Y-39710000D03*
X265600000Y-60240000D03*
D23*
X256710000Y-90990000D02*
X259420000Y-93700000D01*
X232500000Y-90990000D02*
X256710000Y-90990000D01*
X214860001Y-92950001D02*
X192085886Y-92950001D01*
X191571875Y-52125000D02*
X191524374Y-52077499D01*
X191571875Y-92435990D02*
X191571875Y-90225000D01*
X228940000Y-78460000D02*
X223690873Y-78460000D01*
X219796876Y-82353997D02*
X219796876Y-88503124D01*
X191524374Y-52077499D02*
X191524374Y-40000989D01*
X223690873Y-78460000D02*
X219796876Y-82353997D01*
X192085886Y-92950001D02*
X191571875Y-92435990D01*
X219796876Y-88503124D02*
X214860001Y-92950001D01*
X194632877Y-52125000D02*
X191571875Y-52125000D01*
X186769375Y-35245990D02*
X186769375Y-33655000D01*
X191524374Y-40000989D02*
X186769375Y-35245990D01*
X201096875Y-71175000D02*
X201049374Y-71127499D01*
X201049374Y-71127499D02*
X201049374Y-58541497D01*
X201049374Y-58541497D02*
X194632877Y-52125000D01*
X189071875Y-89525000D02*
X191752974Y-86843901D01*
X191752974Y-86843901D02*
X191752974Y-84183903D01*
X191752974Y-84183903D02*
X194014376Y-81922501D01*
X194014376Y-81922501D02*
X195955076Y-81922501D01*
X195955076Y-81922501D02*
X201056875Y-76820702D01*
X201056875Y-76820702D02*
X201056875Y-73345990D01*
X201056875Y-73345990D02*
X201056875Y-71755000D01*
X209241876Y-88404999D02*
X209241876Y-85745001D01*
X220146875Y-76780702D02*
X220146875Y-71175000D01*
X226157927Y-73900001D02*
X220660886Y-73900001D01*
X205859375Y-35285990D02*
X205859375Y-33075000D01*
X209241876Y-85745001D02*
X213064376Y-81922501D01*
X215005076Y-81922501D02*
X220146875Y-76780702D01*
X208121875Y-89525000D02*
X209241876Y-88404999D01*
X230717926Y-78460000D02*
X226157927Y-73900001D01*
X220660886Y-73900001D02*
X220106875Y-73345990D01*
X220146875Y-71175000D02*
X220146875Y-62855002D01*
X216760000Y-59468127D02*
X216760000Y-55202123D01*
X210621875Y-52125000D02*
X210574374Y-52077499D01*
X213682877Y-52125000D02*
X210621875Y-52125000D01*
X231480000Y-78460000D02*
X230717926Y-78460000D01*
X213064376Y-81922501D02*
X215005076Y-81922501D01*
X210574374Y-40000989D02*
X205859375Y-35285990D01*
X210574374Y-52077499D02*
X210574374Y-40000989D01*
X220106875Y-73345990D02*
X220106875Y-71755000D01*
X220146875Y-62855002D02*
X216760000Y-59468127D01*
X216760000Y-55202123D02*
X213682877Y-52125000D01*
X239196875Y-73283125D02*
X239196875Y-71175000D01*
X229671875Y-52125000D02*
X229360000Y-51813125D01*
X235500000Y-54892123D02*
X232187878Y-51580001D01*
X232187878Y-51580001D02*
X230756874Y-51580001D01*
X224909375Y-35285990D02*
X224909375Y-33075000D01*
X229360000Y-51813125D02*
X229360000Y-39736615D01*
X229360000Y-39736615D02*
X224909375Y-35285990D01*
X239196875Y-71175000D02*
X239196875Y-62855002D01*
X239196875Y-62855002D02*
X235500000Y-59158127D01*
X235500000Y-59158127D02*
X235500000Y-54892123D01*
X230756874Y-51580001D02*
X229631875Y-52705000D01*
X234020000Y-78460000D02*
X239196875Y-73283125D01*
X236560000Y-78460000D02*
X237761301Y-77258699D01*
X248674374Y-52077499D02*
X248674374Y-40000989D01*
X248674374Y-40000989D02*
X243959375Y-35285990D01*
X246448590Y-70475000D02*
X254332662Y-70475000D01*
X237761301Y-77258699D02*
X239664891Y-77258699D01*
X239664891Y-77258699D02*
X246448590Y-70475000D01*
X254332662Y-70475000D02*
X255746875Y-70475000D01*
X243959375Y-35285990D02*
X243959375Y-33075000D01*
X258246875Y-71175000D02*
X258199374Y-71127499D01*
X258199374Y-71127499D02*
X258199374Y-58541497D01*
X258199374Y-58541497D02*
X251782877Y-52125000D01*
X251782877Y-52125000D02*
X248721875Y-52125000D01*
X248721875Y-52125000D02*
X248674374Y-52077499D01*
X239100000Y-78460000D02*
X243659999Y-73900001D01*
X263009375Y-35285990D02*
X263009375Y-33075000D01*
X243659999Y-73900001D02*
X271371874Y-73900001D01*
X271371874Y-73900001D02*
X273796876Y-71474999D01*
X273796876Y-71474999D02*
X274796875Y-70475000D01*
X277296875Y-71175000D02*
X276500000Y-70378125D01*
X276500000Y-70378125D02*
X276500000Y-57792123D01*
X276500000Y-57792123D02*
X270832877Y-52125000D01*
X267724374Y-40000989D02*
X263009375Y-35285990D01*
X270832877Y-52125000D02*
X267771875Y-52125000D01*
X267771875Y-52125000D02*
X267724374Y-52077499D01*
X267724374Y-52077499D02*
X267724374Y-40000989D01*
X296299374Y-58541497D02*
X289882877Y-52125000D01*
X296346875Y-71175000D02*
X296299374Y-71127499D01*
X296299374Y-71127499D02*
X296299374Y-58541497D01*
X245749989Y-74350011D02*
X285047516Y-74350011D01*
X292846876Y-69475001D02*
X293846875Y-70475000D01*
X285047516Y-74350011D02*
X290193755Y-69203772D01*
X286821875Y-52125000D02*
X286774374Y-52077499D01*
X286774374Y-40000989D02*
X282059375Y-35285990D01*
X241640000Y-78460000D02*
X245749989Y-74350011D01*
X292575647Y-69203772D02*
X292846876Y-69475001D01*
X286774374Y-52077499D02*
X286774374Y-40000989D01*
X282059375Y-35285990D02*
X282059375Y-33075000D01*
X290193755Y-69203772D02*
X292575647Y-69203772D01*
X289882877Y-52125000D02*
X286821875Y-52125000D01*
X231696998Y-90720000D02*
X232371989Y-90045009D01*
X226720000Y-90720000D02*
X231696998Y-90720000D01*
X247834991Y-90045009D02*
X258543701Y-79336299D01*
X232371989Y-90045009D02*
X247834991Y-90045009D01*
X258543701Y-79336299D02*
X259420000Y-78460000D01*
X264160000Y-52910537D02*
X262079990Y-50830527D01*
X262079990Y-50830527D02*
X262079990Y-46349990D01*
X262079990Y-46349990D02*
X253790000Y-38060000D01*
X264160000Y-60210000D02*
X264160000Y-52910537D01*
X265600000Y-53714127D02*
X262530000Y-50644127D01*
X265600000Y-60240000D02*
X265600000Y-53714127D01*
X262530000Y-50644127D02*
X262530000Y-40710000D01*
X262530000Y-40710000D02*
X261530000Y-39710000D01*
X187746874Y-90161001D02*
X187746874Y-88888999D01*
X187746874Y-88888999D02*
X191302964Y-85332909D01*
X191302964Y-85332909D02*
X191302964Y-78407036D01*
X215169912Y-93276500D02*
X215046401Y-93400011D01*
X215046401Y-93400011D02*
X190985884Y-93400011D01*
X196400000Y-73310000D02*
X196400000Y-60714127D01*
X161269560Y-25599560D02*
X159788264Y-25599560D01*
X249260000Y-78460000D02*
X240010000Y-87710000D01*
X175572933Y-25599560D02*
X161269560Y-25599560D01*
X159791884Y-25599560D02*
X161269560Y-25599560D01*
X220236552Y-88712737D02*
X215169912Y-93276500D01*
X190985884Y-93400011D02*
X187746874Y-90161001D01*
X228395002Y-87710000D02*
X227780001Y-87094999D01*
X158490000Y-24297676D02*
X159791884Y-25599560D01*
X227780001Y-87094999D02*
X221854290Y-87094999D01*
X158490000Y-23310000D02*
X158490000Y-24297676D01*
X196400000Y-60714127D02*
X186480000Y-50794127D01*
X221854290Y-87094999D02*
X220236552Y-88712737D01*
X240010000Y-87710000D02*
X228395002Y-87710000D01*
X186480000Y-36506627D02*
X175572933Y-25599560D01*
X186480000Y-50794127D02*
X186480000Y-36506627D01*
X191302964Y-78407036D02*
X196400000Y-73310000D01*
X195949990Y-60900527D02*
X186029990Y-50980527D01*
X186029990Y-50980527D02*
X186029990Y-36693027D01*
X240152925Y-89345001D02*
X220207006Y-89345001D01*
X195949990Y-73123600D02*
X195949990Y-60900527D01*
X190799483Y-93850020D02*
X187296864Y-90347401D01*
X250461301Y-77883375D02*
X250461301Y-79036625D01*
X187296864Y-90347401D02*
X187296864Y-81776726D01*
X187296864Y-81776726D02*
X195949990Y-73123600D01*
X220207006Y-89345001D02*
X215479823Y-93602999D01*
X159911998Y-29938002D02*
X159540000Y-30310000D01*
X215479823Y-93602999D02*
X215232801Y-93850021D01*
X165545803Y-26049570D02*
X161657371Y-29938002D01*
X175386533Y-26049570D02*
X165545803Y-26049570D01*
X247921301Y-77258699D02*
X249836625Y-77258699D01*
X215232801Y-93850021D02*
X190799483Y-93850020D01*
X246720000Y-78460000D02*
X247921301Y-77258699D01*
X186029990Y-36693027D02*
X175386533Y-26049570D01*
X159540000Y-30310000D02*
X158490000Y-30310000D01*
X249836625Y-77258699D02*
X250461301Y-77883375D01*
X250461301Y-79036625D02*
X240152925Y-89345001D01*
X161657371Y-29938002D02*
X159911998Y-29938002D01*
X215789734Y-93929498D02*
X215419200Y-94300030D01*
X173689878Y-35800001D02*
X163860001Y-35800001D01*
X215419200Y-94300030D02*
X190613082Y-94300029D01*
X163860001Y-35800001D02*
X162326226Y-34266226D01*
X162326226Y-34266226D02*
X157796226Y-34266226D01*
X154940000Y-31410000D02*
X153890000Y-31410000D01*
X157796226Y-34266226D02*
X154940000Y-31410000D01*
X195499980Y-72937200D02*
X195499980Y-61086927D01*
X190613082Y-94300029D02*
X186846854Y-90533801D01*
X218009555Y-91930000D02*
X215789734Y-93929498D01*
X195499980Y-61086927D02*
X185579980Y-51166927D01*
X186846855Y-81590325D02*
X195499980Y-72937200D01*
X185579980Y-51166927D02*
X185579980Y-47690103D01*
X185579980Y-47690103D02*
X173689878Y-35800001D01*
X247490000Y-91930000D02*
X218009555Y-91930000D01*
X249260000Y-93700000D02*
X247490000Y-91930000D01*
X186846854Y-90533801D02*
X186846855Y-81590325D01*
M02*
