G04 #@! TF.GenerationSoftware,KiCad,Pcbnew,(5.1.4)-1*
G04 #@! TF.CreationDate,2021-01-05T09:43:52-08:00*
G04 #@! TF.ProjectId,andante-classic,616e6461-6e74-4652-9d63-6c6173736963,rev?*
G04 #@! TF.SameCoordinates,Original*
G04 #@! TF.FileFunction,Legend,Top*
G04 #@! TF.FilePolarity,Positive*
%FSLAX46Y46*%
G04 Gerber Fmt 4.6, Leading zero omitted, Abs format (unit mm)*
G04 Created by KiCad (PCBNEW (5.1.4)-1) date 2021-01-05 09:43:52*
%MOMM*%
%LPD*%
G04 APERTURE LIST*
%ADD10C,0.150000*%
%ADD11C,0.381000*%
%ADD12C,0.120000*%
%ADD13C,0.300000*%
%ADD14R,2.007000X2.007000*%
%ADD15C,2.007000*%
%ADD16C,0.902000*%
%ADD17C,1.802000*%
%ADD18C,2.102000*%
%ADD19C,1.852000*%
%ADD20C,2.352000*%
%ADD21C,4.089800*%
%ADD22C,2.352000*%
%ADD23O,1.852000X1.302000*%
%ADD24C,0.100000*%
%ADD25C,1.302000*%
%ADD26C,1.854600*%
%ADD27O,1.702000X2.102000*%
%ADD28C,1.702000*%
%ADD29R,1.702000X1.702000*%
G04 APERTURE END LIST*
D10*
X238770067Y-86558380D02*
X238770067Y-86034571D01*
X238722448Y-85939333D01*
X238627210Y-85891714D01*
X238436734Y-85891714D01*
X238341496Y-85939333D01*
X238770067Y-86510761D02*
X238674829Y-86558380D01*
X238436734Y-86558380D01*
X238341496Y-86510761D01*
X238293877Y-86415523D01*
X238293877Y-86320285D01*
X238341496Y-86225047D01*
X238436734Y-86177428D01*
X238674829Y-86177428D01*
X238770067Y-86129809D01*
X239246258Y-85891714D02*
X239246258Y-86558380D01*
X239246258Y-85986952D02*
X239293877Y-85939333D01*
X239389115Y-85891714D01*
X239531972Y-85891714D01*
X239627210Y-85939333D01*
X239674829Y-86034571D01*
X239674829Y-86558380D01*
X240579591Y-86558380D02*
X240579591Y-85558380D01*
X240579591Y-86510761D02*
X240484353Y-86558380D01*
X240293877Y-86558380D01*
X240198639Y-86510761D01*
X240151020Y-86463142D01*
X240103400Y-86367904D01*
X240103400Y-86082190D01*
X240151020Y-85986952D01*
X240198639Y-85939333D01*
X240293877Y-85891714D01*
X240484353Y-85891714D01*
X240579591Y-85939333D01*
X241484353Y-86558380D02*
X241484353Y-86034571D01*
X241436734Y-85939333D01*
X241341496Y-85891714D01*
X241151020Y-85891714D01*
X241055781Y-85939333D01*
X241484353Y-86510761D02*
X241389115Y-86558380D01*
X241151020Y-86558380D01*
X241055781Y-86510761D01*
X241008162Y-86415523D01*
X241008162Y-86320285D01*
X241055781Y-86225047D01*
X241151020Y-86177428D01*
X241389115Y-86177428D01*
X241484353Y-86129809D01*
X241960543Y-85891714D02*
X241960543Y-86558380D01*
X241960543Y-85986952D02*
X242008162Y-85939333D01*
X242103400Y-85891714D01*
X242246258Y-85891714D01*
X242341496Y-85939333D01*
X242389115Y-86034571D01*
X242389115Y-86558380D01*
X242722448Y-85891714D02*
X243103400Y-85891714D01*
X242865305Y-85558380D02*
X242865305Y-86415523D01*
X242912924Y-86510761D01*
X243008162Y-86558380D01*
X243103400Y-86558380D01*
X243817686Y-86510761D02*
X243722448Y-86558380D01*
X243531972Y-86558380D01*
X243436734Y-86510761D01*
X243389115Y-86415523D01*
X243389115Y-86034571D01*
X243436734Y-85939333D01*
X243531972Y-85891714D01*
X243722448Y-85891714D01*
X243817686Y-85939333D01*
X243865305Y-86034571D01*
X243865305Y-86129809D01*
X243389115Y-86225047D01*
X244722448Y-85891714D02*
X244722448Y-86558380D01*
X244484353Y-85510761D02*
X244246258Y-86225047D01*
X244865305Y-86225047D01*
X245198639Y-85653619D02*
X245246258Y-85606000D01*
X245341496Y-85558380D01*
X245579591Y-85558380D01*
X245674829Y-85606000D01*
X245722448Y-85653619D01*
X245770067Y-85748857D01*
X245770067Y-85844095D01*
X245722448Y-85986952D01*
X245151020Y-86558380D01*
X245770067Y-86558380D01*
X246198639Y-86177428D02*
X246960543Y-86177428D01*
X247436734Y-86558380D02*
X247436734Y-85891714D01*
X247436734Y-86082190D02*
X247484353Y-85986952D01*
X247531972Y-85939333D01*
X247627210Y-85891714D01*
X247722448Y-85891714D01*
X248817686Y-86558380D02*
X248817686Y-85891714D01*
X248817686Y-86082190D02*
X248865305Y-85986952D01*
X248912924Y-85939333D01*
X249008162Y-85891714D01*
X249103400Y-85891714D01*
X249817686Y-86510761D02*
X249722448Y-86558380D01*
X249531972Y-86558380D01*
X249436734Y-86510761D01*
X249389115Y-86415523D01*
X249389115Y-86034571D01*
X249436734Y-85939333D01*
X249531972Y-85891714D01*
X249722448Y-85891714D01*
X249817686Y-85939333D01*
X249865305Y-86034571D01*
X249865305Y-86129809D01*
X249389115Y-86225047D01*
X250198639Y-85891714D02*
X250436734Y-86558380D01*
X250674829Y-85891714D01*
X251246258Y-85558380D02*
X251341496Y-85558380D01*
X251436734Y-85606000D01*
X251484353Y-85653619D01*
X251531972Y-85748857D01*
X251579591Y-85939333D01*
X251579591Y-86177428D01*
X251531972Y-86367904D01*
X251484353Y-86463142D01*
X251436734Y-86510761D01*
X251341496Y-86558380D01*
X251246258Y-86558380D01*
X251151020Y-86510761D01*
X251103400Y-86463142D01*
X251055781Y-86367904D01*
X251008162Y-86177428D01*
X251008162Y-85939333D01*
X251055781Y-85748857D01*
X251103400Y-85653619D01*
X251151020Y-85606000D01*
X251246258Y-85558380D01*
X252008162Y-86463142D02*
X252055781Y-86510761D01*
X252008162Y-86558380D01*
X251960543Y-86510761D01*
X252008162Y-86463142D01*
X252008162Y-86558380D01*
X252674829Y-85558380D02*
X252770067Y-85558380D01*
X252865305Y-85606000D01*
X252912924Y-85653619D01*
X252960543Y-85748857D01*
X253008162Y-85939333D01*
X253008162Y-86177428D01*
X252960543Y-86367904D01*
X252912924Y-86463142D01*
X252865305Y-86510761D01*
X252770067Y-86558380D01*
X252674829Y-86558380D01*
X252579591Y-86510761D01*
X252531972Y-86463142D01*
X252484353Y-86367904D01*
X252436734Y-86177428D01*
X252436734Y-85939333D01*
X252484353Y-85748857D01*
X252531972Y-85653619D01*
X252579591Y-85606000D01*
X252674829Y-85558380D01*
X240884652Y-83600040D02*
X240884652Y-84314326D01*
X240837033Y-84457183D01*
X240741795Y-84552421D01*
X240598938Y-84600040D01*
X240503700Y-84600040D01*
X241837033Y-84600040D02*
X241360842Y-84600040D01*
X241360842Y-83600040D01*
X242741795Y-84504802D02*
X242694176Y-84552421D01*
X242551319Y-84600040D01*
X242456080Y-84600040D01*
X242313223Y-84552421D01*
X242217985Y-84457183D01*
X242170366Y-84361945D01*
X242122747Y-84171469D01*
X242122747Y-84028612D01*
X242170366Y-83838136D01*
X242217985Y-83742898D01*
X242313223Y-83647660D01*
X242456080Y-83600040D01*
X242551319Y-83600040D01*
X242694176Y-83647660D01*
X242741795Y-83695279D01*
X243456080Y-83600040D02*
X243456080Y-84314326D01*
X243408461Y-84457183D01*
X243313223Y-84552421D01*
X243170366Y-84600040D01*
X243075128Y-84600040D01*
X244408461Y-84600040D02*
X243932271Y-84600040D01*
X243932271Y-83600040D01*
X245313223Y-84504802D02*
X245265604Y-84552421D01*
X245122747Y-84600040D01*
X245027509Y-84600040D01*
X244884652Y-84552421D01*
X244789414Y-84457183D01*
X244741795Y-84361945D01*
X244694176Y-84171469D01*
X244694176Y-84028612D01*
X244741795Y-83838136D01*
X244789414Y-83742898D01*
X244884652Y-83647660D01*
X245027509Y-83600040D01*
X245122747Y-83600040D01*
X245265604Y-83647660D01*
X245313223Y-83695279D01*
X246027509Y-83600040D02*
X246027509Y-84314326D01*
X245979890Y-84457183D01*
X245884652Y-84552421D01*
X245741795Y-84600040D01*
X245646557Y-84600040D01*
X246979890Y-84600040D02*
X246503700Y-84600040D01*
X246503700Y-83600040D01*
X247884652Y-84504802D02*
X247837033Y-84552421D01*
X247694176Y-84600040D01*
X247598938Y-84600040D01*
X247456080Y-84552421D01*
X247360842Y-84457183D01*
X247313223Y-84361945D01*
X247265604Y-84171469D01*
X247265604Y-84028612D01*
X247313223Y-83838136D01*
X247360842Y-83742898D01*
X247456080Y-83647660D01*
X247598938Y-83600040D01*
X247694176Y-83600040D01*
X247837033Y-83647660D01*
X247884652Y-83695279D01*
X248598938Y-83600040D02*
X248598938Y-84314326D01*
X248551319Y-84457183D01*
X248456080Y-84552421D01*
X248313223Y-84600040D01*
X248217985Y-84600040D01*
X249551319Y-84600040D02*
X249075128Y-84600040D01*
X249075128Y-83600040D01*
X250456080Y-84504802D02*
X250408461Y-84552421D01*
X250265604Y-84600040D01*
X250170366Y-84600040D01*
X250027509Y-84552421D01*
X249932271Y-84457183D01*
X249884652Y-84361945D01*
X249837033Y-84171469D01*
X249837033Y-84028612D01*
X249884652Y-83838136D01*
X249932271Y-83742898D01*
X250027509Y-83647660D01*
X250170366Y-83600040D01*
X250265604Y-83600040D01*
X250408461Y-83647660D01*
X250456080Y-83695279D01*
D11*
X258150000Y-77190000D02*
X227670000Y-77190000D01*
X227670000Y-77190000D02*
X227670000Y-94970000D01*
X227670000Y-94970000D02*
X258150000Y-94970000D01*
X258150000Y-94970000D02*
X260690000Y-94970000D01*
X260690000Y-94970000D02*
X260690000Y-77190000D01*
X260690000Y-77190000D02*
X258150000Y-77190000D01*
D10*
X158990000Y-18110000D02*
X153390000Y-18110000D01*
X153390000Y-20110000D02*
X153390000Y-18110000D01*
X158990000Y-20110000D02*
X158990000Y-18110000D01*
X153140000Y-20110000D02*
X153140000Y-32210000D01*
X159240000Y-20110000D02*
X159240000Y-32210000D01*
X159240000Y-32210000D02*
X153140000Y-32210000D01*
X159240000Y-20110000D02*
X153140000Y-20110000D01*
D12*
X227270000Y-86070000D02*
X227270000Y-87070000D01*
X226270000Y-86070000D02*
X227270000Y-86070000D01*
X223270000Y-86370000D02*
X226970000Y-86370000D01*
X223270000Y-87250000D02*
X223270000Y-86370000D01*
X223270000Y-89750000D02*
X223270000Y-89190000D01*
X223270000Y-92240000D02*
X223270000Y-91690000D01*
X223270000Y-95070000D02*
X223270000Y-94200000D01*
X226970000Y-95070000D02*
X223270000Y-95070000D01*
X226970000Y-94190000D02*
X226970000Y-95070000D01*
X226970000Y-91690000D02*
X226970000Y-92250000D01*
X226970000Y-89220000D02*
X226970000Y-89750000D01*
X226970000Y-86370000D02*
X226970000Y-87220000D01*
D10*
X240045922Y-63246428D02*
X240807827Y-63246428D01*
X242585922Y-63246428D02*
X243347827Y-63246428D01*
X242966875Y-63627380D02*
X242966875Y-62865476D01*
X259095922Y-63246428D02*
X259857827Y-63246428D01*
X261635922Y-63246428D02*
X262397827Y-63246428D01*
X262016875Y-63627380D02*
X262016875Y-62865476D01*
X201945922Y-63246428D02*
X202707827Y-63246428D01*
X204485922Y-63246428D02*
X205247827Y-63246428D01*
X204866875Y-63627380D02*
X204866875Y-62865476D01*
X206708422Y-25146428D02*
X207470327Y-25146428D01*
X209248422Y-25146428D02*
X210010327Y-25146428D01*
X209629375Y-25527380D02*
X209629375Y-24765476D01*
X187658422Y-25146428D02*
X188420327Y-25146428D01*
X190198422Y-25146428D02*
X190960327Y-25146428D01*
X190579375Y-25527380D02*
X190579375Y-24765476D01*
X287670922Y-44196428D02*
X288432827Y-44196428D01*
X290210922Y-44196428D02*
X290972827Y-44196428D01*
X290591875Y-44577380D02*
X290591875Y-43815476D01*
X230520922Y-44196428D02*
X231282827Y-44196428D01*
X233060922Y-44196428D02*
X233822827Y-44196428D01*
X233441875Y-44577380D02*
X233441875Y-43815476D01*
X268620922Y-44196428D02*
X269382827Y-44196428D01*
X271160922Y-44196428D02*
X271922827Y-44196428D01*
X271541875Y-44577380D02*
X271541875Y-43815476D01*
X211470922Y-44196428D02*
X212232827Y-44196428D01*
X214010922Y-44196428D02*
X214772827Y-44196428D01*
X214391875Y-44577380D02*
X214391875Y-43815476D01*
X282908422Y-25146428D02*
X283670327Y-25146428D01*
X285448422Y-25146428D02*
X286210327Y-25146428D01*
X285829375Y-25527380D02*
X285829375Y-24765476D01*
X263858422Y-25146428D02*
X264620327Y-25146428D01*
X266398422Y-25146428D02*
X267160327Y-25146428D01*
X266779375Y-25527380D02*
X266779375Y-24765476D01*
X244808422Y-25146428D02*
X245570327Y-25146428D01*
X247348422Y-25146428D02*
X248110327Y-25146428D01*
X247729375Y-25527380D02*
X247729375Y-24765476D01*
X225758422Y-25146428D02*
X226520327Y-25146428D01*
X228298422Y-25146428D02*
X229060327Y-25146428D01*
X228679375Y-25527380D02*
X228679375Y-24765476D01*
X249570922Y-44196428D02*
X250332827Y-44196428D01*
X252110922Y-44196428D02*
X252872827Y-44196428D01*
X252491875Y-44577380D02*
X252491875Y-43815476D01*
X220995922Y-63246428D02*
X221757827Y-63246428D01*
X223535922Y-63246428D02*
X224297827Y-63246428D01*
X223916875Y-63627380D02*
X223916875Y-62865476D01*
X192420922Y-44196428D02*
X193182827Y-44196428D01*
X194960922Y-44196428D02*
X195722827Y-44196428D01*
X195341875Y-44577380D02*
X195341875Y-43815476D01*
X192420922Y-82296428D02*
X193182827Y-82296428D01*
X194960922Y-82296428D02*
X195722827Y-82296428D01*
X195341875Y-82677380D02*
X195341875Y-81915476D01*
X182895922Y-63246428D02*
X183657827Y-63246428D01*
X185435922Y-63246428D02*
X186197827Y-63246428D01*
X185816875Y-63627380D02*
X185816875Y-62865476D01*
X173370922Y-44196428D02*
X174132827Y-44196428D01*
X175910922Y-44196428D02*
X176672827Y-44196428D01*
X176291875Y-44577380D02*
X176291875Y-43815476D01*
D13*
X229126571Y-91369714D02*
X230126571Y-91369714D01*
X229269428Y-91369714D02*
X229198000Y-91298285D01*
X229126571Y-91155428D01*
X229126571Y-90941142D01*
X229198000Y-90798285D01*
X229340857Y-90726857D01*
X230126571Y-90726857D01*
X230126571Y-90012571D02*
X229126571Y-90012571D01*
X228626571Y-90012571D02*
X228698000Y-90084000D01*
X228769428Y-90012571D01*
X228698000Y-89941142D01*
X228626571Y-90012571D01*
X228769428Y-90012571D01*
X230055142Y-88655428D02*
X230126571Y-88798285D01*
X230126571Y-89084000D01*
X230055142Y-89226857D01*
X229983714Y-89298285D01*
X229840857Y-89369714D01*
X229412285Y-89369714D01*
X229269428Y-89298285D01*
X229198000Y-89226857D01*
X229126571Y-89084000D01*
X229126571Y-88798285D01*
X229198000Y-88655428D01*
X230055142Y-87441142D02*
X230126571Y-87584000D01*
X230126571Y-87869714D01*
X230055142Y-88012571D01*
X229912285Y-88084000D01*
X229340857Y-88084000D01*
X229198000Y-88012571D01*
X229126571Y-87869714D01*
X229126571Y-87584000D01*
X229198000Y-87441142D01*
X229340857Y-87369714D01*
X229483714Y-87369714D01*
X229626571Y-88084000D01*
X229983714Y-86726857D02*
X230055142Y-86655428D01*
X230126571Y-86726857D01*
X230055142Y-86798285D01*
X229983714Y-86726857D01*
X230126571Y-86726857D01*
X229555142Y-86726857D02*
X228698000Y-86798285D01*
X228626571Y-86726857D01*
X228698000Y-86655428D01*
X229555142Y-86726857D01*
X228626571Y-86726857D01*
X229126571Y-86012571D02*
X230126571Y-86012571D01*
X229269428Y-86012571D02*
X229198000Y-85941142D01*
X229126571Y-85798285D01*
X229126571Y-85584000D01*
X229198000Y-85441142D01*
X229340857Y-85369714D01*
X230126571Y-85369714D01*
X230126571Y-84012571D02*
X229340857Y-84012571D01*
X229198000Y-84084000D01*
X229126571Y-84226857D01*
X229126571Y-84512571D01*
X229198000Y-84655428D01*
X230055142Y-84012571D02*
X230126571Y-84155428D01*
X230126571Y-84512571D01*
X230055142Y-84655428D01*
X229912285Y-84726857D01*
X229769428Y-84726857D01*
X229626571Y-84655428D01*
X229555142Y-84512571D01*
X229555142Y-84155428D01*
X229483714Y-84012571D01*
X229126571Y-83298285D02*
X230126571Y-83298285D01*
X229269428Y-83298285D02*
X229198000Y-83226857D01*
X229126571Y-83084000D01*
X229126571Y-82869714D01*
X229198000Y-82726857D01*
X229340857Y-82655428D01*
X230126571Y-82655428D01*
X230126571Y-81726857D02*
X230055142Y-81869714D01*
X229983714Y-81941142D01*
X229840857Y-82012571D01*
X229412285Y-82012571D01*
X229269428Y-81941142D01*
X229198000Y-81869714D01*
X229126571Y-81726857D01*
X229126571Y-81512571D01*
X229198000Y-81369714D01*
X229269428Y-81298285D01*
X229412285Y-81226857D01*
X229840857Y-81226857D01*
X229983714Y-81298285D01*
X230055142Y-81369714D01*
X230126571Y-81512571D01*
X230126571Y-81726857D01*
D10*
X231041904Y-92417191D02*
X231041904Y-92341000D01*
X231080000Y-92264810D01*
X231118095Y-92226714D01*
X231194285Y-92188619D01*
X231346666Y-92150524D01*
X231537142Y-92150524D01*
X231689523Y-92188619D01*
X231765714Y-92226714D01*
X231803809Y-92264810D01*
X231841904Y-92341000D01*
X231841904Y-92417191D01*
X231803809Y-92493381D01*
X231765714Y-92531476D01*
X231689523Y-92569571D01*
X231537142Y-92607667D01*
X231346666Y-92607667D01*
X231194285Y-92569571D01*
X231118095Y-92531476D01*
X231080000Y-92493381D01*
X231041904Y-92417191D01*
X231841904Y-91388619D02*
X231841904Y-91845762D01*
X231841904Y-91617191D02*
X231041904Y-91617191D01*
X231156190Y-91693381D01*
X231232380Y-91769571D01*
X231270476Y-91845762D01*
X231041904Y-90893381D02*
X231041904Y-90817191D01*
X231080000Y-90741000D01*
X231118095Y-90702905D01*
X231194285Y-90664810D01*
X231346666Y-90626714D01*
X231537142Y-90626714D01*
X231689523Y-90664810D01*
X231765714Y-90702905D01*
X231803809Y-90741000D01*
X231841904Y-90817191D01*
X231841904Y-90893381D01*
X231803809Y-90969571D01*
X231765714Y-91007667D01*
X231689523Y-91045762D01*
X231537142Y-91083857D01*
X231346666Y-91083857D01*
X231194285Y-91045762D01*
X231118095Y-91007667D01*
X231080000Y-90969571D01*
X231041904Y-90893381D01*
X239461904Y-92150524D02*
X239461904Y-92607667D01*
X239461904Y-92379095D02*
X238661904Y-92379095D01*
X238776190Y-92455286D01*
X238852380Y-92531476D01*
X238890476Y-92607667D01*
X239461904Y-91388619D02*
X239461904Y-91845762D01*
X239461904Y-91617191D02*
X238661904Y-91617191D01*
X238776190Y-91693381D01*
X238852380Y-91769571D01*
X238890476Y-91845762D01*
X238661904Y-90664810D02*
X238661904Y-91045762D01*
X239042857Y-91083857D01*
X239004761Y-91045762D01*
X238966666Y-90969571D01*
X238966666Y-90779095D01*
X239004761Y-90702905D01*
X239042857Y-90664810D01*
X239119047Y-90626714D01*
X239309523Y-90626714D01*
X239385714Y-90664810D01*
X239423809Y-90702905D01*
X239461904Y-90779095D01*
X239461904Y-90969571D01*
X239423809Y-91045762D01*
X239385714Y-91083857D01*
X241201904Y-92417191D02*
X241201904Y-92341000D01*
X241240000Y-92264810D01*
X241278095Y-92226714D01*
X241354285Y-92188619D01*
X241506666Y-92150524D01*
X241697142Y-92150524D01*
X241849523Y-92188619D01*
X241925714Y-92226714D01*
X241963809Y-92264810D01*
X242001904Y-92341000D01*
X242001904Y-92417191D01*
X241963809Y-92493381D01*
X241925714Y-92531476D01*
X241849523Y-92569571D01*
X241697142Y-92607667D01*
X241506666Y-92607667D01*
X241354285Y-92569571D01*
X241278095Y-92531476D01*
X241240000Y-92493381D01*
X241201904Y-92417191D01*
X241201904Y-91655286D02*
X241201904Y-91579095D01*
X241240000Y-91502905D01*
X241278095Y-91464810D01*
X241354285Y-91426714D01*
X241506666Y-91388619D01*
X241697142Y-91388619D01*
X241849523Y-91426714D01*
X241925714Y-91464810D01*
X241963809Y-91502905D01*
X242001904Y-91579095D01*
X242001904Y-91655286D01*
X241963809Y-91731476D01*
X241925714Y-91769571D01*
X241849523Y-91807667D01*
X241697142Y-91845762D01*
X241506666Y-91845762D01*
X241354285Y-91807667D01*
X241278095Y-91769571D01*
X241240000Y-91731476D01*
X241201904Y-91655286D01*
X241278095Y-91083857D02*
X241240000Y-91045762D01*
X241201904Y-90969571D01*
X241201904Y-90779095D01*
X241240000Y-90702905D01*
X241278095Y-90664810D01*
X241354285Y-90626714D01*
X241430476Y-90626714D01*
X241544761Y-90664810D01*
X242001904Y-91121952D01*
X242001904Y-90626714D01*
X243741904Y-92417191D02*
X243741904Y-92341000D01*
X243780000Y-92264810D01*
X243818095Y-92226714D01*
X243894285Y-92188619D01*
X244046666Y-92150524D01*
X244237142Y-92150524D01*
X244389523Y-92188619D01*
X244465714Y-92226714D01*
X244503809Y-92264810D01*
X244541904Y-92341000D01*
X244541904Y-92417191D01*
X244503809Y-92493381D01*
X244465714Y-92531476D01*
X244389523Y-92569571D01*
X244237142Y-92607667D01*
X244046666Y-92607667D01*
X243894285Y-92569571D01*
X243818095Y-92531476D01*
X243780000Y-92493381D01*
X243741904Y-92417191D01*
X243818095Y-91845762D02*
X243780000Y-91807667D01*
X243741904Y-91731476D01*
X243741904Y-91541000D01*
X243780000Y-91464810D01*
X243818095Y-91426714D01*
X243894285Y-91388619D01*
X243970476Y-91388619D01*
X244084761Y-91426714D01*
X244541904Y-91883857D01*
X244541904Y-91388619D01*
X244541904Y-91007667D02*
X244541904Y-90855286D01*
X244503809Y-90779095D01*
X244465714Y-90741000D01*
X244351428Y-90664810D01*
X244199047Y-90626714D01*
X243894285Y-90626714D01*
X243818095Y-90664810D01*
X243780000Y-90702905D01*
X243741904Y-90779095D01*
X243741904Y-90931476D01*
X243780000Y-91007667D01*
X243818095Y-91045762D01*
X243894285Y-91083857D01*
X244084761Y-91083857D01*
X244160952Y-91045762D01*
X244199047Y-91007667D01*
X244237142Y-90931476D01*
X244237142Y-90779095D01*
X244199047Y-90702905D01*
X244160952Y-90664810D01*
X244084761Y-90626714D01*
X257241904Y-92106095D02*
X256860952Y-92372762D01*
X257241904Y-92563238D02*
X256441904Y-92563238D01*
X256441904Y-92258476D01*
X256480000Y-92182286D01*
X256518095Y-92144191D01*
X256594285Y-92106095D01*
X256708571Y-92106095D01*
X256784761Y-92144191D01*
X256822857Y-92182286D01*
X256860952Y-92258476D01*
X256860952Y-92563238D01*
X257013333Y-91801334D02*
X257013333Y-91420381D01*
X257241904Y-91877524D02*
X256441904Y-91610857D01*
X257241904Y-91344191D01*
X256441904Y-91153715D02*
X257241904Y-90963238D01*
X256670476Y-90810857D01*
X257241904Y-90658476D01*
X256441904Y-90468000D01*
X253940000Y-92144190D02*
X253901904Y-92220381D01*
X253901904Y-92334667D01*
X253940000Y-92448952D01*
X254016190Y-92525143D01*
X254092380Y-92563238D01*
X254244761Y-92601333D01*
X254359047Y-92601333D01*
X254511428Y-92563238D01*
X254587619Y-92525143D01*
X254663809Y-92448952D01*
X254701904Y-92334667D01*
X254701904Y-92258476D01*
X254663809Y-92144190D01*
X254625714Y-92106095D01*
X254359047Y-92106095D01*
X254359047Y-92258476D01*
X254701904Y-91763238D02*
X253901904Y-91763238D01*
X254701904Y-91306095D01*
X253901904Y-91306095D01*
X254701904Y-90925143D02*
X253901904Y-90925143D01*
X253901904Y-90734667D01*
X253940000Y-90620381D01*
X254016190Y-90544190D01*
X254092380Y-90506095D01*
X254244761Y-90468000D01*
X254359047Y-90468000D01*
X254511428Y-90506095D01*
X254587619Y-90544190D01*
X254663809Y-90620381D01*
X254701904Y-90734667D01*
X254701904Y-90925143D01*
X252161904Y-92106095D02*
X251780952Y-92372761D01*
X252161904Y-92563238D02*
X251361904Y-92563238D01*
X251361904Y-92258476D01*
X251400000Y-92182285D01*
X251438095Y-92144190D01*
X251514285Y-92106095D01*
X251628571Y-92106095D01*
X251704761Y-92144190D01*
X251742857Y-92182285D01*
X251780952Y-92258476D01*
X251780952Y-92563238D01*
X252123809Y-91801333D02*
X252161904Y-91687047D01*
X252161904Y-91496571D01*
X252123809Y-91420380D01*
X252085714Y-91382285D01*
X252009523Y-91344190D01*
X251933333Y-91344190D01*
X251857142Y-91382285D01*
X251819047Y-91420380D01*
X251780952Y-91496571D01*
X251742857Y-91648952D01*
X251704761Y-91725142D01*
X251666666Y-91763238D01*
X251590476Y-91801333D01*
X251514285Y-91801333D01*
X251438095Y-91763238D01*
X251400000Y-91725142D01*
X251361904Y-91648952D01*
X251361904Y-91458476D01*
X251400000Y-91344190D01*
X251361904Y-91115619D02*
X251361904Y-90658476D01*
X252161904Y-90887047D02*
X251361904Y-90887047D01*
X248821904Y-92683857D02*
X249621904Y-92417191D01*
X248821904Y-92150524D01*
X249545714Y-91426714D02*
X249583809Y-91464810D01*
X249621904Y-91579095D01*
X249621904Y-91655286D01*
X249583809Y-91769571D01*
X249507619Y-91845762D01*
X249431428Y-91883857D01*
X249279047Y-91921952D01*
X249164761Y-91921952D01*
X249012380Y-91883857D01*
X248936190Y-91845762D01*
X248860000Y-91769571D01*
X248821904Y-91655286D01*
X248821904Y-91579095D01*
X248860000Y-91464810D01*
X248898095Y-91426714D01*
X249545714Y-90626714D02*
X249583809Y-90664810D01*
X249621904Y-90779095D01*
X249621904Y-90855286D01*
X249583809Y-90969571D01*
X249507619Y-91045762D01*
X249431428Y-91083857D01*
X249279047Y-91121952D01*
X249164761Y-91121952D01*
X249012380Y-91083857D01*
X248936190Y-91045762D01*
X248860000Y-90969571D01*
X248821904Y-90855286D01*
X248821904Y-90779095D01*
X248860000Y-90664810D01*
X248898095Y-90626714D01*
X246281904Y-92417191D02*
X246281904Y-92341000D01*
X246320000Y-92264810D01*
X246358095Y-92226714D01*
X246434285Y-92188619D01*
X246586666Y-92150524D01*
X246777142Y-92150524D01*
X246929523Y-92188619D01*
X247005714Y-92226714D01*
X247043809Y-92264810D01*
X247081904Y-92341000D01*
X247081904Y-92417191D01*
X247043809Y-92493381D01*
X247005714Y-92531476D01*
X246929523Y-92569571D01*
X246777142Y-92607667D01*
X246586666Y-92607667D01*
X246434285Y-92569571D01*
X246358095Y-92531476D01*
X246320000Y-92493381D01*
X246281904Y-92417191D01*
X246281904Y-91883857D02*
X246281904Y-91388619D01*
X246586666Y-91655286D01*
X246586666Y-91541000D01*
X246624761Y-91464810D01*
X246662857Y-91426714D01*
X246739047Y-91388619D01*
X246929523Y-91388619D01*
X247005714Y-91426714D01*
X247043809Y-91464810D01*
X247081904Y-91541000D01*
X247081904Y-91769571D01*
X247043809Y-91845762D01*
X247005714Y-91883857D01*
X247081904Y-90626714D02*
X247081904Y-91083857D01*
X247081904Y-90855286D02*
X246281904Y-90855286D01*
X246396190Y-90931476D01*
X246472380Y-91007667D01*
X246510476Y-91083857D01*
X236921904Y-92150524D02*
X236921904Y-92607667D01*
X236921904Y-92379095D02*
X236121904Y-92379095D01*
X236236190Y-92455286D01*
X236312380Y-92531476D01*
X236350476Y-92607667D01*
X236921904Y-91388619D02*
X236921904Y-91845762D01*
X236921904Y-91617191D02*
X236121904Y-91617191D01*
X236236190Y-91693381D01*
X236312380Y-91769571D01*
X236350476Y-91845762D01*
X236121904Y-91121952D02*
X236121904Y-90626714D01*
X236426666Y-90893381D01*
X236426666Y-90779095D01*
X236464761Y-90702905D01*
X236502857Y-90664810D01*
X236579047Y-90626714D01*
X236769523Y-90626714D01*
X236845714Y-90664810D01*
X236883809Y-90702905D01*
X236921904Y-90779095D01*
X236921904Y-91007667D01*
X236883809Y-91083857D01*
X236845714Y-91121952D01*
X234381904Y-92150524D02*
X234381904Y-92607667D01*
X234381904Y-92379095D02*
X233581904Y-92379095D01*
X233696190Y-92455286D01*
X233772380Y-92531476D01*
X233810476Y-92607667D01*
X234381904Y-91388619D02*
X234381904Y-91845762D01*
X234381904Y-91617191D02*
X233581904Y-91617191D01*
X233696190Y-91693381D01*
X233772380Y-91769571D01*
X233810476Y-91845762D01*
X234381904Y-90626714D02*
X234381904Y-91083857D01*
X234381904Y-90855286D02*
X233581904Y-90855286D01*
X233696190Y-90931476D01*
X233772380Y-91007667D01*
X233810476Y-91083857D01*
X231841904Y-81076143D02*
X231841904Y-81533286D01*
X231841904Y-81304714D02*
X231041904Y-81304714D01*
X231156190Y-81380905D01*
X231232380Y-81457095D01*
X231270476Y-81533286D01*
X231041904Y-80580905D02*
X231041904Y-80504714D01*
X231080000Y-80428524D01*
X231118095Y-80390429D01*
X231194285Y-80352333D01*
X231346666Y-80314238D01*
X231537142Y-80314238D01*
X231689523Y-80352333D01*
X231765714Y-80390429D01*
X231803809Y-80428524D01*
X231841904Y-80504714D01*
X231841904Y-80580905D01*
X231803809Y-80657095D01*
X231765714Y-80695190D01*
X231689523Y-80733286D01*
X231537142Y-80771381D01*
X231346666Y-80771381D01*
X231194285Y-80733286D01*
X231118095Y-80695190D01*
X231080000Y-80657095D01*
X231041904Y-80580905D01*
X231308571Y-79628524D02*
X231841904Y-79628524D01*
X231003809Y-79819000D02*
X231575238Y-80009476D01*
X231575238Y-79514238D01*
X236921904Y-81076143D02*
X236921904Y-81533286D01*
X236921904Y-81304714D02*
X236121904Y-81304714D01*
X236236190Y-81380905D01*
X236312380Y-81457095D01*
X236350476Y-81533286D01*
X236121904Y-80580905D02*
X236121904Y-80504714D01*
X236160000Y-80428524D01*
X236198095Y-80390429D01*
X236274285Y-80352333D01*
X236426666Y-80314238D01*
X236617142Y-80314238D01*
X236769523Y-80352333D01*
X236845714Y-80390429D01*
X236883809Y-80428524D01*
X236921904Y-80504714D01*
X236921904Y-80580905D01*
X236883809Y-80657095D01*
X236845714Y-80695190D01*
X236769523Y-80733286D01*
X236617142Y-80771381D01*
X236426666Y-80771381D01*
X236274285Y-80733286D01*
X236198095Y-80695190D01*
X236160000Y-80657095D01*
X236121904Y-80580905D01*
X236121904Y-79819000D02*
X236121904Y-79742810D01*
X236160000Y-79666619D01*
X236198095Y-79628524D01*
X236274285Y-79590429D01*
X236426666Y-79552333D01*
X236617142Y-79552333D01*
X236769523Y-79590429D01*
X236845714Y-79628524D01*
X236883809Y-79666619D01*
X236921904Y-79742810D01*
X236921904Y-79819000D01*
X236883809Y-79895190D01*
X236845714Y-79933286D01*
X236769523Y-79971381D01*
X236617142Y-80009476D01*
X236426666Y-80009476D01*
X236274285Y-79971381D01*
X236198095Y-79933286D01*
X236160000Y-79895190D01*
X236121904Y-79819000D01*
X238661904Y-81342810D02*
X238661904Y-81266619D01*
X238700000Y-81190429D01*
X238738095Y-81152333D01*
X238814285Y-81114238D01*
X238966666Y-81076143D01*
X239157142Y-81076143D01*
X239309523Y-81114238D01*
X239385714Y-81152333D01*
X239423809Y-81190429D01*
X239461904Y-81266619D01*
X239461904Y-81342810D01*
X239423809Y-81419000D01*
X239385714Y-81457095D01*
X239309523Y-81495190D01*
X239157142Y-81533286D01*
X238966666Y-81533286D01*
X238814285Y-81495190D01*
X238738095Y-81457095D01*
X238700000Y-81419000D01*
X238661904Y-81342810D01*
X238738095Y-80771381D02*
X238700000Y-80733286D01*
X238661904Y-80657095D01*
X238661904Y-80466619D01*
X238700000Y-80390429D01*
X238738095Y-80352333D01*
X238814285Y-80314238D01*
X238890476Y-80314238D01*
X239004761Y-80352333D01*
X239461904Y-80809476D01*
X239461904Y-80314238D01*
X238928571Y-79628524D02*
X239461904Y-79628524D01*
X238623809Y-79819000D02*
X239195238Y-80009476D01*
X239195238Y-79514238D01*
X241171904Y-81342810D02*
X241171904Y-81266619D01*
X241210000Y-81190429D01*
X241248095Y-81152333D01*
X241324285Y-81114238D01*
X241476666Y-81076143D01*
X241667142Y-81076143D01*
X241819523Y-81114238D01*
X241895714Y-81152333D01*
X241933809Y-81190429D01*
X241971904Y-81266619D01*
X241971904Y-81342810D01*
X241933809Y-81419000D01*
X241895714Y-81457095D01*
X241819523Y-81495190D01*
X241667142Y-81533286D01*
X241476666Y-81533286D01*
X241324285Y-81495190D01*
X241248095Y-81457095D01*
X241210000Y-81419000D01*
X241171904Y-81342810D01*
X241248095Y-80771381D02*
X241210000Y-80733286D01*
X241171904Y-80657095D01*
X241171904Y-80466619D01*
X241210000Y-80390429D01*
X241248095Y-80352333D01*
X241324285Y-80314238D01*
X241400476Y-80314238D01*
X241514761Y-80352333D01*
X241971904Y-80809476D01*
X241971904Y-80314238D01*
X241248095Y-80009476D02*
X241210000Y-79971381D01*
X241171904Y-79895190D01*
X241171904Y-79704714D01*
X241210000Y-79628524D01*
X241248095Y-79590429D01*
X241324285Y-79552333D01*
X241400476Y-79552333D01*
X241514761Y-79590429D01*
X241971904Y-80047571D01*
X241971904Y-79552333D01*
X251400000Y-81228523D02*
X251361904Y-81304714D01*
X251361904Y-81419000D01*
X251400000Y-81533285D01*
X251476190Y-81609476D01*
X251552380Y-81647571D01*
X251704761Y-81685666D01*
X251819047Y-81685666D01*
X251971428Y-81647571D01*
X252047619Y-81609476D01*
X252123809Y-81533285D01*
X252161904Y-81419000D01*
X252161904Y-81342809D01*
X252123809Y-81228523D01*
X252085714Y-81190428D01*
X251819047Y-81190428D01*
X251819047Y-81342809D01*
X252161904Y-80847571D02*
X251361904Y-80847571D01*
X252161904Y-80390428D01*
X251361904Y-80390428D01*
X252161904Y-80009476D02*
X251361904Y-80009476D01*
X251361904Y-79819000D01*
X251400000Y-79704714D01*
X251476190Y-79628523D01*
X251552380Y-79590428D01*
X251704761Y-79552333D01*
X251819047Y-79552333D01*
X251971428Y-79590428D01*
X252047619Y-79628523D01*
X252123809Y-79704714D01*
X252161904Y-79819000D01*
X252161904Y-80009476D01*
X248860000Y-81228523D02*
X248821904Y-81304714D01*
X248821904Y-81419000D01*
X248860000Y-81533285D01*
X248936190Y-81609476D01*
X249012380Y-81647571D01*
X249164761Y-81685666D01*
X249279047Y-81685666D01*
X249431428Y-81647571D01*
X249507619Y-81609476D01*
X249583809Y-81533285D01*
X249621904Y-81419000D01*
X249621904Y-81342809D01*
X249583809Y-81228523D01*
X249545714Y-81190428D01*
X249279047Y-81190428D01*
X249279047Y-81342809D01*
X249621904Y-80847571D02*
X248821904Y-80847571D01*
X249621904Y-80390428D01*
X248821904Y-80390428D01*
X249621904Y-80009476D02*
X248821904Y-80009476D01*
X248821904Y-79819000D01*
X248860000Y-79704714D01*
X248936190Y-79628523D01*
X249012380Y-79590428D01*
X249164761Y-79552333D01*
X249279047Y-79552333D01*
X249431428Y-79590428D01*
X249507619Y-79628523D01*
X249583809Y-79704714D01*
X249621904Y-79819000D01*
X249621904Y-80009476D01*
X246271904Y-81342810D02*
X246271904Y-81266619D01*
X246310000Y-81190429D01*
X246348095Y-81152333D01*
X246424285Y-81114238D01*
X246576666Y-81076143D01*
X246767142Y-81076143D01*
X246919523Y-81114238D01*
X246995714Y-81152333D01*
X247033809Y-81190429D01*
X247071904Y-81266619D01*
X247071904Y-81342810D01*
X247033809Y-81419000D01*
X246995714Y-81457095D01*
X246919523Y-81495190D01*
X246767142Y-81533286D01*
X246576666Y-81533286D01*
X246424285Y-81495190D01*
X246348095Y-81457095D01*
X246310000Y-81419000D01*
X246271904Y-81342810D01*
X247071904Y-80314238D02*
X247071904Y-80771381D01*
X247071904Y-80542810D02*
X246271904Y-80542810D01*
X246386190Y-80619000D01*
X246462380Y-80695190D01*
X246500476Y-80771381D01*
X246271904Y-80047571D02*
X246271904Y-79514238D01*
X247071904Y-79857095D01*
X243671904Y-81342810D02*
X243671904Y-81266619D01*
X243710000Y-81190429D01*
X243748095Y-81152333D01*
X243824285Y-81114238D01*
X243976666Y-81076143D01*
X244167142Y-81076143D01*
X244319523Y-81114238D01*
X244395714Y-81152333D01*
X244433809Y-81190429D01*
X244471904Y-81266619D01*
X244471904Y-81342810D01*
X244433809Y-81419000D01*
X244395714Y-81457095D01*
X244319523Y-81495190D01*
X244167142Y-81533286D01*
X243976666Y-81533286D01*
X243824285Y-81495190D01*
X243748095Y-81457095D01*
X243710000Y-81419000D01*
X243671904Y-81342810D01*
X243748095Y-80771381D02*
X243710000Y-80733286D01*
X243671904Y-80657095D01*
X243671904Y-80466619D01*
X243710000Y-80390429D01*
X243748095Y-80352333D01*
X243824285Y-80314238D01*
X243900476Y-80314238D01*
X244014761Y-80352333D01*
X244471904Y-80809476D01*
X244471904Y-80314238D01*
X243671904Y-79819000D02*
X243671904Y-79742810D01*
X243710000Y-79666619D01*
X243748095Y-79628524D01*
X243824285Y-79590429D01*
X243976666Y-79552333D01*
X244167142Y-79552333D01*
X244319523Y-79590429D01*
X244395714Y-79628524D01*
X244433809Y-79666619D01*
X244471904Y-79742810D01*
X244471904Y-79819000D01*
X244433809Y-79895190D01*
X244395714Y-79933286D01*
X244319523Y-79971381D01*
X244167142Y-80009476D01*
X243976666Y-80009476D01*
X243824285Y-79971381D01*
X243748095Y-79933286D01*
X243710000Y-79895190D01*
X243671904Y-79819000D01*
X253971904Y-81342810D02*
X253971904Y-81266619D01*
X254010000Y-81190429D01*
X254048095Y-81152333D01*
X254124285Y-81114238D01*
X254276666Y-81076143D01*
X254467142Y-81076143D01*
X254619523Y-81114238D01*
X254695714Y-81152333D01*
X254733809Y-81190429D01*
X254771904Y-81266619D01*
X254771904Y-81342810D01*
X254733809Y-81419000D01*
X254695714Y-81457095D01*
X254619523Y-81495190D01*
X254467142Y-81533286D01*
X254276666Y-81533286D01*
X254124285Y-81495190D01*
X254048095Y-81457095D01*
X254010000Y-81419000D01*
X253971904Y-81342810D01*
X253971904Y-80580905D02*
X253971904Y-80504714D01*
X254010000Y-80428524D01*
X254048095Y-80390429D01*
X254124285Y-80352333D01*
X254276666Y-80314238D01*
X254467142Y-80314238D01*
X254619523Y-80352333D01*
X254695714Y-80390429D01*
X254733809Y-80428524D01*
X254771904Y-80504714D01*
X254771904Y-80580905D01*
X254733809Y-80657095D01*
X254695714Y-80695190D01*
X254619523Y-80733286D01*
X254467142Y-80771381D01*
X254276666Y-80771381D01*
X254124285Y-80733286D01*
X254048095Y-80695190D01*
X254010000Y-80657095D01*
X253971904Y-80580905D01*
X254314761Y-79857095D02*
X254276666Y-79933286D01*
X254238571Y-79971381D01*
X254162380Y-80009476D01*
X254124285Y-80009476D01*
X254048095Y-79971381D01*
X254010000Y-79933286D01*
X253971904Y-79857095D01*
X253971904Y-79704714D01*
X254010000Y-79628524D01*
X254048095Y-79590429D01*
X254124285Y-79552333D01*
X254162380Y-79552333D01*
X254238571Y-79590429D01*
X254276666Y-79628524D01*
X254314761Y-79704714D01*
X254314761Y-79857095D01*
X254352857Y-79933286D01*
X254390952Y-79971381D01*
X254467142Y-80009476D01*
X254619523Y-80009476D01*
X254695714Y-79971381D01*
X254733809Y-79933286D01*
X254771904Y-79857095D01*
X254771904Y-79704714D01*
X254733809Y-79628524D01*
X254695714Y-79590429D01*
X254619523Y-79552333D01*
X254467142Y-79552333D01*
X254390952Y-79590429D01*
X254352857Y-79628524D01*
X254314761Y-79704714D01*
X256441904Y-81342810D02*
X256441904Y-81266619D01*
X256480000Y-81190429D01*
X256518095Y-81152333D01*
X256594285Y-81114238D01*
X256746666Y-81076143D01*
X256937142Y-81076143D01*
X257089523Y-81114238D01*
X257165714Y-81152333D01*
X257203809Y-81190429D01*
X257241904Y-81266619D01*
X257241904Y-81342810D01*
X257203809Y-81419000D01*
X257165714Y-81457095D01*
X257089523Y-81495190D01*
X256937142Y-81533286D01*
X256746666Y-81533286D01*
X256594285Y-81495190D01*
X256518095Y-81457095D01*
X256480000Y-81419000D01*
X256441904Y-81342810D01*
X256441904Y-80580905D02*
X256441904Y-80504714D01*
X256480000Y-80428524D01*
X256518095Y-80390429D01*
X256594285Y-80352333D01*
X256746666Y-80314238D01*
X256937142Y-80314238D01*
X257089523Y-80352333D01*
X257165714Y-80390429D01*
X257203809Y-80428524D01*
X257241904Y-80504714D01*
X257241904Y-80580905D01*
X257203809Y-80657095D01*
X257165714Y-80695190D01*
X257089523Y-80733286D01*
X256937142Y-80771381D01*
X256746666Y-80771381D01*
X256594285Y-80733286D01*
X256518095Y-80695190D01*
X256480000Y-80657095D01*
X256441904Y-80580905D01*
X256441904Y-79628524D02*
X256441904Y-79780905D01*
X256480000Y-79857095D01*
X256518095Y-79895190D01*
X256632380Y-79971381D01*
X256784761Y-80009476D01*
X257089523Y-80009476D01*
X257165714Y-79971381D01*
X257203809Y-79933286D01*
X257241904Y-79857095D01*
X257241904Y-79704714D01*
X257203809Y-79628524D01*
X257165714Y-79590429D01*
X257089523Y-79552333D01*
X256899047Y-79552333D01*
X256822857Y-79590429D01*
X256784761Y-79628524D01*
X256746666Y-79704714D01*
X256746666Y-79857095D01*
X256784761Y-79933286D01*
X256822857Y-79971381D01*
X256899047Y-80009476D01*
X259362857Y-81057095D02*
X259400952Y-80942809D01*
X259439047Y-80904714D01*
X259515238Y-80866619D01*
X259629523Y-80866619D01*
X259705714Y-80904714D01*
X259743809Y-80942809D01*
X259781904Y-81019000D01*
X259781904Y-81323761D01*
X258981904Y-81323761D01*
X258981904Y-81057095D01*
X259020000Y-80980904D01*
X259058095Y-80942809D01*
X259134285Y-80904714D01*
X259210476Y-80904714D01*
X259286666Y-80942809D01*
X259324761Y-80980904D01*
X259362857Y-81057095D01*
X259362857Y-81323761D01*
X259477142Y-80523761D02*
X259477142Y-79914238D01*
X259362857Y-92296572D02*
X259400952Y-92182286D01*
X259439047Y-92144191D01*
X259515238Y-92106096D01*
X259629523Y-92106096D01*
X259705714Y-92144191D01*
X259743809Y-92182286D01*
X259781904Y-92258477D01*
X259781904Y-92563238D01*
X258981904Y-92563238D01*
X258981904Y-92296572D01*
X259020000Y-92220381D01*
X259058095Y-92182286D01*
X259134285Y-92144191D01*
X259210476Y-92144191D01*
X259286666Y-92182286D01*
X259324761Y-92220381D01*
X259362857Y-92296572D01*
X259362857Y-92563238D01*
X259477142Y-91763238D02*
X259477142Y-91153715D01*
X259781904Y-91458477D02*
X259172380Y-91458477D01*
X168608422Y-25146428D02*
X169370327Y-25146428D01*
X171148422Y-25146428D02*
X171910327Y-25146428D01*
X171529375Y-25527380D02*
X171529375Y-24765476D01*
X173370922Y-82296428D02*
X174132827Y-82296428D01*
X175910922Y-82296428D02*
X176672827Y-82296428D01*
X176291875Y-82677380D02*
X176291875Y-81915476D01*
X228774761Y-92529523D02*
X228822380Y-92386666D01*
X228822380Y-92148571D01*
X228774761Y-92053333D01*
X228727142Y-92005714D01*
X228631904Y-91958095D01*
X228536666Y-91958095D01*
X228441428Y-92005714D01*
X228393809Y-92053333D01*
X228346190Y-92148571D01*
X228298571Y-92339047D01*
X228250952Y-92434285D01*
X228203333Y-92481904D01*
X228108095Y-92529523D01*
X228012857Y-92529523D01*
X227917619Y-92481904D01*
X227870000Y-92434285D01*
X227822380Y-92339047D01*
X227822380Y-92100952D01*
X227870000Y-91958095D01*
X227822380Y-91624761D02*
X228822380Y-91386666D01*
X228108095Y-91196190D01*
X228822380Y-91005714D01*
X227822380Y-90767619D01*
X228155714Y-89958095D02*
X228822380Y-89958095D01*
X227774761Y-90196190D02*
X228489047Y-90434285D01*
X228489047Y-89815238D01*
X228250952Y-89291428D02*
X228203333Y-89386666D01*
X228155714Y-89434285D01*
X228060476Y-89481904D01*
X228012857Y-89481904D01*
X227917619Y-89434285D01*
X227870000Y-89386666D01*
X227822380Y-89291428D01*
X227822380Y-89100952D01*
X227870000Y-89005714D01*
X227917619Y-88958095D01*
X228012857Y-88910476D01*
X228060476Y-88910476D01*
X228155714Y-88958095D01*
X228203333Y-89005714D01*
X228250952Y-89100952D01*
X228250952Y-89291428D01*
X228298571Y-89386666D01*
X228346190Y-89434285D01*
X228441428Y-89481904D01*
X228631904Y-89481904D01*
X228727142Y-89434285D01*
X228774761Y-89386666D01*
X228822380Y-89291428D01*
X228822380Y-89100952D01*
X228774761Y-89005714D01*
X228727142Y-88958095D01*
X228631904Y-88910476D01*
X228441428Y-88910476D01*
X228346190Y-88958095D01*
X228298571Y-89005714D01*
X228250952Y-89100952D01*
X211470922Y-82296428D02*
X212232827Y-82296428D01*
X214010922Y-82296428D02*
X214772827Y-82296428D01*
X214391875Y-82677380D02*
X214391875Y-81915476D01*
X297195922Y-63246428D02*
X297957827Y-63246428D01*
X299735922Y-63246428D02*
X300497827Y-63246428D01*
X300116875Y-63627380D02*
X300116875Y-62865476D01*
X278145922Y-63246428D02*
X278907827Y-63246428D01*
X280685922Y-63246428D02*
X281447827Y-63246428D01*
X281066875Y-63627380D02*
X281066875Y-62865476D01*
%LPC*%
D14*
X240426875Y-61595000D03*
D15*
X242966875Y-61595000D03*
D16*
X246916875Y-62475000D03*
D17*
X236196875Y-66675000D03*
X247196875Y-66675000D03*
D18*
X241696875Y-72575000D03*
X236696875Y-70475000D03*
D19*
X236616875Y-66675000D03*
X246776875Y-66675000D03*
D20*
X244196875Y-70675000D03*
D21*
X241696875Y-66675000D03*
D20*
X244851880Y-69945004D03*
D22*
X245506875Y-69215000D02*
X244196885Y-70675008D01*
D20*
X239156875Y-71755000D03*
X239177104Y-71465016D03*
D22*
X239196875Y-71175000D02*
X239157333Y-71755032D01*
D14*
X259476875Y-61595000D03*
D15*
X262016875Y-61595000D03*
D16*
X265966875Y-62475000D03*
D17*
X255246875Y-66675000D03*
X266246875Y-66675000D03*
D18*
X260746875Y-72575000D03*
X255746875Y-70475000D03*
D19*
X255666875Y-66675000D03*
X265826875Y-66675000D03*
D20*
X263246875Y-70675000D03*
D21*
X260746875Y-66675000D03*
D20*
X263901880Y-69945004D03*
D22*
X264556875Y-69215000D02*
X263246885Y-70675008D01*
D20*
X258206875Y-71755000D03*
X258227104Y-71465016D03*
D22*
X258246875Y-71175000D02*
X258207333Y-71755032D01*
D14*
X202326875Y-61595000D03*
D15*
X204866875Y-61595000D03*
D16*
X208816875Y-62475000D03*
D17*
X198096875Y-66675000D03*
X209096875Y-66675000D03*
D18*
X203596875Y-72575000D03*
X198596875Y-70475000D03*
D19*
X198516875Y-66675000D03*
X208676875Y-66675000D03*
D20*
X206096875Y-70675000D03*
D21*
X203596875Y-66675000D03*
D20*
X206751880Y-69945004D03*
D22*
X207406875Y-69215000D02*
X206096885Y-70675008D01*
D20*
X201056875Y-71755000D03*
X201077104Y-71465016D03*
D22*
X201096875Y-71175000D02*
X201057333Y-71755032D01*
D14*
X207089375Y-23495000D03*
D15*
X209629375Y-23495000D03*
D16*
X213579375Y-24375000D03*
D17*
X202859375Y-28575000D03*
X213859375Y-28575000D03*
D18*
X208359375Y-34475000D03*
X203359375Y-32375000D03*
D19*
X203279375Y-28575000D03*
X213439375Y-28575000D03*
D20*
X210859375Y-32575000D03*
D21*
X208359375Y-28575000D03*
D20*
X211514380Y-31845004D03*
D22*
X212169375Y-31115000D02*
X210859385Y-32575008D01*
D20*
X205819375Y-33655000D03*
X205839604Y-33365016D03*
D22*
X205859375Y-33075000D02*
X205819833Y-33655032D01*
D14*
X188039375Y-23495000D03*
D15*
X190579375Y-23495000D03*
D16*
X194529375Y-24375000D03*
D17*
X183809375Y-28575000D03*
X194809375Y-28575000D03*
D18*
X189309375Y-34475000D03*
X184309375Y-32375000D03*
D19*
X184229375Y-28575000D03*
X194389375Y-28575000D03*
D20*
X191809375Y-32575000D03*
D21*
X189309375Y-28575000D03*
D20*
X192464380Y-31845004D03*
D22*
X193119375Y-31115000D02*
X191809385Y-32575008D01*
D20*
X186769375Y-33655000D03*
X186789604Y-33365016D03*
D22*
X186809375Y-33075000D02*
X186769833Y-33655032D01*
D14*
X288051875Y-42545000D03*
D15*
X290591875Y-42545000D03*
D16*
X294541875Y-43425000D03*
D17*
X283821875Y-47625000D03*
X294821875Y-47625000D03*
D18*
X289321875Y-53525000D03*
X284321875Y-51425000D03*
D19*
X284241875Y-47625000D03*
X294401875Y-47625000D03*
D20*
X291821875Y-51625000D03*
D21*
X289321875Y-47625000D03*
D20*
X292476880Y-50895004D03*
D22*
X293131875Y-50165000D02*
X291821885Y-51625008D01*
D20*
X286781875Y-52705000D03*
X286802104Y-52415016D03*
D22*
X286821875Y-52125000D02*
X286782333Y-52705032D01*
D14*
X230901875Y-42545000D03*
D15*
X233441875Y-42545000D03*
D16*
X237391875Y-43425000D03*
D17*
X226671875Y-47625000D03*
X237671875Y-47625000D03*
D18*
X232171875Y-53525000D03*
X227171875Y-51425000D03*
D19*
X227091875Y-47625000D03*
X237251875Y-47625000D03*
D20*
X234671875Y-51625000D03*
D21*
X232171875Y-47625000D03*
D20*
X235326880Y-50895004D03*
D22*
X235981875Y-50165000D02*
X234671885Y-51625008D01*
D20*
X229631875Y-52705000D03*
X229652104Y-52415016D03*
D22*
X229671875Y-52125000D02*
X229632333Y-52705032D01*
D14*
X269001875Y-42545000D03*
D15*
X271541875Y-42545000D03*
D16*
X275491875Y-43425000D03*
D17*
X264771875Y-47625000D03*
X275771875Y-47625000D03*
D18*
X270271875Y-53525000D03*
X265271875Y-51425000D03*
D19*
X265191875Y-47625000D03*
X275351875Y-47625000D03*
D20*
X272771875Y-51625000D03*
D21*
X270271875Y-47625000D03*
D20*
X273426880Y-50895004D03*
D22*
X274081875Y-50165000D02*
X272771885Y-51625008D01*
D20*
X267731875Y-52705000D03*
X267752104Y-52415016D03*
D22*
X267771875Y-52125000D02*
X267732333Y-52705032D01*
D14*
X211851875Y-42545000D03*
D15*
X214391875Y-42545000D03*
D16*
X218341875Y-43425000D03*
D17*
X207621875Y-47625000D03*
X218621875Y-47625000D03*
D18*
X213121875Y-53525000D03*
X208121875Y-51425000D03*
D19*
X208041875Y-47625000D03*
X218201875Y-47625000D03*
D20*
X215621875Y-51625000D03*
D21*
X213121875Y-47625000D03*
D20*
X216276880Y-50895004D03*
D22*
X216931875Y-50165000D02*
X215621885Y-51625008D01*
D20*
X210581875Y-52705000D03*
X210602104Y-52415016D03*
D22*
X210621875Y-52125000D02*
X210582333Y-52705032D01*
D23*
X223610000Y-83760000D03*
D24*
G36*
X224291338Y-81110306D02*
G01*
X224317669Y-81114212D01*
X224343490Y-81120680D01*
X224368553Y-81129648D01*
X224392617Y-81141029D01*
X224415449Y-81154714D01*
X224436830Y-81170571D01*
X224456553Y-81188447D01*
X224474429Y-81208170D01*
X224490286Y-81229551D01*
X224503971Y-81252383D01*
X224515352Y-81276447D01*
X224524320Y-81301510D01*
X224530788Y-81327331D01*
X224534694Y-81353662D01*
X224536000Y-81380249D01*
X224536000Y-82139751D01*
X224534694Y-82166338D01*
X224530788Y-82192669D01*
X224524320Y-82218490D01*
X224515352Y-82243553D01*
X224503971Y-82267617D01*
X224490286Y-82290449D01*
X224474429Y-82311830D01*
X224456553Y-82331553D01*
X224436830Y-82349429D01*
X224415449Y-82365286D01*
X224392617Y-82378971D01*
X224368553Y-82390352D01*
X224343490Y-82399320D01*
X224317669Y-82405788D01*
X224291338Y-82409694D01*
X224264751Y-82411000D01*
X222955249Y-82411000D01*
X222928662Y-82409694D01*
X222902331Y-82405788D01*
X222876510Y-82399320D01*
X222851447Y-82390352D01*
X222827383Y-82378971D01*
X222804551Y-82365286D01*
X222783170Y-82349429D01*
X222763447Y-82331553D01*
X222745571Y-82311830D01*
X222729714Y-82290449D01*
X222716029Y-82267617D01*
X222704648Y-82243553D01*
X222695680Y-82218490D01*
X222689212Y-82192669D01*
X222685306Y-82166338D01*
X222684000Y-82139751D01*
X222684000Y-81380249D01*
X222685306Y-81353662D01*
X222689212Y-81327331D01*
X222695680Y-81301510D01*
X222704648Y-81276447D01*
X222716029Y-81252383D01*
X222729714Y-81229551D01*
X222745571Y-81208170D01*
X222763447Y-81188447D01*
X222783170Y-81170571D01*
X222804551Y-81154714D01*
X222827383Y-81141029D01*
X222851447Y-81129648D01*
X222876510Y-81120680D01*
X222902331Y-81114212D01*
X222928662Y-81110306D01*
X222955249Y-81109000D01*
X224264751Y-81109000D01*
X224291338Y-81110306D01*
X224291338Y-81110306D01*
G37*
D25*
X223610000Y-81760000D03*
D14*
X283289375Y-23495000D03*
D15*
X285829375Y-23495000D03*
D16*
X289779375Y-24375000D03*
D17*
X279059375Y-28575000D03*
X290059375Y-28575000D03*
D18*
X284559375Y-34475000D03*
X279559375Y-32375000D03*
D19*
X279479375Y-28575000D03*
X289639375Y-28575000D03*
D20*
X287059375Y-32575000D03*
D21*
X284559375Y-28575000D03*
D20*
X287714380Y-31845004D03*
D22*
X288369375Y-31115000D02*
X287059385Y-32575008D01*
D20*
X282019375Y-33655000D03*
X282039604Y-33365016D03*
D22*
X282059375Y-33075000D02*
X282019833Y-33655032D01*
D14*
X264239375Y-23495000D03*
D15*
X266779375Y-23495000D03*
D16*
X270729375Y-24375000D03*
D17*
X260009375Y-28575000D03*
X271009375Y-28575000D03*
D18*
X265509375Y-34475000D03*
X260509375Y-32375000D03*
D19*
X260429375Y-28575000D03*
X270589375Y-28575000D03*
D20*
X268009375Y-32575000D03*
D21*
X265509375Y-28575000D03*
D20*
X268664380Y-31845004D03*
D22*
X269319375Y-31115000D02*
X268009385Y-32575008D01*
D20*
X262969375Y-33655000D03*
X262989604Y-33365016D03*
D22*
X263009375Y-33075000D02*
X262969833Y-33655032D01*
D14*
X245189375Y-23495000D03*
D15*
X247729375Y-23495000D03*
D16*
X251679375Y-24375000D03*
D17*
X240959375Y-28575000D03*
X251959375Y-28575000D03*
D18*
X246459375Y-34475000D03*
X241459375Y-32375000D03*
D19*
X241379375Y-28575000D03*
X251539375Y-28575000D03*
D20*
X248959375Y-32575000D03*
D21*
X246459375Y-28575000D03*
D20*
X249614380Y-31845004D03*
D22*
X250269375Y-31115000D02*
X248959385Y-32575008D01*
D20*
X243919375Y-33655000D03*
X243939604Y-33365016D03*
D22*
X243959375Y-33075000D02*
X243919833Y-33655032D01*
D14*
X226139375Y-23495000D03*
D15*
X228679375Y-23495000D03*
D16*
X232629375Y-24375000D03*
D17*
X221909375Y-28575000D03*
X232909375Y-28575000D03*
D18*
X227409375Y-34475000D03*
X222409375Y-32375000D03*
D19*
X222329375Y-28575000D03*
X232489375Y-28575000D03*
D20*
X229909375Y-32575000D03*
D21*
X227409375Y-28575000D03*
D20*
X230564380Y-31845004D03*
D22*
X231219375Y-31115000D02*
X229909385Y-32575008D01*
D20*
X224869375Y-33655000D03*
X224889604Y-33365016D03*
D22*
X224909375Y-33075000D02*
X224869833Y-33655032D01*
D14*
X249951875Y-42545000D03*
D15*
X252491875Y-42545000D03*
D16*
X256441875Y-43425000D03*
D17*
X245721875Y-47625000D03*
X256721875Y-47625000D03*
D18*
X251221875Y-53525000D03*
X246221875Y-51425000D03*
D19*
X246141875Y-47625000D03*
X256301875Y-47625000D03*
D20*
X253721875Y-51625000D03*
D21*
X251221875Y-47625000D03*
D20*
X254376880Y-50895004D03*
D22*
X255031875Y-50165000D02*
X253721885Y-51625008D01*
D20*
X248681875Y-52705000D03*
X248702104Y-52415016D03*
D22*
X248721875Y-52125000D02*
X248682333Y-52705032D01*
D14*
X221376875Y-61595000D03*
D15*
X223916875Y-61595000D03*
D16*
X227866875Y-62475000D03*
D17*
X217146875Y-66675000D03*
X228146875Y-66675000D03*
D18*
X222646875Y-72575000D03*
X217646875Y-70475000D03*
D19*
X217566875Y-66675000D03*
X227726875Y-66675000D03*
D20*
X225146875Y-70675000D03*
D21*
X222646875Y-66675000D03*
D20*
X225801880Y-69945004D03*
D22*
X226456875Y-69215000D02*
X225146885Y-70675008D01*
D20*
X220106875Y-71755000D03*
X220127104Y-71465016D03*
D22*
X220146875Y-71175000D02*
X220107333Y-71755032D01*
D14*
X192801875Y-42545000D03*
D15*
X195341875Y-42545000D03*
D16*
X199291875Y-43425000D03*
D17*
X188571875Y-47625000D03*
X199571875Y-47625000D03*
D18*
X194071875Y-53525000D03*
X189071875Y-51425000D03*
D19*
X188991875Y-47625000D03*
X199151875Y-47625000D03*
D20*
X196571875Y-51625000D03*
D21*
X194071875Y-47625000D03*
D20*
X197226880Y-50895004D03*
D22*
X197881875Y-50165000D02*
X196571885Y-51625008D01*
D20*
X191531875Y-52705000D03*
X191552104Y-52415016D03*
D22*
X191571875Y-52125000D02*
X191532333Y-52705032D01*
D14*
X192801875Y-80645000D03*
D15*
X195341875Y-80645000D03*
D16*
X199291875Y-81525000D03*
D17*
X188571875Y-85725000D03*
X199571875Y-85725000D03*
D18*
X194071875Y-91625000D03*
X189071875Y-89525000D03*
D19*
X188991875Y-85725000D03*
X199151875Y-85725000D03*
D20*
X196571875Y-89725000D03*
D21*
X194071875Y-85725000D03*
D20*
X197226880Y-88995004D03*
D22*
X197881875Y-88265000D02*
X196571885Y-89725008D01*
D20*
X191531875Y-90805000D03*
X191552104Y-90515016D03*
D22*
X191571875Y-90225000D02*
X191532333Y-90805032D01*
D14*
X183276875Y-61595000D03*
D15*
X185816875Y-61595000D03*
D16*
X189766875Y-62475000D03*
D17*
X179046875Y-66675000D03*
X190046875Y-66675000D03*
D18*
X184546875Y-72575000D03*
X179546875Y-70475000D03*
D19*
X179466875Y-66675000D03*
X189626875Y-66675000D03*
D20*
X187046875Y-70675000D03*
D21*
X184546875Y-66675000D03*
D20*
X187701880Y-69945004D03*
D22*
X188356875Y-69215000D02*
X187046885Y-70675008D01*
D20*
X182006875Y-71755000D03*
X182027104Y-71465016D03*
D22*
X182046875Y-71175000D02*
X182007333Y-71755032D01*
D14*
X173751875Y-42545000D03*
D15*
X176291875Y-42545000D03*
D16*
X180241875Y-43425000D03*
D17*
X169521875Y-47625000D03*
X180521875Y-47625000D03*
D18*
X175021875Y-53525000D03*
X170021875Y-51425000D03*
D19*
X169941875Y-47625000D03*
X180101875Y-47625000D03*
D20*
X177521875Y-51625000D03*
D21*
X175021875Y-47625000D03*
D20*
X178176880Y-50895004D03*
D22*
X178831875Y-50165000D02*
X177521885Y-51625008D01*
D20*
X172481875Y-52705000D03*
X172502104Y-52415016D03*
D22*
X172521875Y-52125000D02*
X172482333Y-52705032D01*
D26*
X256880000Y-78460000D03*
X254340000Y-78460000D03*
X251800000Y-78460000D03*
X249260000Y-78460000D03*
X246720000Y-78460000D03*
X244180000Y-78460000D03*
X241640000Y-78460000D03*
X239100000Y-78460000D03*
X236560000Y-78460000D03*
X234020000Y-78460000D03*
X231480000Y-78460000D03*
X228940000Y-93700000D03*
X231480000Y-93700000D03*
X234020000Y-93700000D03*
X236560000Y-93700000D03*
X239100000Y-93700000D03*
X241640000Y-93700000D03*
X244180000Y-93700000D03*
X246720000Y-93700000D03*
X249260000Y-93700000D03*
X251800000Y-93700000D03*
X254340000Y-93700000D03*
X228940000Y-78460000D03*
X256880000Y-93700000D03*
X259420000Y-93700000D03*
X259420000Y-78460000D03*
X234020000Y-81000000D03*
X234020000Y-83540000D03*
X234020000Y-86080000D03*
D27*
X158490000Y-26310000D03*
D16*
X156190000Y-21710000D03*
X156190000Y-28710000D03*
D27*
X158490000Y-23310000D03*
X158490000Y-30310000D03*
X153890000Y-31410000D03*
D14*
X168989375Y-23495000D03*
D15*
X171529375Y-23495000D03*
D16*
X175479375Y-24375000D03*
D17*
X164759375Y-28575000D03*
X175759375Y-28575000D03*
D18*
X170259375Y-34475000D03*
X165259375Y-32375000D03*
D19*
X165179375Y-28575000D03*
X175339375Y-28575000D03*
D20*
X172759375Y-32575000D03*
D21*
X170259375Y-28575000D03*
D20*
X173414380Y-31845004D03*
D22*
X174069375Y-31115000D02*
X172759385Y-32575008D01*
D20*
X167719375Y-33655000D03*
X167739604Y-33365016D03*
D22*
X167759375Y-33075000D02*
X167719833Y-33655032D01*
D14*
X173751875Y-80645000D03*
D15*
X176291875Y-80645000D03*
D16*
X180241875Y-81525000D03*
D17*
X169521875Y-85725000D03*
X180521875Y-85725000D03*
D18*
X175021875Y-91625000D03*
X170021875Y-89525000D03*
D19*
X169941875Y-85725000D03*
X180101875Y-85725000D03*
D20*
X177521875Y-89725000D03*
D21*
X175021875Y-85725000D03*
D20*
X178176880Y-88995004D03*
D22*
X178831875Y-88265000D02*
X177521885Y-89725008D01*
D20*
X172481875Y-90805000D03*
X172502104Y-90515016D03*
D22*
X172521875Y-90225000D02*
X172482333Y-90805032D01*
D28*
X223520000Y-93220000D03*
X223520000Y-90720000D03*
X223520000Y-88220000D03*
X226720000Y-93220000D03*
X226720000Y-90720000D03*
D29*
X226720000Y-88220000D03*
D14*
X211851875Y-80645000D03*
D15*
X214391875Y-80645000D03*
D16*
X218341875Y-81525000D03*
D17*
X207621875Y-85725000D03*
X218621875Y-85725000D03*
D18*
X213121875Y-91625000D03*
X208121875Y-89525000D03*
D19*
X208041875Y-85725000D03*
X218201875Y-85725000D03*
D20*
X215621875Y-89725000D03*
D21*
X213121875Y-85725000D03*
D20*
X216276880Y-88995004D03*
D22*
X216931875Y-88265000D02*
X215621885Y-89725008D01*
D20*
X210581875Y-90805000D03*
X210602104Y-90515016D03*
D22*
X210621875Y-90225000D02*
X210582333Y-90805032D01*
D14*
X297576875Y-61595000D03*
D15*
X300116875Y-61595000D03*
D16*
X304066875Y-62475000D03*
D17*
X293346875Y-66675000D03*
X304346875Y-66675000D03*
D18*
X298846875Y-72575000D03*
X293846875Y-70475000D03*
D19*
X293766875Y-66675000D03*
X303926875Y-66675000D03*
D20*
X301346875Y-70675000D03*
D21*
X298846875Y-66675000D03*
D20*
X302001880Y-69945004D03*
D22*
X302656875Y-69215000D02*
X301346885Y-70675008D01*
D20*
X296306875Y-71755000D03*
X296327104Y-71465016D03*
D22*
X296346875Y-71175000D02*
X296307333Y-71755032D01*
D14*
X278526875Y-61595000D03*
D15*
X281066875Y-61595000D03*
D16*
X285016875Y-62475000D03*
D17*
X274296875Y-66675000D03*
X285296875Y-66675000D03*
D18*
X279796875Y-72575000D03*
X274796875Y-70475000D03*
D19*
X274716875Y-66675000D03*
X284876875Y-66675000D03*
D20*
X282296875Y-70675000D03*
D21*
X279796875Y-66675000D03*
D20*
X282951880Y-69945004D03*
D22*
X283606875Y-69215000D02*
X282296885Y-70675008D01*
D20*
X277256875Y-71755000D03*
X277277104Y-71465016D03*
D22*
X277296875Y-71175000D02*
X277257333Y-71755032D01*
M02*
