G04 #@! TF.GenerationSoftware,KiCad,Pcbnew,(5.1.4)-1*
G04 #@! TF.CreationDate,2021-01-05T09:43:52-08:00*
G04 #@! TF.ProjectId,andante-classic,616e6461-6e74-4652-9d63-6c6173736963,rev?*
G04 #@! TF.SameCoordinates,Original*
G04 #@! TF.FileFunction,Copper,L2,Bot*
G04 #@! TF.FilePolarity,Positive*
%FSLAX46Y46*%
G04 Gerber Fmt 4.6, Leading zero omitted, Abs format (unit mm)*
G04 Created by KiCad (PCBNEW (5.1.4)-1) date 2021-01-05 09:43:52*
%MOMM*%
%LPD*%
G04 APERTURE LIST*
%ADD10R,1.905000X1.905000*%
%ADD11C,1.905000*%
%ADD12C,2.000000*%
%ADD13C,2.250000*%
%ADD14C,2.250000*%
%ADD15R,1.200000X1.200000*%
%ADD16O,1.750000X1.200000*%
%ADD17C,0.100000*%
%ADD18C,1.200000*%
%ADD19R,1.550000X1.300000*%
%ADD20C,1.752600*%
%ADD21O,1.600000X2.000000*%
%ADD22C,1.600000*%
%ADD23R,1.600000X1.600000*%
%ADD24C,0.800000*%
%ADD25C,0.250000*%
G04 APERTURE END LIST*
D10*
X240426875Y-61595000D03*
D11*
X242966875Y-61595000D03*
D12*
X241696875Y-72575000D03*
X236696875Y-70475000D03*
D13*
X244196875Y-70675000D03*
X244851880Y-69945004D03*
D14*
X245506875Y-69215000D02*
X244196885Y-70675008D01*
D13*
X239156875Y-71755000D03*
X239177104Y-71465016D03*
D14*
X239196875Y-71175000D02*
X239157333Y-71755032D01*
D10*
X259476875Y-61595000D03*
D11*
X262016875Y-61595000D03*
D12*
X260746875Y-72575000D03*
X255746875Y-70475000D03*
D13*
X263246875Y-70675000D03*
X263901880Y-69945004D03*
D14*
X264556875Y-69215000D02*
X263246885Y-70675008D01*
D13*
X258206875Y-71755000D03*
X258227104Y-71465016D03*
D14*
X258246875Y-71175000D02*
X258207333Y-71755032D01*
D15*
X202406250Y-21221875D03*
X202406250Y-24021875D03*
X221456250Y-21431250D03*
X221456250Y-24231250D03*
X183356250Y-21221875D03*
X183356250Y-24021875D03*
D10*
X202326875Y-61595000D03*
D11*
X204866875Y-61595000D03*
D12*
X203596875Y-72575000D03*
X198596875Y-70475000D03*
D13*
X206096875Y-70675000D03*
X206751880Y-69945004D03*
D14*
X207406875Y-69215000D02*
X206096885Y-70675008D01*
D13*
X201056875Y-71755000D03*
X201077104Y-71465016D03*
D14*
X201096875Y-71175000D02*
X201057333Y-71755032D01*
D10*
X207089375Y-23495000D03*
D11*
X209629375Y-23495000D03*
D12*
X208359375Y-34475000D03*
X203359375Y-32375000D03*
D13*
X210859375Y-32575000D03*
X211514380Y-31845004D03*
D14*
X212169375Y-31115000D02*
X210859385Y-32575008D01*
D13*
X205819375Y-33655000D03*
X205839604Y-33365016D03*
D14*
X205859375Y-33075000D02*
X205819833Y-33655032D01*
D10*
X188039375Y-23495000D03*
D11*
X190579375Y-23495000D03*
D12*
X189309375Y-34475000D03*
X184309375Y-32375000D03*
D13*
X191809375Y-32575000D03*
X192464380Y-31845004D03*
D14*
X193119375Y-31115000D02*
X191809385Y-32575008D01*
D13*
X186769375Y-33655000D03*
X186789604Y-33365016D03*
D14*
X186809375Y-33075000D02*
X186769833Y-33655032D01*
D10*
X288051875Y-42545000D03*
D11*
X290591875Y-42545000D03*
D12*
X289321875Y-53525000D03*
X284321875Y-51425000D03*
D13*
X291821875Y-51625000D03*
X292476880Y-50895004D03*
D14*
X293131875Y-50165000D02*
X291821885Y-51625008D01*
D13*
X286781875Y-52705000D03*
X286802104Y-52415016D03*
D14*
X286821875Y-52125000D02*
X286782333Y-52705032D01*
D10*
X230901875Y-42545000D03*
D11*
X233441875Y-42545000D03*
D12*
X232171875Y-53525000D03*
X227171875Y-51425000D03*
D13*
X234671875Y-51625000D03*
X235326880Y-50895004D03*
D14*
X235981875Y-50165000D02*
X234671885Y-51625008D01*
D13*
X229631875Y-52705000D03*
X229652104Y-52415016D03*
D14*
X229671875Y-52125000D02*
X229632333Y-52705032D01*
D10*
X269001875Y-42545000D03*
D11*
X271541875Y-42545000D03*
D12*
X270271875Y-53525000D03*
X265271875Y-51425000D03*
D13*
X272771875Y-51625000D03*
X273426880Y-50895004D03*
D14*
X274081875Y-50165000D02*
X272771885Y-51625008D01*
D13*
X267731875Y-52705000D03*
X267752104Y-52415016D03*
D14*
X267771875Y-52125000D02*
X267732333Y-52705032D01*
D10*
X211851875Y-42545000D03*
D11*
X214391875Y-42545000D03*
D12*
X213121875Y-53525000D03*
X208121875Y-51425000D03*
D13*
X215621875Y-51625000D03*
X216276880Y-50895004D03*
D14*
X216931875Y-50165000D02*
X215621885Y-51625008D01*
D13*
X210581875Y-52705000D03*
X210602104Y-52415016D03*
D14*
X210621875Y-52125000D02*
X210582333Y-52705032D01*
D16*
X223610000Y-83760000D03*
D17*
G36*
X224259505Y-81161204D02*
G01*
X224283773Y-81164804D01*
X224307572Y-81170765D01*
X224330671Y-81179030D01*
X224352850Y-81189520D01*
X224373893Y-81202132D01*
X224393599Y-81216747D01*
X224411777Y-81233223D01*
X224428253Y-81251401D01*
X224442868Y-81271107D01*
X224455480Y-81292150D01*
X224465970Y-81314329D01*
X224474235Y-81337428D01*
X224480196Y-81361227D01*
X224483796Y-81385495D01*
X224485000Y-81409999D01*
X224485000Y-82110001D01*
X224483796Y-82134505D01*
X224480196Y-82158773D01*
X224474235Y-82182572D01*
X224465970Y-82205671D01*
X224455480Y-82227850D01*
X224442868Y-82248893D01*
X224428253Y-82268599D01*
X224411777Y-82286777D01*
X224393599Y-82303253D01*
X224373893Y-82317868D01*
X224352850Y-82330480D01*
X224330671Y-82340970D01*
X224307572Y-82349235D01*
X224283773Y-82355196D01*
X224259505Y-82358796D01*
X224235001Y-82360000D01*
X222984999Y-82360000D01*
X222960495Y-82358796D01*
X222936227Y-82355196D01*
X222912428Y-82349235D01*
X222889329Y-82340970D01*
X222867150Y-82330480D01*
X222846107Y-82317868D01*
X222826401Y-82303253D01*
X222808223Y-82286777D01*
X222791747Y-82268599D01*
X222777132Y-82248893D01*
X222764520Y-82227850D01*
X222754030Y-82205671D01*
X222745765Y-82182572D01*
X222739804Y-82158773D01*
X222736204Y-82134505D01*
X222735000Y-82110001D01*
X222735000Y-81409999D01*
X222736204Y-81385495D01*
X222739804Y-81361227D01*
X222745765Y-81337428D01*
X222754030Y-81314329D01*
X222764520Y-81292150D01*
X222777132Y-81271107D01*
X222791747Y-81251401D01*
X222808223Y-81233223D01*
X222826401Y-81216747D01*
X222846107Y-81202132D01*
X222867150Y-81189520D01*
X222889329Y-81179030D01*
X222912428Y-81170765D01*
X222936227Y-81164804D01*
X222960495Y-81161204D01*
X222984999Y-81160000D01*
X224235001Y-81160000D01*
X224259505Y-81161204D01*
X224259505Y-81161204D01*
G37*
D18*
X223610000Y-81760000D03*
D15*
X191780000Y-59380000D03*
X191780000Y-62180000D03*
X182140000Y-40080000D03*
X182140000Y-42880000D03*
X164306250Y-21221875D03*
X164306250Y-24021875D03*
D10*
X283289375Y-23495000D03*
D11*
X285829375Y-23495000D03*
D12*
X284559375Y-34475000D03*
X279559375Y-32375000D03*
D13*
X287059375Y-32575000D03*
X287714380Y-31845004D03*
D14*
X288369375Y-31115000D02*
X287059385Y-32575008D01*
D13*
X282019375Y-33655000D03*
X282039604Y-33365016D03*
D14*
X282059375Y-33075000D02*
X282019833Y-33655032D01*
D10*
X264239375Y-23495000D03*
D11*
X266779375Y-23495000D03*
D12*
X265509375Y-34475000D03*
X260509375Y-32375000D03*
D13*
X268009375Y-32575000D03*
X268664380Y-31845004D03*
D14*
X269319375Y-31115000D02*
X268009385Y-32575008D01*
D13*
X262969375Y-33655000D03*
X262989604Y-33365016D03*
D14*
X263009375Y-33075000D02*
X262969833Y-33655032D01*
D10*
X245189375Y-23495000D03*
D11*
X247729375Y-23495000D03*
D12*
X246459375Y-34475000D03*
X241459375Y-32375000D03*
D13*
X248959375Y-32575000D03*
X249614380Y-31845004D03*
D14*
X250269375Y-31115000D02*
X248959385Y-32575008D01*
D13*
X243919375Y-33655000D03*
X243939604Y-33365016D03*
D14*
X243959375Y-33075000D02*
X243919833Y-33655032D01*
D10*
X226139375Y-23495000D03*
D11*
X228679375Y-23495000D03*
D12*
X227409375Y-34475000D03*
X222409375Y-32375000D03*
D13*
X229909375Y-32575000D03*
X230564380Y-31845004D03*
D14*
X231219375Y-31115000D02*
X229909385Y-32575008D01*
D13*
X224869375Y-33655000D03*
X224889604Y-33365016D03*
D14*
X224909375Y-33075000D02*
X224869833Y-33655032D01*
D10*
X249951875Y-42545000D03*
D11*
X252491875Y-42545000D03*
D12*
X251221875Y-53525000D03*
X246221875Y-51425000D03*
D13*
X253721875Y-51625000D03*
X254376880Y-50895004D03*
D14*
X255031875Y-50165000D02*
X253721885Y-51625008D01*
D13*
X248681875Y-52705000D03*
X248702104Y-52415016D03*
D14*
X248721875Y-52125000D02*
X248682333Y-52705032D01*
D10*
X221376875Y-61595000D03*
D11*
X223916875Y-61595000D03*
D12*
X222646875Y-72575000D03*
X217646875Y-70475000D03*
D13*
X225146875Y-70675000D03*
X225801880Y-69945004D03*
D14*
X226456875Y-69215000D02*
X225146885Y-70675008D01*
D13*
X220106875Y-71755000D03*
X220127104Y-71465016D03*
D14*
X220146875Y-71175000D02*
X220107333Y-71755032D01*
D10*
X192801875Y-42545000D03*
D11*
X195341875Y-42545000D03*
D12*
X194071875Y-53525000D03*
X189071875Y-51425000D03*
D13*
X196571875Y-51625000D03*
X197226880Y-50895004D03*
D14*
X197881875Y-50165000D02*
X196571885Y-51625008D01*
D13*
X191531875Y-52705000D03*
X191552104Y-52415016D03*
D14*
X191571875Y-52125000D02*
X191532333Y-52705032D01*
D15*
X226218750Y-40271875D03*
X226218750Y-43071875D03*
X188118750Y-40062500D03*
X188118750Y-42862500D03*
X240506250Y-21221875D03*
X240506250Y-24021875D03*
X278606250Y-21221875D03*
X278606250Y-24021875D03*
X273843750Y-59112500D03*
X273843750Y-61912500D03*
X254793750Y-59309000D03*
X254793750Y-62109000D03*
X259556250Y-21221875D03*
X259556250Y-24021875D03*
X207168750Y-78371875D03*
X207168750Y-81171875D03*
X181910000Y-78371875D03*
X181910000Y-81171875D03*
X292893750Y-59112500D03*
X292893750Y-61912500D03*
X235743750Y-59321875D03*
X235743750Y-62121875D03*
X216693750Y-59321875D03*
X216693750Y-62121875D03*
X283368750Y-40271875D03*
X283368750Y-43071875D03*
X245268750Y-40271875D03*
X245268750Y-43071875D03*
X207168750Y-40271875D03*
X207168750Y-43071875D03*
X197643750Y-59321875D03*
X197643750Y-62121875D03*
X188118750Y-78371875D03*
X188118750Y-81171875D03*
X264318750Y-40271875D03*
X264318750Y-43071875D03*
D19*
X259055000Y-34630000D03*
X259055000Y-39130000D03*
X251105000Y-39130000D03*
X251105000Y-34630000D03*
D10*
X192801875Y-80645000D03*
D11*
X195341875Y-80645000D03*
D12*
X194071875Y-91625000D03*
X189071875Y-89525000D03*
D13*
X196571875Y-89725000D03*
X197226880Y-88995004D03*
D14*
X197881875Y-88265000D02*
X196571885Y-89725008D01*
D13*
X191531875Y-90805000D03*
X191552104Y-90515016D03*
D14*
X191571875Y-90225000D02*
X191532333Y-90805032D01*
D10*
X183276875Y-61595000D03*
D11*
X185816875Y-61595000D03*
D12*
X184546875Y-72575000D03*
X179546875Y-70475000D03*
D13*
X187046875Y-70675000D03*
X187701880Y-69945004D03*
D14*
X188356875Y-69215000D02*
X187046885Y-70675008D01*
D13*
X182006875Y-71755000D03*
X182027104Y-71465016D03*
D14*
X182046875Y-71175000D02*
X182007333Y-71755032D01*
D10*
X173751875Y-42545000D03*
D11*
X176291875Y-42545000D03*
D12*
X175021875Y-53525000D03*
X170021875Y-51425000D03*
D13*
X177521875Y-51625000D03*
X178176880Y-50895004D03*
D14*
X178831875Y-50165000D02*
X177521885Y-51625008D01*
D13*
X172481875Y-52705000D03*
X172502104Y-52415016D03*
D14*
X172521875Y-52125000D02*
X172482333Y-52705032D01*
D20*
X256880000Y-78460000D03*
X254340000Y-78460000D03*
X251800000Y-78460000D03*
X249260000Y-78460000D03*
X246720000Y-78460000D03*
X244180000Y-78460000D03*
X241640000Y-78460000D03*
X239100000Y-78460000D03*
X236560000Y-78460000D03*
X234020000Y-78460000D03*
X231480000Y-78460000D03*
X228940000Y-93700000D03*
X231480000Y-93700000D03*
X234020000Y-93700000D03*
X236560000Y-93700000D03*
X239100000Y-93700000D03*
X241640000Y-93700000D03*
X244180000Y-93700000D03*
X246720000Y-93700000D03*
X249260000Y-93700000D03*
X251800000Y-93700000D03*
X254340000Y-93700000D03*
X228940000Y-78460000D03*
X256880000Y-93700000D03*
X259420000Y-93700000D03*
X259420000Y-78460000D03*
X234020000Y-81000000D03*
X234020000Y-83540000D03*
X234020000Y-86080000D03*
D21*
X158490000Y-26310000D03*
X158490000Y-23310000D03*
X158490000Y-30310000D03*
X153890000Y-31410000D03*
D10*
X168989375Y-23495000D03*
D11*
X171529375Y-23495000D03*
D12*
X170259375Y-34475000D03*
X165259375Y-32375000D03*
D13*
X172759375Y-32575000D03*
X173414380Y-31845004D03*
D14*
X174069375Y-31115000D02*
X172759385Y-32575008D01*
D13*
X167719375Y-33655000D03*
X167739604Y-33365016D03*
D14*
X167759375Y-33075000D02*
X167719833Y-33655032D01*
D10*
X173751875Y-80645000D03*
D11*
X176291875Y-80645000D03*
D12*
X175021875Y-91625000D03*
X170021875Y-89525000D03*
D13*
X177521875Y-89725000D03*
X178176880Y-88995004D03*
D14*
X178831875Y-88265000D02*
X177521885Y-89725008D01*
D13*
X172481875Y-90805000D03*
X172502104Y-90515016D03*
D14*
X172521875Y-90225000D02*
X172482333Y-90805032D01*
D22*
X223520000Y-93220000D03*
X223520000Y-90720000D03*
X223520000Y-88220000D03*
X226720000Y-93220000D03*
X226720000Y-90720000D03*
D23*
X226720000Y-88220000D03*
D10*
X211851875Y-80645000D03*
D11*
X214391875Y-80645000D03*
D12*
X213121875Y-91625000D03*
X208121875Y-89525000D03*
D13*
X215621875Y-89725000D03*
X216276880Y-88995004D03*
D14*
X216931875Y-88265000D02*
X215621885Y-89725008D01*
D13*
X210581875Y-90805000D03*
X210602104Y-90515016D03*
D14*
X210621875Y-90225000D02*
X210582333Y-90805032D01*
D10*
X297576875Y-61595000D03*
D11*
X300116875Y-61595000D03*
D12*
X298846875Y-72575000D03*
X293846875Y-70475000D03*
D13*
X301346875Y-70675000D03*
X302001880Y-69945004D03*
D14*
X302656875Y-69215000D02*
X301346885Y-70675008D01*
D13*
X296306875Y-71755000D03*
X296327104Y-71465016D03*
D14*
X296346875Y-71175000D02*
X296307333Y-71755032D01*
D10*
X278526875Y-61595000D03*
D11*
X281066875Y-61595000D03*
D12*
X279796875Y-72575000D03*
X274796875Y-70475000D03*
D13*
X282296875Y-70675000D03*
X282951880Y-69945004D03*
D14*
X283606875Y-69215000D02*
X282296885Y-70675008D01*
D13*
X277256875Y-71755000D03*
X277277104Y-71465016D03*
D14*
X277296875Y-71175000D02*
X277257333Y-71755032D01*
D24*
X232500000Y-90990000D03*
X253790000Y-38060000D03*
X264160000Y-60210000D03*
X261530000Y-39710000D03*
X265600000Y-60240000D03*
D25*
X170259375Y-34475000D02*
X172159375Y-32575000D01*
X172159375Y-32575000D02*
X172759375Y-32575000D01*
X170259375Y-31878998D02*
X164306250Y-25925873D01*
X164306250Y-25925873D02*
X164306250Y-24871875D01*
X170259375Y-34475000D02*
X170259375Y-31878998D01*
X164306250Y-24871875D02*
X164306250Y-24021875D01*
X190746096Y-60767508D02*
X183065001Y-53086413D01*
X259346875Y-21431250D02*
X259556250Y-21221875D01*
X276683830Y-24609514D02*
X277681249Y-23612095D01*
X221456250Y-21431250D02*
X202615625Y-21431250D01*
X202406250Y-21221875D02*
X164306250Y-21221875D01*
X182515001Y-41005001D02*
X181279999Y-41005001D01*
X259556250Y-21221875D02*
X272511904Y-21221875D01*
X272511904Y-21221875D02*
X275899543Y-24609514D01*
X275899543Y-24609514D02*
X276683830Y-24609514D01*
X211513191Y-67875001D02*
X208100874Y-67875001D01*
X183065001Y-41555001D02*
X182515001Y-41005001D01*
X240296875Y-21431250D02*
X240506250Y-21221875D01*
X181214999Y-40940001D02*
X181214999Y-24213126D01*
X278606250Y-22071875D02*
X278606250Y-21221875D01*
X221456250Y-21431250D02*
X240296875Y-21431250D01*
X198074386Y-60767509D02*
X190746096Y-60767508D01*
X240506250Y-21221875D02*
X259556250Y-21221875D01*
X277681249Y-22996876D02*
X278606250Y-22071875D01*
X202615625Y-21431250D02*
X202406250Y-21221875D01*
X181214999Y-24213126D02*
X183356250Y-22071875D01*
X183356250Y-22071875D02*
X183356250Y-21221875D01*
X181279999Y-41005001D02*
X181214999Y-40940001D01*
X183065001Y-53086413D02*
X183065001Y-41555001D01*
X203548384Y-63322511D02*
X200629388Y-63322511D01*
X234020000Y-90381810D02*
X211513191Y-67875001D01*
X277681249Y-23612095D02*
X277681249Y-22996876D01*
X208100874Y-67875001D02*
X203548384Y-63322511D01*
X200629388Y-63322511D02*
X198074386Y-60767509D01*
X234020000Y-93700000D02*
X234020000Y-90381810D01*
X189309375Y-34475000D02*
X191209375Y-32575000D01*
X191209375Y-32575000D02*
X191809375Y-32575000D01*
X189309375Y-34475000D02*
X189309375Y-31878998D01*
X189309375Y-31878998D02*
X183356250Y-25925873D01*
X183356250Y-25925873D02*
X183356250Y-24871875D01*
X183356250Y-24871875D02*
X183356250Y-24021875D01*
X208359375Y-34475000D02*
X208359375Y-31878998D01*
X202406250Y-25925873D02*
X202406250Y-24871875D01*
X208359375Y-31878998D02*
X202406250Y-25925873D01*
X202406250Y-24871875D02*
X202406250Y-24021875D01*
X208359375Y-34475000D02*
X210259375Y-32575000D01*
X210259375Y-32575000D02*
X210859375Y-32575000D01*
X221456250Y-25925873D02*
X221456250Y-25081250D01*
X230769375Y-31115000D02*
X231219375Y-31115000D01*
X227409375Y-34475000D02*
X227409375Y-31878998D01*
X227409375Y-31878998D02*
X221456250Y-25925873D01*
X227409375Y-34475000D02*
X230769375Y-31115000D01*
X221456250Y-25081250D02*
X221456250Y-24231250D01*
X246459375Y-34475000D02*
X248359375Y-32575000D01*
X246459375Y-34475000D02*
X246459375Y-31878998D01*
X240506250Y-25925873D02*
X240506250Y-24871875D01*
X240506250Y-24871875D02*
X240506250Y-24021875D01*
X246459375Y-31878998D02*
X240506250Y-25925873D01*
X248359375Y-32575000D02*
X248959375Y-32575000D01*
X259556250Y-25925873D02*
X259556250Y-24871875D01*
X259556250Y-24871875D02*
X259556250Y-24021875D01*
X265509375Y-34475000D02*
X267409375Y-32575000D01*
X267409375Y-32575000D02*
X268009375Y-32575000D01*
X265509375Y-34475000D02*
X265509375Y-31878998D01*
X265509375Y-31878998D02*
X259556250Y-25925873D01*
X284559375Y-34475000D02*
X284559375Y-31878998D01*
X284559375Y-34475000D02*
X286459375Y-32575000D01*
X284559375Y-31878998D02*
X278606250Y-25925873D01*
X278606250Y-25925873D02*
X278606250Y-24871875D01*
X278606250Y-24871875D02*
X278606250Y-24021875D01*
X286459375Y-32575000D02*
X287059375Y-32575000D01*
X176921875Y-51625000D02*
X177521875Y-51625000D01*
X175021875Y-53525000D02*
X176921875Y-51625000D01*
X178831875Y-50165000D02*
X179720877Y-50165000D01*
X179720877Y-50165000D02*
X182140000Y-47745877D01*
X182140000Y-47745877D02*
X182140000Y-43730000D01*
X182140000Y-43730000D02*
X182140000Y-42880000D01*
X194071875Y-53525000D02*
X195971875Y-51625000D01*
X195971875Y-51625000D02*
X196571875Y-51625000D01*
X194071875Y-53525000D02*
X194071875Y-50928998D01*
X194071875Y-50928998D02*
X188118750Y-44975873D01*
X188118750Y-44975873D02*
X188118750Y-43712500D01*
X188118750Y-43712500D02*
X188118750Y-42862500D01*
X216481875Y-50165000D02*
X216931875Y-50165000D01*
X213121875Y-53525000D02*
X213121875Y-50928998D01*
X213121875Y-50928998D02*
X207168750Y-44975873D01*
X207168750Y-43921875D02*
X207168750Y-43071875D01*
X207168750Y-44975873D02*
X207168750Y-43921875D01*
X213121875Y-53525000D02*
X216481875Y-50165000D01*
X232171875Y-50928998D02*
X226218750Y-44975873D01*
X226218750Y-44975873D02*
X226218750Y-43921875D01*
X232171875Y-53525000D02*
X232171875Y-50928998D01*
X234071875Y-51625000D02*
X234671875Y-51625000D01*
X226218750Y-43921875D02*
X226218750Y-43071875D01*
X232171875Y-53525000D02*
X234071875Y-51625000D01*
X251221875Y-53525000D02*
X253121875Y-51625000D01*
X245268750Y-44975873D02*
X245268750Y-43921875D01*
X253121875Y-51625000D02*
X253721875Y-51625000D01*
X251221875Y-53525000D02*
X251221875Y-50928998D01*
X251221875Y-50928998D02*
X245268750Y-44975873D01*
X245268750Y-43921875D02*
X245268750Y-43071875D01*
X270271875Y-50928998D02*
X264318750Y-44975873D01*
X270271875Y-53525000D02*
X273631875Y-50165000D01*
X270271875Y-53525000D02*
X270271875Y-50928998D01*
X273631875Y-50165000D02*
X274081875Y-50165000D01*
X264318750Y-44975873D02*
X264318750Y-43921875D01*
X264318750Y-43921875D02*
X264318750Y-43071875D01*
X283368750Y-43921875D02*
X283368750Y-43071875D01*
X283368750Y-44975873D02*
X283368750Y-43921875D01*
X289321875Y-53525000D02*
X291221875Y-51625000D01*
X289321875Y-53525000D02*
X289321875Y-50928998D01*
X289321875Y-50928998D02*
X283368750Y-44975873D01*
X291221875Y-51625000D02*
X291821875Y-51625000D01*
X188356875Y-69215000D02*
X189245877Y-69215000D01*
X191800000Y-66660877D02*
X191800000Y-62810000D01*
X184546875Y-72575000D02*
X187906875Y-69215000D01*
X189245877Y-69215000D02*
X191800000Y-66660877D01*
X191800000Y-62810000D02*
X191800000Y-61960000D01*
X187906875Y-69215000D02*
X188356875Y-69215000D01*
X203596875Y-72575000D02*
X203596875Y-69978998D01*
X206956875Y-69215000D02*
X207406875Y-69215000D01*
X197643750Y-64025873D02*
X197643750Y-62971875D01*
X197643750Y-62971875D02*
X197643750Y-62121875D01*
X203596875Y-72575000D02*
X206956875Y-69215000D01*
X203596875Y-69978998D02*
X197643750Y-64025873D01*
X216693750Y-64025873D02*
X216693750Y-62971875D01*
X226006875Y-69215000D02*
X226456875Y-69215000D01*
X216693750Y-62971875D02*
X216693750Y-62121875D01*
X222646875Y-72575000D02*
X226006875Y-69215000D01*
X222646875Y-72575000D02*
X222646875Y-69978998D01*
X222646875Y-69978998D02*
X216693750Y-64025873D01*
X241696875Y-72575000D02*
X241696875Y-69978998D01*
X241696875Y-72575000D02*
X243596875Y-70675000D01*
X243596875Y-70675000D02*
X244196875Y-70675000D01*
X235743750Y-62971875D02*
X235743750Y-62121875D01*
X235743750Y-64025873D02*
X235743750Y-62971875D01*
X241696875Y-69978998D02*
X235743750Y-64025873D01*
X260746875Y-69978998D02*
X254793750Y-64025873D01*
X254793750Y-62959000D02*
X254793750Y-62109000D01*
X254793750Y-64025873D02*
X254793750Y-62959000D01*
X260746875Y-72575000D02*
X260746875Y-69978998D01*
X260746875Y-72575000D02*
X262646875Y-70675000D01*
X262646875Y-70675000D02*
X263246875Y-70675000D01*
X279796875Y-72575000D02*
X281696875Y-70675000D01*
X273843750Y-64025873D02*
X273843750Y-62762500D01*
X281696875Y-70675000D02*
X282296875Y-70675000D01*
X279796875Y-72575000D02*
X279796875Y-69978998D01*
X279796875Y-69978998D02*
X273843750Y-64025873D01*
X273843750Y-62762500D02*
X273843750Y-61912500D01*
X298846875Y-72575000D02*
X302206875Y-69215000D01*
X302206875Y-69215000D02*
X302656875Y-69215000D01*
X298846875Y-72575000D02*
X298846875Y-69978998D01*
X298846875Y-69978998D02*
X292893750Y-64025873D01*
X292893750Y-64025873D02*
X292893750Y-62762500D01*
X292893750Y-62762500D02*
X292893750Y-61912500D01*
X225270000Y-83760000D02*
X232500000Y-90990000D01*
X223610000Y-83760000D02*
X225270000Y-83760000D01*
X225670000Y-88220000D02*
X226720000Y-88220000D01*
X222409990Y-81985010D02*
X222409990Y-84959990D01*
X222409990Y-84959990D02*
X225670000Y-88220000D01*
X223610000Y-81760000D02*
X222635000Y-81760000D01*
X222635000Y-81760000D02*
X222409990Y-81985010D01*
X177340776Y-82919224D02*
X180881876Y-79378124D01*
X180881876Y-72879999D02*
X182006875Y-71755000D01*
X172521875Y-52125000D02*
X171821875Y-51425000D01*
X180666876Y-59486876D02*
X176030001Y-54850001D01*
X172474374Y-40000989D02*
X167759375Y-35285990D01*
X172521875Y-90225000D02*
X173953849Y-90225000D01*
X180666876Y-69354999D02*
X180666876Y-59486876D01*
X172521875Y-52125000D02*
X172474374Y-52077499D01*
X172474374Y-52077499D02*
X172474374Y-40000989D01*
X214612878Y-92094999D02*
X213757876Y-92950001D01*
X173035886Y-92950001D02*
X172521875Y-92435990D01*
X172521875Y-54335990D02*
X172521875Y-52125000D01*
X227334999Y-92094999D02*
X214612878Y-92094999D01*
X172521875Y-90225000D02*
X171821875Y-89525000D01*
X181346875Y-70475000D02*
X179546875Y-70475000D01*
X173035886Y-54850001D02*
X172521875Y-54335990D01*
X172521875Y-92435990D02*
X172521875Y-90225000D01*
X177340776Y-86838073D02*
X177340776Y-82919224D01*
X213757876Y-92950001D02*
X173035886Y-92950001D01*
X182046875Y-71175000D02*
X181346875Y-70475000D01*
X228940000Y-93700000D02*
X227334999Y-92094999D01*
X173953849Y-90225000D02*
X177340776Y-86838073D01*
X172521875Y-90225000D02*
X172521875Y-91086002D01*
X180881876Y-79378124D02*
X180881876Y-72879999D01*
X176030001Y-54850001D02*
X173035886Y-54850001D01*
X167719375Y-33115000D02*
X167759375Y-33075000D01*
X167759375Y-35285990D02*
X167759375Y-33075000D01*
X171821875Y-89525000D02*
X170021875Y-89525000D01*
X179546875Y-70475000D02*
X180666876Y-69354999D01*
X167059375Y-32375000D02*
X165259375Y-32375000D01*
X171821875Y-51425000D02*
X170021875Y-51425000D01*
X167759375Y-33075000D02*
X167059375Y-32375000D01*
X201096875Y-71175000D02*
X200396875Y-70475000D01*
X191571875Y-90225000D02*
X190871875Y-89525000D01*
X190871875Y-89525000D02*
X189071875Y-89525000D01*
X186809375Y-33075000D02*
X186109375Y-32375000D01*
X200396875Y-70475000D02*
X198596875Y-70475000D01*
X191571875Y-52125000D02*
X190871875Y-51425000D01*
X190871875Y-51425000D02*
X189071875Y-51425000D01*
X186109375Y-32375000D02*
X184309375Y-32375000D01*
X209921875Y-89525000D02*
X208121875Y-89525000D01*
X209921875Y-51425000D02*
X208121875Y-51425000D01*
X220146875Y-71175000D02*
X219446875Y-70475000D01*
X205859375Y-33075000D02*
X205159375Y-32375000D01*
X219446875Y-70475000D02*
X217646875Y-70475000D01*
X205159375Y-32375000D02*
X203359375Y-32375000D01*
X210621875Y-52125000D02*
X209921875Y-51425000D01*
X210621875Y-90225000D02*
X209921875Y-89525000D01*
X239196875Y-71175000D02*
X238496875Y-70475000D01*
X224909375Y-33075000D02*
X224209375Y-32375000D01*
X238496875Y-70475000D02*
X236696875Y-70475000D01*
X229671875Y-52125000D02*
X228971875Y-51425000D01*
X228971875Y-51425000D02*
X227171875Y-51425000D01*
X224209375Y-32375000D02*
X222409375Y-32375000D01*
X243259375Y-32375000D02*
X241459375Y-32375000D01*
X248721875Y-52125000D02*
X248021875Y-51425000D01*
X258246875Y-71175000D02*
X257546875Y-70475000D01*
X243959375Y-33075000D02*
X243259375Y-32375000D01*
X248021875Y-51425000D02*
X246221875Y-51425000D01*
X257546875Y-70475000D02*
X255746875Y-70475000D01*
X277296875Y-71175000D02*
X276596875Y-70475000D01*
X276596875Y-70475000D02*
X274796875Y-70475000D01*
X267771875Y-52125000D02*
X267071875Y-51425000D01*
X267071875Y-51425000D02*
X265271875Y-51425000D01*
X262309375Y-32375000D02*
X260509375Y-32375000D01*
X263009375Y-33075000D02*
X262309375Y-32375000D01*
X179720877Y-88265000D02*
X181910000Y-86075877D01*
X178831875Y-88265000D02*
X179720877Y-88265000D01*
X178381875Y-88265000D02*
X178831875Y-88265000D01*
X181910000Y-86075877D02*
X181910000Y-82021875D01*
X175021875Y-91625000D02*
X178381875Y-88265000D01*
X181910000Y-82021875D02*
X181910000Y-81171875D01*
X194071875Y-91625000D02*
X193071876Y-90625001D01*
X193071876Y-90625001D02*
X193071876Y-88028999D01*
X188118750Y-82021875D02*
X188118750Y-81171875D01*
X195971875Y-89725000D02*
X196571875Y-89725000D01*
X193071876Y-88028999D02*
X188118750Y-83075873D01*
X188118750Y-83075873D02*
X188118750Y-82021875D01*
X194071875Y-91625000D02*
X195971875Y-89725000D01*
X215021875Y-89725000D02*
X215621875Y-89725000D01*
X213121875Y-91625000D02*
X213121875Y-89028998D01*
X213121875Y-89028998D02*
X207168750Y-83075873D01*
X207168750Y-83075873D02*
X207168750Y-82021875D01*
X207168750Y-82021875D02*
X207168750Y-81171875D01*
X213121875Y-91625000D02*
X215021875Y-89725000D01*
X264318750Y-40271875D02*
X263468750Y-40271875D01*
X283368750Y-41121875D02*
X283368750Y-40271875D01*
X282443749Y-42046876D02*
X283368750Y-41121875D01*
X263468750Y-40271875D02*
X263235624Y-40505001D01*
X277274403Y-40271875D02*
X280813013Y-43810485D01*
X245268750Y-40271875D02*
X188328125Y-40271875D01*
X281599515Y-43810485D02*
X282443749Y-42966251D01*
X236560000Y-93700000D02*
X236560000Y-92285400D01*
X187193749Y-41837501D02*
X187193749Y-56578751D01*
X201114374Y-62872501D02*
X198559372Y-60317499D01*
X182140000Y-40080000D02*
X188101250Y-40080000D01*
X188101250Y-40080000D02*
X188118750Y-40062500D01*
X263235624Y-40505001D02*
X246351876Y-40505001D01*
X190932497Y-60317499D02*
X198559372Y-60317499D01*
X187193749Y-56578751D02*
X190932497Y-60317499D01*
X188118750Y-40912500D02*
X187193749Y-41837501D01*
X188118750Y-40062500D02*
X188118750Y-40912500D01*
X207147101Y-62872501D02*
X201114374Y-62872501D01*
X246118750Y-40271875D02*
X245268750Y-40271875D01*
X282443749Y-42966251D02*
X282443749Y-42046876D01*
X264318750Y-40271875D02*
X277274403Y-40271875D01*
X236560000Y-92285400D02*
X207147101Y-62872501D01*
X280813013Y-43810485D02*
X281599515Y-43810485D01*
X187881250Y-40300000D02*
X188118750Y-40062500D01*
X188328125Y-40271875D02*
X188118750Y-40062500D01*
X246351876Y-40505001D02*
X246118750Y-40271875D01*
X286590028Y-59112500D02*
X290187528Y-62710000D01*
X239100000Y-84164676D02*
X234596625Y-79661301D01*
X197643750Y-59321875D02*
X273634375Y-59321875D01*
X292893750Y-59962500D02*
X292893750Y-59112500D01*
X232818699Y-79036625D02*
X232818699Y-63096926D01*
X273634375Y-59321875D02*
X273843750Y-59112500D01*
X197434375Y-59531250D02*
X197643750Y-59321875D01*
X191780000Y-59380000D02*
X197585625Y-59380000D01*
X233443375Y-79661301D02*
X232818699Y-79036625D01*
X235743750Y-60171875D02*
X235743750Y-59321875D01*
X290187528Y-62710000D02*
X290962469Y-62710000D01*
X273843750Y-59112500D02*
X286590028Y-59112500D01*
X290962469Y-62710000D02*
X291500009Y-62172460D01*
X291500009Y-61356241D02*
X292893750Y-59962500D01*
X291500009Y-62172460D02*
X291500009Y-61356241D01*
X239100000Y-93700000D02*
X239100000Y-84164676D01*
X232818699Y-63096926D02*
X235743750Y-60171875D01*
X234596625Y-79661301D02*
X233443375Y-79661301D01*
X197585625Y-59380000D02*
X197643750Y-59321875D01*
X218016099Y-83406099D02*
X222394999Y-87784999D01*
X223229997Y-89594999D02*
X227374999Y-89594999D01*
X211352974Y-83406099D02*
X218016099Y-83406099D01*
X222394999Y-87784999D02*
X222394999Y-88760001D01*
X182760000Y-78371875D02*
X207168750Y-78371875D01*
X222394999Y-88760001D02*
X223229997Y-89594999D01*
X230603701Y-92823701D02*
X231480000Y-93700000D01*
X181910000Y-78371875D02*
X182760000Y-78371875D01*
X207168750Y-78371875D02*
X207168750Y-79221875D01*
X207168750Y-79221875D02*
X211352974Y-83406099D01*
X227374999Y-89594999D02*
X230603701Y-92823701D01*
X282059375Y-33075000D02*
X281359375Y-32375000D01*
X286821875Y-52125000D02*
X286121875Y-51425000D01*
X286121875Y-51425000D02*
X284321875Y-51425000D01*
X295646875Y-70475000D02*
X293846875Y-70475000D01*
X281359375Y-32375000D02*
X279559375Y-32375000D01*
X296346875Y-71175000D02*
X295646875Y-70475000D01*
X258264374Y-62872501D02*
X256575872Y-61183999D01*
X251105000Y-35375000D02*
X251105000Y-34630000D01*
X256575872Y-61183999D02*
X253933749Y-61183999D01*
X262630076Y-62872501D02*
X258264374Y-62872501D01*
X250598699Y-64519049D02*
X250598699Y-92498699D01*
X264160000Y-60210000D02*
X264160000Y-61342577D01*
X264160000Y-61342577D02*
X262630076Y-62872501D01*
X253933749Y-61183999D02*
X250598699Y-64519049D01*
X251105000Y-34630000D02*
X259055000Y-34630000D01*
X253790000Y-38060000D02*
X251105000Y-35375000D01*
X250598699Y-92498699D02*
X251800000Y-93700000D01*
X265600000Y-60805685D02*
X267421876Y-62627561D01*
X267421876Y-62627561D02*
X267421876Y-68646001D01*
X253138699Y-92498699D02*
X254340000Y-93700000D01*
X262167876Y-73900001D02*
X257122073Y-73900001D01*
X265600000Y-60240000D02*
X265600000Y-60805685D01*
X260950000Y-39130000D02*
X259055000Y-39130000D01*
X267421876Y-68646001D02*
X262167876Y-73900001D01*
X257122073Y-73900001D02*
X253138699Y-77883375D01*
X261530000Y-39710000D02*
X260950000Y-39130000D01*
X253138699Y-77883375D02*
X253138699Y-92498699D01*
X259055000Y-39130000D02*
X251105000Y-39130000D01*
X259745000Y-39430000D02*
X259645000Y-39530000D01*
M02*
