G04 #@! TF.GenerationSoftware,KiCad,Pcbnew,(5.1.4)-1*
G04 #@! TF.CreationDate,2021-01-05T09:44:17-08:00*
G04 #@! TF.ProjectId,andante-classic,616e6461-6e74-4652-9d63-6c6173736963,rev?*
G04 #@! TF.SameCoordinates,Original*
G04 #@! TF.FileFunction,Copper,L1,Top*
G04 #@! TF.FilePolarity,Positive*
%FSLAX46Y46*%
G04 Gerber Fmt 4.6, Leading zero omitted, Abs format (unit mm)*
G04 Created by KiCad (PCBNEW (5.1.4)-1) date 2021-01-05 09:44:17*
%MOMM*%
%LPD*%
G04 APERTURE LIST*
%ADD10C,0.300000*%
%ADD11C,0.800000*%
G04 APERTURE END LIST*
D10*
X85727142Y-180798571D02*
X85727142Y-180012857D01*
X85655714Y-179870000D01*
X85512857Y-179798571D01*
X85227142Y-179798571D01*
X85084285Y-179870000D01*
X85727142Y-180727142D02*
X85584285Y-180798571D01*
X85227142Y-180798571D01*
X85084285Y-180727142D01*
X85012857Y-180584285D01*
X85012857Y-180441428D01*
X85084285Y-180298571D01*
X85227142Y-180227142D01*
X85584285Y-180227142D01*
X85727142Y-180155714D01*
X86441428Y-179798571D02*
X86441428Y-180798571D01*
X86441428Y-179941428D02*
X86512857Y-179870000D01*
X86655714Y-179798571D01*
X86870000Y-179798571D01*
X87012857Y-179870000D01*
X87084285Y-180012857D01*
X87084285Y-180798571D01*
X88441428Y-180798571D02*
X88441428Y-179298571D01*
X88441428Y-180727142D02*
X88298571Y-180798571D01*
X88012857Y-180798571D01*
X87870000Y-180727142D01*
X87798571Y-180655714D01*
X87727142Y-180512857D01*
X87727142Y-180084285D01*
X87798571Y-179941428D01*
X87870000Y-179870000D01*
X88012857Y-179798571D01*
X88298571Y-179798571D01*
X88441428Y-179870000D01*
X89798571Y-180798571D02*
X89798571Y-180012857D01*
X89727142Y-179870000D01*
X89584285Y-179798571D01*
X89298571Y-179798571D01*
X89155714Y-179870000D01*
X89798571Y-180727142D02*
X89655714Y-180798571D01*
X89298571Y-180798571D01*
X89155714Y-180727142D01*
X89084285Y-180584285D01*
X89084285Y-180441428D01*
X89155714Y-180298571D01*
X89298571Y-180227142D01*
X89655714Y-180227142D01*
X89798571Y-180155714D01*
X90512857Y-179798571D02*
X90512857Y-180798571D01*
X90512857Y-179941428D02*
X90584285Y-179870000D01*
X90727142Y-179798571D01*
X90941428Y-179798571D01*
X91084285Y-179870000D01*
X91155714Y-180012857D01*
X91155714Y-180798571D01*
X91655714Y-179798571D02*
X92227142Y-179798571D01*
X91870000Y-179298571D02*
X91870000Y-180584285D01*
X91941428Y-180727142D01*
X92084285Y-180798571D01*
X92227142Y-180798571D01*
X93298571Y-180727142D02*
X93155714Y-180798571D01*
X92870000Y-180798571D01*
X92727142Y-180727142D01*
X92655714Y-180584285D01*
X92655714Y-180012857D01*
X92727142Y-179870000D01*
X92870000Y-179798571D01*
X93155714Y-179798571D01*
X93298571Y-179870000D01*
X93370000Y-180012857D01*
X93370000Y-180155714D01*
X92655714Y-180298571D01*
X94655714Y-179798571D02*
X94655714Y-180798571D01*
X94298571Y-179227142D02*
X93941428Y-180298571D01*
X94870000Y-180298571D01*
X95370000Y-179441428D02*
X95441428Y-179370000D01*
X95584285Y-179298571D01*
X95941428Y-179298571D01*
X96084285Y-179370000D01*
X96155714Y-179441428D01*
X96227142Y-179584285D01*
X96227142Y-179727142D01*
X96155714Y-179941428D01*
X95298571Y-180798571D01*
X96227142Y-180798571D01*
D11*
X130048000Y-132588000D03*
M02*
