G04 #@! TF.GenerationSoftware,KiCad,Pcbnew,(5.1.4)-1*
G04 #@! TF.CreationDate,2021-01-05T09:43:32-08:00*
G04 #@! TF.ProjectId,andante-classic,616e6461-6e74-4652-9d63-6c6173736963,rev?*
G04 #@! TF.SameCoordinates,Original*
G04 #@! TF.FileFunction,Copper,L1,Top*
G04 #@! TF.FilePolarity,Positive*
%FSLAX46Y46*%
G04 Gerber Fmt 4.6, Leading zero omitted, Abs format (unit mm)*
G04 Created by KiCad (PCBNEW (5.1.4)-1) date 2021-01-05 09:43:32*
%MOMM*%
%LPD*%
G04 APERTURE LIST*
%ADD10R,1.905000X1.905000*%
%ADD11C,1.905000*%
%ADD12C,2.000000*%
%ADD13C,2.250000*%
%ADD14C,2.250000*%
%ADD15C,1.752600*%
%ADD16O,1.750000X1.200000*%
%ADD17C,0.100000*%
%ADD18C,1.200000*%
%ADD19C,1.600000*%
%ADD20R,1.600000X1.600000*%
%ADD21O,1.600000X2.000000*%
%ADD22C,0.250000*%
%ADD23C,0.400000*%
G04 APERTURE END LIST*
D10*
X128317500Y-81632500D03*
D11*
X130857500Y-81632500D03*
D12*
X129587500Y-92612500D03*
X124587500Y-90512500D03*
D13*
X132087500Y-90712500D03*
X132742505Y-89982504D03*
D14*
X133397500Y-89252500D02*
X132087510Y-90712508D01*
D13*
X127047500Y-91792500D03*
X127067729Y-91502516D03*
D14*
X127087500Y-91212500D02*
X127047958Y-91792532D01*
D10*
X80692500Y-62582500D03*
D11*
X83232500Y-62582500D03*
D12*
X81962500Y-73562500D03*
X76962500Y-71462500D03*
D13*
X84462500Y-71662500D03*
X85117505Y-70932504D03*
D14*
X85772500Y-70202500D02*
X84462510Y-71662508D01*
D13*
X79422500Y-72742500D03*
X79442729Y-72452516D03*
D14*
X79462500Y-72162500D02*
X79422958Y-72742532D01*
D10*
X33067500Y-43532500D03*
D11*
X35607500Y-43532500D03*
D12*
X34337500Y-54512500D03*
X29337500Y-52412500D03*
D13*
X36837500Y-52612500D03*
X37492505Y-51882504D03*
D14*
X38147500Y-51152500D02*
X36837510Y-52612508D01*
D13*
X31797500Y-53692500D03*
X31817729Y-53402516D03*
D14*
X31837500Y-53112500D02*
X31797958Y-53692532D01*
D10*
X42592500Y-62582500D03*
D11*
X45132500Y-62582500D03*
D12*
X43862500Y-73562500D03*
X38862500Y-71462500D03*
D13*
X46362500Y-71662500D03*
X47017505Y-70932504D03*
D14*
X47672500Y-70202500D02*
X46362510Y-71662508D01*
D13*
X41322500Y-72742500D03*
X41342729Y-72452516D03*
D14*
X41362500Y-72162500D02*
X41322958Y-72742532D01*
D10*
X85455000Y-24482500D03*
D11*
X87995000Y-24482500D03*
D12*
X86725000Y-35462500D03*
X81725000Y-33362500D03*
D13*
X89225000Y-33562500D03*
X89880005Y-32832504D03*
D14*
X90535000Y-32102500D02*
X89225010Y-33562508D01*
D13*
X84185000Y-34642500D03*
X84205229Y-34352516D03*
D14*
X84225000Y-34062500D02*
X84185458Y-34642532D01*
D10*
X118792500Y-62582500D03*
D11*
X121332500Y-62582500D03*
D12*
X120062500Y-73562500D03*
X115062500Y-71462500D03*
D13*
X122562500Y-71662500D03*
X123217505Y-70932504D03*
D14*
X123872500Y-70202500D02*
X122562510Y-71662508D01*
D13*
X117522500Y-72742500D03*
X117542729Y-72452516D03*
D14*
X117562500Y-72162500D02*
X117522958Y-72742532D01*
D15*
X47950538Y-95028380D03*
X50490538Y-95028380D03*
X53030538Y-95028380D03*
X55570538Y-95028380D03*
X58110538Y-95028380D03*
X60650538Y-95028380D03*
X63190538Y-95028380D03*
X65730538Y-95028380D03*
X68270538Y-95028380D03*
X70810538Y-95028380D03*
X73350538Y-95028380D03*
X75890538Y-79788380D03*
X73350538Y-79788380D03*
X70810538Y-79788380D03*
X68270538Y-79788380D03*
X65730538Y-79788380D03*
X63190538Y-79788380D03*
X60650538Y-79788380D03*
X58110538Y-79788380D03*
X55570538Y-79788380D03*
X53030538Y-79788380D03*
X50490538Y-79788380D03*
X75890538Y-95028380D03*
X47950538Y-79788380D03*
X45410538Y-79788380D03*
X45410538Y-95028380D03*
X70810538Y-92488380D03*
X70810538Y-89948380D03*
X70810538Y-87408380D03*
D10*
X109267500Y-81632500D03*
D11*
X111807500Y-81632500D03*
D12*
X110537500Y-92612500D03*
X105537500Y-90512500D03*
D13*
X113037500Y-90712500D03*
X113692505Y-89982504D03*
D14*
X114347500Y-89252500D02*
X113037510Y-90712508D01*
D13*
X107997500Y-91792500D03*
X108017729Y-91502516D03*
D14*
X108037500Y-91212500D02*
X107997958Y-91792532D01*
D10*
X137842500Y-62582500D03*
D11*
X140382500Y-62582500D03*
D12*
X139112500Y-73562500D03*
X134112500Y-71462500D03*
D13*
X141612500Y-71662500D03*
X142267505Y-70932504D03*
D14*
X142922500Y-70202500D02*
X141612510Y-71662508D01*
D13*
X136572500Y-72742500D03*
X136592729Y-72452516D03*
D14*
X136612500Y-72162500D02*
X136572958Y-72742532D01*
D10*
X61642500Y-62582500D03*
D11*
X64182500Y-62582500D03*
D12*
X62912500Y-73562500D03*
X57912500Y-71462500D03*
D13*
X65412500Y-71662500D03*
X66067505Y-70932504D03*
D14*
X66722500Y-70202500D02*
X65412510Y-71662508D01*
D13*
X60372500Y-72742500D03*
X60392729Y-72452516D03*
D14*
X60412500Y-72162500D02*
X60372958Y-72742532D01*
D10*
X99742500Y-62582500D03*
D11*
X102282500Y-62582500D03*
D12*
X101012500Y-73562500D03*
X96012500Y-71462500D03*
D13*
X103512500Y-71662500D03*
X104167505Y-70932504D03*
D14*
X104822500Y-70202500D02*
X103512510Y-71662508D01*
D13*
X98472500Y-72742500D03*
X98492729Y-72452516D03*
D14*
X98512500Y-72162500D02*
X98472958Y-72742532D01*
D16*
X81168750Y-83252000D03*
D17*
G36*
X81818255Y-84653204D02*
G01*
X81842523Y-84656804D01*
X81866322Y-84662765D01*
X81889421Y-84671030D01*
X81911600Y-84681520D01*
X81932643Y-84694132D01*
X81952349Y-84708747D01*
X81970527Y-84725223D01*
X81987003Y-84743401D01*
X82001618Y-84763107D01*
X82014230Y-84784150D01*
X82024720Y-84806329D01*
X82032985Y-84829428D01*
X82038946Y-84853227D01*
X82042546Y-84877495D01*
X82043750Y-84901999D01*
X82043750Y-85602001D01*
X82042546Y-85626505D01*
X82038946Y-85650773D01*
X82032985Y-85674572D01*
X82024720Y-85697671D01*
X82014230Y-85719850D01*
X82001618Y-85740893D01*
X81987003Y-85760599D01*
X81970527Y-85778777D01*
X81952349Y-85795253D01*
X81932643Y-85809868D01*
X81911600Y-85822480D01*
X81889421Y-85832970D01*
X81866322Y-85841235D01*
X81842523Y-85847196D01*
X81818255Y-85850796D01*
X81793751Y-85852000D01*
X80543749Y-85852000D01*
X80519245Y-85850796D01*
X80494977Y-85847196D01*
X80471178Y-85841235D01*
X80448079Y-85832970D01*
X80425900Y-85822480D01*
X80404857Y-85809868D01*
X80385151Y-85795253D01*
X80366973Y-85778777D01*
X80350497Y-85760599D01*
X80335882Y-85740893D01*
X80323270Y-85719850D01*
X80312780Y-85697671D01*
X80304515Y-85674572D01*
X80298554Y-85650773D01*
X80294954Y-85626505D01*
X80293750Y-85602001D01*
X80293750Y-84901999D01*
X80294954Y-84877495D01*
X80298554Y-84853227D01*
X80304515Y-84829428D01*
X80312780Y-84806329D01*
X80323270Y-84784150D01*
X80335882Y-84763107D01*
X80350497Y-84743401D01*
X80366973Y-84725223D01*
X80385151Y-84708747D01*
X80404857Y-84694132D01*
X80425900Y-84681520D01*
X80448079Y-84671030D01*
X80471178Y-84662765D01*
X80494977Y-84656804D01*
X80519245Y-84653204D01*
X80543749Y-84652000D01*
X81793751Y-84652000D01*
X81818255Y-84653204D01*
X81818255Y-84653204D01*
G37*
D18*
X81168750Y-85252000D03*
D10*
X104505000Y-24482500D03*
D11*
X107045000Y-24482500D03*
D12*
X105775000Y-35462500D03*
X100775000Y-33362500D03*
D13*
X108275000Y-33562500D03*
X108930005Y-32832504D03*
D14*
X109585000Y-32102500D02*
X108275010Y-33562508D01*
D13*
X103235000Y-34642500D03*
X103255229Y-34352516D03*
D14*
X103275000Y-34062500D02*
X103235458Y-34642532D01*
D19*
X78064000Y-94189000D03*
X78064000Y-91689000D03*
X78064000Y-89189000D03*
X81264000Y-94189000D03*
X81264000Y-91689000D03*
D20*
X81264000Y-89189000D03*
D10*
X90217500Y-81632500D03*
D11*
X92757500Y-81632500D03*
D12*
X91487500Y-92612500D03*
X86487500Y-90512500D03*
D13*
X93987500Y-90712500D03*
X94642505Y-89982504D03*
D14*
X95297500Y-89252500D02*
X93987510Y-90712508D01*
D13*
X88947500Y-91792500D03*
X88967729Y-91502516D03*
D14*
X88987500Y-91212500D02*
X88947958Y-91792532D01*
D10*
X123555000Y-24482500D03*
D11*
X126095000Y-24482500D03*
D12*
X124825000Y-35462500D03*
X119825000Y-33362500D03*
D13*
X127325000Y-33562500D03*
X127980005Y-32832504D03*
D14*
X128635000Y-32102500D02*
X127325010Y-33562508D01*
D13*
X122285000Y-34642500D03*
X122305229Y-34352516D03*
D14*
X122325000Y-34062500D02*
X122285458Y-34642532D01*
D10*
X47355000Y-24482500D03*
D11*
X49895000Y-24482500D03*
D12*
X48625000Y-35462500D03*
X43625000Y-33362500D03*
D13*
X51125000Y-33562500D03*
X51780005Y-32832504D03*
D14*
X52435000Y-32102500D02*
X51125010Y-33562508D01*
D13*
X46085000Y-34642500D03*
X46105229Y-34352516D03*
D14*
X46125000Y-34062500D02*
X46085458Y-34642532D01*
D10*
X52117500Y-43532500D03*
D11*
X54657500Y-43532500D03*
D12*
X53387500Y-54512500D03*
X48387500Y-52412500D03*
D13*
X55887500Y-52612500D03*
X56542505Y-51882504D03*
D14*
X57197500Y-51152500D02*
X55887510Y-52612508D01*
D13*
X50847500Y-53692500D03*
X50867729Y-53402516D03*
D14*
X50887500Y-53112500D02*
X50847958Y-53692532D01*
D10*
X90217500Y-43532500D03*
D11*
X92757500Y-43532500D03*
D12*
X91487500Y-54512500D03*
X86487500Y-52412500D03*
D13*
X93987500Y-52612500D03*
X94642505Y-51882504D03*
D14*
X95297500Y-51152500D02*
X93987510Y-52612508D01*
D13*
X88947500Y-53692500D03*
X88967729Y-53402516D03*
D14*
X88987500Y-53112500D02*
X88947958Y-53692532D01*
D10*
X28305000Y-24482500D03*
D11*
X30845000Y-24482500D03*
D12*
X29575000Y-35462500D03*
X24575000Y-33362500D03*
D13*
X32075000Y-33562500D03*
X32730005Y-32832504D03*
D14*
X33385000Y-32102500D02*
X32075010Y-33562508D01*
D13*
X27035000Y-34642500D03*
X27055229Y-34352516D03*
D14*
X27075000Y-34062500D02*
X27035458Y-34642532D01*
D10*
X66405000Y-24482500D03*
D11*
X68945000Y-24482500D03*
D12*
X67675000Y-35462500D03*
X62675000Y-33362500D03*
D13*
X70175000Y-33562500D03*
X70830005Y-32832504D03*
D14*
X71485000Y-32102500D02*
X70175010Y-33562508D01*
D13*
X65135000Y-34642500D03*
X65155229Y-34352516D03*
D14*
X65175000Y-34062500D02*
X65135458Y-34642532D01*
D10*
X128317500Y-43532500D03*
D11*
X130857500Y-43532500D03*
D12*
X129587500Y-54512500D03*
X124587500Y-52412500D03*
D13*
X132087500Y-52612500D03*
X132742505Y-51882504D03*
D14*
X133397500Y-51152500D02*
X132087510Y-52612508D01*
D13*
X127047500Y-53692500D03*
X127067729Y-53402516D03*
D14*
X127087500Y-53112500D02*
X127047958Y-53692532D01*
D21*
X141250000Y-27250000D03*
X141250000Y-24250000D03*
X141250000Y-31250000D03*
X136650000Y-32350000D03*
D10*
X71167500Y-43532500D03*
D11*
X73707500Y-43532500D03*
D12*
X72437500Y-54512500D03*
X67437500Y-52412500D03*
D13*
X74937500Y-52612500D03*
X75592505Y-51882504D03*
D14*
X76247500Y-51152500D02*
X74937510Y-52612508D01*
D13*
X69897500Y-53692500D03*
X69917729Y-53402516D03*
D14*
X69937500Y-53112500D02*
X69897958Y-53692532D01*
D10*
X109267500Y-43532500D03*
D11*
X111807500Y-43532500D03*
D12*
X110537500Y-54512500D03*
X105537500Y-52412500D03*
D13*
X113037500Y-52612500D03*
X113692505Y-51882504D03*
D14*
X114347500Y-51152500D02*
X113037510Y-52612508D01*
D13*
X107997500Y-53692500D03*
X108017729Y-53402516D03*
D14*
X108037500Y-53112500D02*
X107997958Y-53692532D01*
D22*
X32935000Y-32102500D02*
X33385000Y-32102500D01*
X29575000Y-35462500D02*
X32935000Y-32102500D01*
X27075000Y-50150000D02*
X29337500Y-52412500D01*
X46611839Y-80365005D02*
X46611839Y-78272841D01*
X58110538Y-79788380D02*
X56909237Y-80989681D01*
X37862501Y-70462501D02*
X38862500Y-71462500D01*
X47236515Y-80989681D02*
X46611839Y-80365005D01*
X31837500Y-53112500D02*
X31837500Y-53652500D01*
X56909237Y-80989681D02*
X47236515Y-80989681D01*
X31837500Y-55878800D02*
X37118800Y-60969600D01*
X37187499Y-69787499D02*
X37862501Y-70462501D01*
X31837500Y-53112500D02*
X31837500Y-55878800D01*
X41362500Y-73023502D02*
X41362500Y-72162500D01*
X46611839Y-78272841D02*
X41362500Y-73023502D01*
X31837500Y-53652500D02*
X31797500Y-53692500D01*
X37118800Y-60969600D02*
X37187499Y-69787499D01*
X26775001Y-34362499D02*
X27075000Y-34062500D01*
X31537501Y-53412499D02*
X31837500Y-53112500D01*
X27075000Y-34062500D02*
X27075000Y-50150000D01*
X136324964Y-30774964D02*
X134668015Y-30774964D01*
X88637501Y-69633501D02*
X88637501Y-65294501D01*
X88637501Y-65294501D02*
X87907501Y-64564501D01*
X84510001Y-52396003D02*
X84510001Y-51071411D01*
X80399999Y-32726499D02*
X84406099Y-28720399D01*
X84406099Y-28577403D02*
X85739903Y-27243599D01*
X84510001Y-51071411D02*
X80399999Y-46961409D01*
X87907501Y-55793503D02*
X84510001Y-52396003D01*
X60471417Y-74887501D02*
X83383501Y-74887501D01*
X85739903Y-27243599D02*
X131136650Y-27243599D01*
X84406099Y-28720399D02*
X84406099Y-28577403D01*
X136650000Y-32350000D02*
X136650000Y-31100000D01*
X136650000Y-31100000D02*
X136324964Y-30774964D01*
X87907501Y-64564501D02*
X87907501Y-55793503D01*
X80399999Y-46961409D02*
X80399999Y-32726499D01*
X55570538Y-79788380D02*
X60471417Y-74887501D01*
X83383501Y-74887501D02*
X88637501Y-69633501D01*
X134668015Y-30774964D02*
X131136650Y-27243599D01*
X50525000Y-33562500D02*
X51125000Y-33562500D01*
X48625000Y-35462500D02*
X50525000Y-33562500D01*
X67675000Y-35462500D02*
X71035000Y-32102500D01*
X71035000Y-32102500D02*
X71485000Y-32102500D01*
X86725000Y-35462500D02*
X90085000Y-32102500D01*
X90085000Y-32102500D02*
X90535000Y-32102500D01*
X109135000Y-32102500D02*
X109585000Y-32102500D01*
X105775000Y-35462500D02*
X109135000Y-32102500D01*
X126725000Y-33562500D02*
X127325000Y-33562500D01*
X124825000Y-35462500D02*
X126725000Y-33562500D01*
X36237500Y-52612500D02*
X36837500Y-52612500D01*
X34337500Y-54512500D02*
X36237500Y-52612500D01*
X53387500Y-54512500D02*
X56747500Y-51152500D01*
X56747500Y-51152500D02*
X57197500Y-51152500D01*
X72437500Y-54512500D02*
X75797500Y-51152500D01*
X75797500Y-51152500D02*
X76247500Y-51152500D01*
X94847500Y-51152500D02*
X95297500Y-51152500D01*
X91487500Y-54512500D02*
X94847500Y-51152500D01*
X110537500Y-54512500D02*
X112437500Y-52612500D01*
X112437500Y-52612500D02*
X113037500Y-52612500D01*
X129587500Y-54512500D02*
X131487500Y-52612500D01*
X131487500Y-52612500D02*
X132087500Y-52612500D01*
X43862500Y-73562500D02*
X45762500Y-71662500D01*
X45762500Y-71662500D02*
X46362500Y-71662500D01*
X62912500Y-73562500D02*
X64812500Y-71662500D01*
X64812500Y-71662500D02*
X65412500Y-71662500D01*
X81962500Y-73562500D02*
X85322500Y-70202500D01*
X85322500Y-70202500D02*
X85772500Y-70202500D01*
X101012500Y-73562500D02*
X102912500Y-71662500D01*
X102912500Y-71662500D02*
X103512500Y-71662500D01*
X121962500Y-71662500D02*
X122562500Y-71662500D01*
X120062500Y-73562500D02*
X121962500Y-71662500D01*
X142472500Y-70202500D02*
X142922500Y-70202500D01*
X139112500Y-73562500D02*
X142472500Y-70202500D01*
X93387500Y-90712500D02*
X93987500Y-90712500D01*
X91487500Y-92612500D02*
X93387500Y-90712500D01*
X112437500Y-90712500D02*
X113037500Y-90712500D01*
X110537500Y-92612500D02*
X112437500Y-90712500D01*
X131487500Y-90712500D02*
X132087500Y-90712500D01*
X129587500Y-92612500D02*
X131487500Y-90712500D01*
X50887500Y-53112500D02*
X50887500Y-64437500D01*
X46125000Y-34062500D02*
X46125000Y-50150000D01*
X50887500Y-64437500D02*
X57912500Y-71462500D01*
X46125000Y-50150000D02*
X48387500Y-52412500D01*
X65175000Y-34062500D02*
X65175000Y-50150000D01*
X69937500Y-64437500D02*
X76962500Y-71462500D01*
X69937500Y-53112500D02*
X69937500Y-64437500D01*
X65175000Y-50150000D02*
X67437500Y-52412500D01*
X88947500Y-85820526D02*
X88947500Y-90201510D01*
X84225000Y-34062500D02*
X84225000Y-50150000D01*
X65730538Y-79788380D02*
X66931839Y-78587079D01*
X98512500Y-72162500D02*
X98512500Y-78100000D01*
X84225000Y-50150000D02*
X86487500Y-52412500D01*
X98512500Y-78100000D02*
X92218901Y-84393599D01*
X90374427Y-84393599D02*
X88947500Y-85820526D01*
X84812499Y-88837499D02*
X85487501Y-89512501D01*
X98512500Y-72702500D02*
X98472500Y-72742500D01*
X84225000Y-34602500D02*
X84185000Y-34642500D01*
X79801490Y-78587079D02*
X84812499Y-83598088D01*
X98512500Y-72162500D02*
X98512500Y-72702500D01*
X84225000Y-34062500D02*
X84225000Y-34602500D01*
X88987500Y-64437500D02*
X96012500Y-71462500D01*
X92218901Y-84393599D02*
X90374427Y-84393599D01*
X84812499Y-83598088D02*
X84812499Y-88837499D01*
X88947500Y-90201510D02*
X88947500Y-91792500D01*
X88987500Y-53112500D02*
X88987500Y-64437500D01*
X85487501Y-89512501D02*
X86487500Y-90512500D01*
X66931839Y-78587079D02*
X79801490Y-78587079D01*
X109424427Y-84393599D02*
X107997500Y-85820526D01*
X107997500Y-85820526D02*
X107997500Y-90201510D01*
X111268901Y-84393599D02*
X109424427Y-84393599D01*
X103275000Y-34062500D02*
X103275000Y-50150000D01*
X108037500Y-53112500D02*
X108037500Y-64437500D01*
X117562500Y-78100000D02*
X111268901Y-84393599D01*
X117562500Y-72162500D02*
X117562500Y-78100000D01*
X103275000Y-50150000D02*
X105537500Y-52412500D01*
X108037500Y-64437500D02*
X115062500Y-71462500D01*
X107997500Y-90201510D02*
X107997500Y-91792500D01*
X127047500Y-90201510D02*
X127047500Y-91792500D01*
X122912499Y-46251501D02*
X134112000Y-35052000D01*
X122912499Y-56677501D02*
X122912499Y-46251501D01*
X134199962Y-34964038D02*
X136485962Y-34964038D01*
X88072997Y-93063999D02*
X88946499Y-93937501D01*
X59311839Y-93827079D02*
X76760919Y-93827079D01*
X92589002Y-93472000D02*
X109435998Y-93472000D01*
X134112000Y-35052000D02*
X134199962Y-34964038D01*
X76760919Y-93827079D02*
X77523999Y-93063999D01*
X88946499Y-93937501D02*
X92123501Y-93937501D01*
X124557499Y-58322501D02*
X122912499Y-56677501D01*
X58110538Y-95028380D02*
X59311839Y-93827079D01*
X140200000Y-31250000D02*
X141250000Y-31250000D01*
X109435998Y-93472000D02*
X109901499Y-93937501D01*
X92123501Y-93937501D02*
X92589002Y-93472000D01*
X77523999Y-93063999D02*
X88072997Y-93063999D01*
X109901499Y-93937501D02*
X113326499Y-93937501D01*
X126737501Y-65990503D02*
X124557499Y-63810501D01*
X124557499Y-63810501D02*
X124557499Y-58322501D01*
X136485962Y-34964038D02*
X140200000Y-31250000D01*
X113326499Y-93937501D02*
X126737501Y-80526499D01*
X126737501Y-80526499D02*
X126737501Y-65990503D01*
D23*
X79893750Y-83252000D02*
X81168750Y-83252000D01*
X47634883Y-83252000D02*
X79893750Y-83252000D01*
X45410538Y-81027655D02*
X47634883Y-83252000D01*
X45410538Y-79788380D02*
X45410538Y-81027655D01*
X81168750Y-89093750D02*
X81264000Y-89189000D01*
X81168750Y-85252000D02*
X81168750Y-89093750D01*
X80730600Y-88757200D02*
X81327500Y-89354100D01*
X54306839Y-86132079D02*
X76783081Y-86132079D01*
X80464001Y-90889001D02*
X81264000Y-91689000D01*
X80063999Y-90488999D02*
X80464001Y-90889001D01*
X76783081Y-86132079D02*
X80063999Y-89412997D01*
X45410538Y-95028380D02*
X54306839Y-86132079D01*
X80063999Y-89412997D02*
X80063999Y-90488999D01*
M02*
