G04 #@! TF.GenerationSoftware,KiCad,Pcbnew,(5.1.4)-1*
G04 #@! TF.CreationDate,2021-01-05T09:43:32-08:00*
G04 #@! TF.ProjectId,andante-classic,616e6461-6e74-4652-9d63-6c6173736963,rev?*
G04 #@! TF.SameCoordinates,Original*
G04 #@! TF.FileFunction,Copper,L2,Bot*
G04 #@! TF.FilePolarity,Positive*
%FSLAX46Y46*%
G04 Gerber Fmt 4.6, Leading zero omitted, Abs format (unit mm)*
G04 Created by KiCad (PCBNEW (5.1.4)-1) date 2021-01-05 09:43:32*
%MOMM*%
%LPD*%
G04 APERTURE LIST*
%ADD10R,1.200000X1.200000*%
%ADD11R,1.905000X1.905000*%
%ADD12C,1.905000*%
%ADD13C,2.000000*%
%ADD14C,2.250000*%
%ADD15C,2.250000*%
%ADD16C,1.752600*%
%ADD17O,1.750000X1.200000*%
%ADD18C,0.100000*%
%ADD19C,1.200000*%
%ADD20C,1.600000*%
%ADD21R,1.600000X1.600000*%
%ADD22O,1.600000X2.000000*%
%ADD23R,1.550000X1.300000*%
%ADD24C,0.250000*%
G04 APERTURE END LIST*
D10*
X118872000Y-22860000D03*
X118872000Y-25660000D03*
X100076000Y-22860000D03*
X100076000Y-25660000D03*
X66548000Y-42164000D03*
X66548000Y-44964000D03*
X104187500Y-80264000D03*
X104187500Y-83064000D03*
X133096000Y-61208000D03*
X133096000Y-64008000D03*
X113792000Y-61084000D03*
X113792000Y-63884000D03*
X85852000Y-42164000D03*
X85852000Y-44964000D03*
X87518750Y-80264000D03*
X87518750Y-83064000D03*
X104648000Y-42164000D03*
X104648000Y-44964000D03*
X37512500Y-61562500D03*
X37512500Y-64362500D03*
X29194000Y-43338000D03*
X29194000Y-46138000D03*
X47244000Y-42164000D03*
X47244000Y-44964000D03*
X123952000Y-42164000D03*
X123952000Y-44964000D03*
X123237500Y-80264000D03*
X123237500Y-83064000D03*
X75692000Y-61084000D03*
X75692000Y-63884000D03*
D11*
X128317500Y-81632500D03*
D12*
X130857500Y-81632500D03*
D13*
X129587500Y-92612500D03*
X124587500Y-90512500D03*
D14*
X132087500Y-90712500D03*
X132742505Y-89982504D03*
D15*
X133397500Y-89252500D02*
X132087510Y-90712508D01*
D14*
X127047500Y-91792500D03*
X127067729Y-91502516D03*
D15*
X127087500Y-91212500D02*
X127047958Y-91792532D01*
D11*
X80692500Y-62582500D03*
D12*
X83232500Y-62582500D03*
D13*
X81962500Y-73562500D03*
X76962500Y-71462500D03*
D14*
X84462500Y-71662500D03*
X85117505Y-70932504D03*
D15*
X85772500Y-70202500D02*
X84462510Y-71662508D01*
D14*
X79422500Y-72742500D03*
X79442729Y-72452516D03*
D15*
X79462500Y-72162500D02*
X79422958Y-72742532D01*
D10*
X56896000Y-60960000D03*
X56896000Y-63760000D03*
D11*
X33067500Y-43532500D03*
D12*
X35607500Y-43532500D03*
D13*
X34337500Y-54512500D03*
X29337500Y-52412500D03*
D14*
X36837500Y-52612500D03*
X37492505Y-51882504D03*
D15*
X38147500Y-51152500D02*
X36837510Y-52612508D01*
D14*
X31797500Y-53692500D03*
X31817729Y-53402516D03*
D15*
X31837500Y-53112500D02*
X31797958Y-53692532D01*
D11*
X42592500Y-62582500D03*
D12*
X45132500Y-62582500D03*
D13*
X43862500Y-73562500D03*
X38862500Y-71462500D03*
D14*
X46362500Y-71662500D03*
X47017505Y-70932504D03*
D15*
X47672500Y-70202500D02*
X46362510Y-71662508D01*
D14*
X41322500Y-72742500D03*
X41342729Y-72452516D03*
D15*
X41362500Y-72162500D02*
X41322958Y-72742532D01*
D11*
X85455000Y-24482500D03*
D12*
X87995000Y-24482500D03*
D13*
X86725000Y-35462500D03*
X81725000Y-33362500D03*
D14*
X89225000Y-33562500D03*
X89880005Y-32832504D03*
D15*
X90535000Y-32102500D02*
X89225010Y-33562508D01*
D14*
X84185000Y-34642500D03*
X84205229Y-34352516D03*
D15*
X84225000Y-34062500D02*
X84185458Y-34642532D01*
D11*
X118792500Y-62582500D03*
D12*
X121332500Y-62582500D03*
D13*
X120062500Y-73562500D03*
X115062500Y-71462500D03*
D14*
X122562500Y-71662500D03*
X123217505Y-70932504D03*
D15*
X123872500Y-70202500D02*
X122562510Y-71662508D01*
D14*
X117522500Y-72742500D03*
X117542729Y-72452516D03*
D15*
X117562500Y-72162500D02*
X117522958Y-72742532D01*
D16*
X47950538Y-95028380D03*
X50490538Y-95028380D03*
X53030538Y-95028380D03*
X55570538Y-95028380D03*
X58110538Y-95028380D03*
X60650538Y-95028380D03*
X63190538Y-95028380D03*
X65730538Y-95028380D03*
X68270538Y-95028380D03*
X70810538Y-95028380D03*
X73350538Y-95028380D03*
X75890538Y-79788380D03*
X73350538Y-79788380D03*
X70810538Y-79788380D03*
X68270538Y-79788380D03*
X65730538Y-79788380D03*
X63190538Y-79788380D03*
X60650538Y-79788380D03*
X58110538Y-79788380D03*
X55570538Y-79788380D03*
X53030538Y-79788380D03*
X50490538Y-79788380D03*
X75890538Y-95028380D03*
X47950538Y-79788380D03*
X45410538Y-79788380D03*
X45410538Y-95028380D03*
X70810538Y-92488380D03*
X70810538Y-89948380D03*
X70810538Y-87408380D03*
D11*
X109267500Y-81632500D03*
D12*
X111807500Y-81632500D03*
D13*
X110537500Y-92612500D03*
X105537500Y-90512500D03*
D14*
X113037500Y-90712500D03*
X113692505Y-89982504D03*
D15*
X114347500Y-89252500D02*
X113037510Y-90712508D01*
D14*
X107997500Y-91792500D03*
X108017729Y-91502516D03*
D15*
X108037500Y-91212500D02*
X107997958Y-91792532D01*
D11*
X137842500Y-62582500D03*
D12*
X140382500Y-62582500D03*
D13*
X139112500Y-73562500D03*
X134112500Y-71462500D03*
D14*
X141612500Y-71662500D03*
X142267505Y-70932504D03*
D15*
X142922500Y-70202500D02*
X141612510Y-71662508D01*
D14*
X136572500Y-72742500D03*
X136592729Y-72452516D03*
D15*
X136612500Y-72162500D02*
X136572958Y-72742532D01*
D11*
X61642500Y-62582500D03*
D12*
X64182500Y-62582500D03*
D13*
X62912500Y-73562500D03*
X57912500Y-71462500D03*
D14*
X65412500Y-71662500D03*
X66067505Y-70932504D03*
D15*
X66722500Y-70202500D02*
X65412510Y-71662508D01*
D14*
X60372500Y-72742500D03*
X60392729Y-72452516D03*
D15*
X60412500Y-72162500D02*
X60372958Y-72742532D01*
D11*
X99742500Y-62582500D03*
D12*
X102282500Y-62582500D03*
D13*
X101012500Y-73562500D03*
X96012500Y-71462500D03*
D14*
X103512500Y-71662500D03*
X104167505Y-70932504D03*
D15*
X104822500Y-70202500D02*
X103512510Y-71662508D01*
D14*
X98472500Y-72742500D03*
X98492729Y-72452516D03*
D15*
X98512500Y-72162500D02*
X98472958Y-72742532D01*
D17*
X81168750Y-83252000D03*
D18*
G36*
X81818255Y-84653204D02*
G01*
X81842523Y-84656804D01*
X81866322Y-84662765D01*
X81889421Y-84671030D01*
X81911600Y-84681520D01*
X81932643Y-84694132D01*
X81952349Y-84708747D01*
X81970527Y-84725223D01*
X81987003Y-84743401D01*
X82001618Y-84763107D01*
X82014230Y-84784150D01*
X82024720Y-84806329D01*
X82032985Y-84829428D01*
X82038946Y-84853227D01*
X82042546Y-84877495D01*
X82043750Y-84901999D01*
X82043750Y-85602001D01*
X82042546Y-85626505D01*
X82038946Y-85650773D01*
X82032985Y-85674572D01*
X82024720Y-85697671D01*
X82014230Y-85719850D01*
X82001618Y-85740893D01*
X81987003Y-85760599D01*
X81970527Y-85778777D01*
X81952349Y-85795253D01*
X81932643Y-85809868D01*
X81911600Y-85822480D01*
X81889421Y-85832970D01*
X81866322Y-85841235D01*
X81842523Y-85847196D01*
X81818255Y-85850796D01*
X81793751Y-85852000D01*
X80543749Y-85852000D01*
X80519245Y-85850796D01*
X80494977Y-85847196D01*
X80471178Y-85841235D01*
X80448079Y-85832970D01*
X80425900Y-85822480D01*
X80404857Y-85809868D01*
X80385151Y-85795253D01*
X80366973Y-85778777D01*
X80350497Y-85760599D01*
X80335882Y-85740893D01*
X80323270Y-85719850D01*
X80312780Y-85697671D01*
X80304515Y-85674572D01*
X80298554Y-85650773D01*
X80294954Y-85626505D01*
X80293750Y-85602001D01*
X80293750Y-84901999D01*
X80294954Y-84877495D01*
X80298554Y-84853227D01*
X80304515Y-84829428D01*
X80312780Y-84806329D01*
X80323270Y-84784150D01*
X80335882Y-84763107D01*
X80350497Y-84743401D01*
X80366973Y-84725223D01*
X80385151Y-84708747D01*
X80404857Y-84694132D01*
X80425900Y-84681520D01*
X80448079Y-84671030D01*
X80471178Y-84662765D01*
X80494977Y-84656804D01*
X80519245Y-84653204D01*
X80543749Y-84652000D01*
X81793751Y-84652000D01*
X81818255Y-84653204D01*
X81818255Y-84653204D01*
G37*
D19*
X81168750Y-85252000D03*
D11*
X104505000Y-24482500D03*
D12*
X107045000Y-24482500D03*
D13*
X105775000Y-35462500D03*
X100775000Y-33362500D03*
D14*
X108275000Y-33562500D03*
X108930005Y-32832504D03*
D15*
X109585000Y-32102500D02*
X108275010Y-33562508D01*
D14*
X103235000Y-34642500D03*
X103255229Y-34352516D03*
D15*
X103275000Y-34062500D02*
X103235458Y-34642532D01*
D20*
X78064000Y-94189000D03*
X78064000Y-91689000D03*
X78064000Y-89189000D03*
X81264000Y-94189000D03*
X81264000Y-91689000D03*
D21*
X81264000Y-89189000D03*
D11*
X90217500Y-81632500D03*
D12*
X92757500Y-81632500D03*
D13*
X91487500Y-92612500D03*
X86487500Y-90512500D03*
D14*
X93987500Y-90712500D03*
X94642505Y-89982504D03*
D15*
X95297500Y-89252500D02*
X93987510Y-90712508D01*
D14*
X88947500Y-91792500D03*
X88967729Y-91502516D03*
D15*
X88987500Y-91212500D02*
X88947958Y-91792532D01*
D11*
X123555000Y-24482500D03*
D12*
X126095000Y-24482500D03*
D13*
X124825000Y-35462500D03*
X119825000Y-33362500D03*
D14*
X127325000Y-33562500D03*
X127980005Y-32832504D03*
D15*
X128635000Y-32102500D02*
X127325010Y-33562508D01*
D14*
X122285000Y-34642500D03*
X122305229Y-34352516D03*
D15*
X122325000Y-34062500D02*
X122285458Y-34642532D01*
D11*
X47355000Y-24482500D03*
D12*
X49895000Y-24482500D03*
D13*
X48625000Y-35462500D03*
X43625000Y-33362500D03*
D14*
X51125000Y-33562500D03*
X51780005Y-32832504D03*
D15*
X52435000Y-32102500D02*
X51125010Y-33562508D01*
D14*
X46085000Y-34642500D03*
X46105229Y-34352516D03*
D15*
X46125000Y-34062500D02*
X46085458Y-34642532D01*
D11*
X52117500Y-43532500D03*
D12*
X54657500Y-43532500D03*
D13*
X53387500Y-54512500D03*
X48387500Y-52412500D03*
D14*
X55887500Y-52612500D03*
X56542505Y-51882504D03*
D15*
X57197500Y-51152500D02*
X55887510Y-52612508D01*
D14*
X50847500Y-53692500D03*
X50867729Y-53402516D03*
D15*
X50887500Y-53112500D02*
X50847958Y-53692532D01*
D11*
X90217500Y-43532500D03*
D12*
X92757500Y-43532500D03*
D13*
X91487500Y-54512500D03*
X86487500Y-52412500D03*
D14*
X93987500Y-52612500D03*
X94642505Y-51882504D03*
D15*
X95297500Y-51152500D02*
X93987510Y-52612508D01*
D14*
X88947500Y-53692500D03*
X88967729Y-53402516D03*
D15*
X88987500Y-53112500D02*
X88947958Y-53692532D01*
D11*
X28305000Y-24482500D03*
D12*
X30845000Y-24482500D03*
D13*
X29575000Y-35462500D03*
X24575000Y-33362500D03*
D14*
X32075000Y-33562500D03*
X32730005Y-32832504D03*
D15*
X33385000Y-32102500D02*
X32075010Y-33562508D01*
D14*
X27035000Y-34642500D03*
X27055229Y-34352516D03*
D15*
X27075000Y-34062500D02*
X27035458Y-34642532D01*
D11*
X66405000Y-24482500D03*
D12*
X68945000Y-24482500D03*
D13*
X67675000Y-35462500D03*
X62675000Y-33362500D03*
D14*
X70175000Y-33562500D03*
X70830005Y-32832504D03*
D15*
X71485000Y-32102500D02*
X70175010Y-33562508D01*
D14*
X65135000Y-34642500D03*
X65155229Y-34352516D03*
D15*
X65175000Y-34062500D02*
X65135458Y-34642532D01*
D11*
X128317500Y-43532500D03*
D12*
X130857500Y-43532500D03*
D13*
X129587500Y-54512500D03*
X124587500Y-52412500D03*
D14*
X132087500Y-52612500D03*
X132742505Y-51882504D03*
D15*
X133397500Y-51152500D02*
X132087510Y-52612508D01*
D14*
X127047500Y-53692500D03*
X127067729Y-53402516D03*
D15*
X127087500Y-53112500D02*
X127047958Y-53692532D01*
D22*
X141250000Y-27250000D03*
X141250000Y-24250000D03*
X141250000Y-31250000D03*
X136650000Y-32350000D03*
D10*
X94996000Y-61084000D03*
X94996000Y-63884000D03*
D23*
X42195000Y-35190000D03*
X42195000Y-39690000D03*
X34245000Y-39690000D03*
X34245000Y-35190000D03*
D10*
X23368000Y-22860000D03*
X23368000Y-25660000D03*
X42672000Y-22860000D03*
X42672000Y-25660000D03*
X80772000Y-22860000D03*
X80772000Y-25660000D03*
X61976000Y-22860000D03*
X61976000Y-25660000D03*
D11*
X71167500Y-43532500D03*
D12*
X73707500Y-43532500D03*
D13*
X72437500Y-54512500D03*
X67437500Y-52412500D03*
D14*
X74937500Y-52612500D03*
X75592505Y-51882504D03*
D15*
X76247500Y-51152500D02*
X74937510Y-52612508D01*
D14*
X69897500Y-53692500D03*
X69917729Y-53402516D03*
D15*
X69937500Y-53112500D02*
X69897958Y-53692532D01*
D11*
X109267500Y-43532500D03*
D12*
X111807500Y-43532500D03*
D13*
X110537500Y-54512500D03*
X105537500Y-52412500D03*
D14*
X113037500Y-52612500D03*
X113692505Y-51882504D03*
D15*
X114347500Y-51152500D02*
X113037510Y-52612508D01*
D14*
X107997500Y-53692500D03*
X108017729Y-53402516D03*
D15*
X108037500Y-53112500D02*
X107997958Y-53692532D01*
D24*
X23368000Y-26510000D02*
X23368000Y-25660000D01*
X23368000Y-26659498D02*
X23368000Y-26510000D01*
X29575000Y-35462500D02*
X29575000Y-32866498D01*
X29575000Y-32866498D02*
X23368000Y-26659498D01*
X26362629Y-37976101D02*
X26362630Y-52035042D01*
X46749237Y-80365005D02*
X46749237Y-79349153D01*
X22299999Y-23925001D02*
X22299999Y-33913471D01*
X23075000Y-23150000D02*
X22299999Y-23925001D01*
X35025140Y-57477210D02*
X33835440Y-56287510D01*
X42737595Y-75337511D02*
X40140099Y-75337511D01*
X35025140Y-70222552D02*
X35025140Y-57477210D01*
X46749237Y-80365005D02*
X47373913Y-80989681D01*
X26362630Y-52035042D02*
X30615098Y-56287510D01*
X47373913Y-80989681D02*
X49151839Y-80989681D01*
X46749237Y-79349153D02*
X42737595Y-75337511D01*
X62314239Y-94152081D02*
X63190538Y-95028380D01*
X40140099Y-75337511D02*
X35025140Y-70222552D01*
X23368000Y-22860000D02*
X118872000Y-22860000D01*
X49151839Y-80989681D02*
X62314239Y-94152081D01*
X22299999Y-33913471D02*
X26362629Y-37976101D01*
X23225000Y-23150000D02*
X23075000Y-23150000D01*
X30615098Y-56287510D02*
X33835440Y-56287510D01*
X38862500Y-71462500D02*
X39862499Y-72462499D01*
X29337500Y-52412500D02*
X30337499Y-53412499D01*
X30337499Y-53412499D02*
X31537501Y-53412499D01*
X41362500Y-72162500D02*
X41362500Y-73023502D01*
X39862499Y-72462499D02*
X41062501Y-72462499D01*
X26754999Y-34362499D02*
X27035000Y-34642500D01*
X25574999Y-34362499D02*
X26754999Y-34362499D01*
X24575000Y-33362500D02*
X25574999Y-34362499D01*
X31837500Y-53112500D02*
X31837500Y-53973502D01*
X41062501Y-72462499D02*
X41362500Y-72162500D01*
X31537501Y-53412499D02*
X31837500Y-53112500D01*
X42672000Y-26510000D02*
X42672000Y-25660000D01*
X48625000Y-32866498D02*
X42672000Y-26913498D01*
X42672000Y-26913498D02*
X42672000Y-26510000D01*
X48625000Y-35462500D02*
X48625000Y-32866498D01*
X61976000Y-27167498D02*
X61976000Y-26510000D01*
X67675000Y-32866498D02*
X61976000Y-27167498D01*
X67675000Y-35462500D02*
X67675000Y-32866498D01*
X61976000Y-26510000D02*
X61976000Y-25660000D01*
X86725000Y-32866498D02*
X80772000Y-26913498D01*
X86725000Y-35462500D02*
X86725000Y-32866498D01*
X80772000Y-26913498D02*
X80772000Y-26510000D01*
X80772000Y-26510000D02*
X80772000Y-25660000D01*
X100076000Y-27167498D02*
X100076000Y-26510000D01*
X105775000Y-32866498D02*
X100076000Y-27167498D01*
X105775000Y-35462500D02*
X105775000Y-32866498D01*
X100076000Y-26510000D02*
X100076000Y-25660000D01*
X124825000Y-32866498D02*
X118872000Y-26913498D01*
X118872000Y-26510000D02*
X118872000Y-25660000D01*
X124825000Y-35462500D02*
X124825000Y-32866498D01*
X118872000Y-26913498D02*
X118872000Y-26510000D01*
X30044000Y-47619000D02*
X30044000Y-47088000D01*
X29344000Y-46388000D02*
X29194000Y-46388000D01*
X34337500Y-54512500D02*
X34337500Y-51912500D01*
X30044000Y-47088000D02*
X29344000Y-46388000D01*
X34337500Y-51912500D02*
X30044000Y-47619000D01*
X65730538Y-95028380D02*
X59449237Y-88747079D01*
X123087500Y-42262500D02*
X123079999Y-42254999D01*
X47895001Y-42254999D02*
X47887500Y-42262500D01*
X47887500Y-42262500D02*
X47037500Y-42262500D01*
X123237500Y-42262500D02*
X123087500Y-42262500D01*
X29194000Y-43338000D02*
X30044000Y-43338000D01*
X47935413Y-63860001D02*
X40112411Y-63860001D01*
X36587499Y-62395301D02*
X36587499Y-55008503D01*
X31218000Y-42164000D02*
X46394000Y-42164000D01*
X46318999Y-43939001D02*
X47244000Y-43014000D01*
X47244000Y-43014000D02*
X47244000Y-42164000D01*
X36587499Y-55008503D02*
X46318999Y-45277003D01*
X46318999Y-45277003D02*
X46318999Y-43939001D01*
X47244000Y-42164000D02*
X123952000Y-42164000D01*
X36679699Y-62487501D02*
X36587499Y-62395301D01*
X38739911Y-62487501D02*
X36679699Y-62487501D01*
X40112411Y-63860001D02*
X38739911Y-62487501D01*
X59449237Y-88747079D02*
X59449237Y-75373825D01*
X30044000Y-43338000D02*
X31218000Y-42164000D01*
X46394000Y-42164000D02*
X47244000Y-42164000D01*
X59449237Y-75373825D02*
X47935413Y-63860001D01*
X47887500Y-46262500D02*
X47187500Y-45562500D01*
X47887500Y-46412500D02*
X47887500Y-46262500D01*
X53387500Y-51912500D02*
X47887500Y-46412500D01*
X53387500Y-54512500D02*
X53387500Y-51912500D01*
X47187500Y-45562500D02*
X47037500Y-45562500D01*
X66937500Y-46262500D02*
X66237500Y-45562500D01*
X66937500Y-46412500D02*
X66937500Y-46262500D01*
X72437500Y-51912500D02*
X66937500Y-46412500D01*
X66237500Y-45562500D02*
X66087500Y-45562500D01*
X72437500Y-54512500D02*
X72437500Y-51912500D01*
X85987500Y-46200000D02*
X85287500Y-45500000D01*
X91487500Y-51916498D02*
X85987500Y-46416498D01*
X85287500Y-45500000D02*
X85137500Y-45500000D01*
X85987500Y-46416498D02*
X85987500Y-46200000D01*
X91487500Y-54512500D02*
X91487500Y-51916498D01*
X110537500Y-51912500D02*
X104187500Y-45562500D01*
X110537500Y-54512500D02*
X110537500Y-51912500D01*
X123952000Y-45814000D02*
X123952000Y-44964000D01*
X129587500Y-51916498D02*
X123952000Y-46280998D01*
X123952000Y-46280998D02*
X123952000Y-45814000D01*
X129587500Y-54512500D02*
X129587500Y-51916498D01*
X37662500Y-64612500D02*
X37512500Y-64612500D01*
X43862500Y-70962500D02*
X38362500Y-65462500D01*
X43862500Y-73562500D02*
X43862500Y-70962500D01*
X38362500Y-65312500D02*
X37662500Y-64612500D01*
X38362500Y-65462500D02*
X38362500Y-65312500D01*
X61989237Y-78150763D02*
X74687499Y-65452501D01*
X56500000Y-61250000D02*
X37575000Y-61250000D01*
X68270538Y-95028380D02*
X61989237Y-88747079D01*
X61989237Y-88747079D02*
X61989237Y-78150763D01*
X74687499Y-62937501D02*
X75612500Y-62012500D01*
X75612500Y-62012500D02*
X75612500Y-61312500D01*
X74687499Y-65452501D02*
X74687499Y-62937501D01*
X56896000Y-60960000D02*
X132588000Y-60960000D01*
X37575000Y-61250000D02*
X37512500Y-61312500D01*
X62912500Y-70966498D02*
X56896000Y-64949998D01*
X62912500Y-73562500D02*
X62912500Y-70966498D01*
X56896000Y-64610000D02*
X56896000Y-63760000D01*
X56896000Y-64949998D02*
X56896000Y-64610000D01*
X81962500Y-71004500D02*
X75692000Y-64734000D01*
X81962500Y-73562500D02*
X81962500Y-71004500D01*
X75692000Y-64734000D02*
X75692000Y-63884000D01*
X94996000Y-64734000D02*
X94996000Y-63884000D01*
X94996000Y-64949998D02*
X94996000Y-64734000D01*
X101012500Y-70966498D02*
X94996000Y-64949998D01*
X101012500Y-73562500D02*
X101012500Y-70966498D01*
X120062500Y-73562500D02*
X120062500Y-71004500D01*
X120062500Y-71004500D02*
X113792000Y-64734000D01*
X113792000Y-64734000D02*
X113792000Y-63884000D01*
X133612500Y-65250000D02*
X132912500Y-64550000D01*
X132912500Y-64550000D02*
X132762500Y-64550000D01*
X139112500Y-70966498D02*
X133612500Y-65466498D01*
X139112500Y-73562500D02*
X139112500Y-70966498D01*
X133612500Y-65466498D02*
X133612500Y-65250000D01*
X91487500Y-92612500D02*
X91487500Y-90144474D01*
X87518750Y-86175724D02*
X87518750Y-84236500D01*
X91487500Y-90144474D02*
X87518750Y-86175724D01*
X87518750Y-84236500D02*
X87518750Y-83536500D01*
X123111500Y-80236500D02*
X123237500Y-80362500D01*
X87518750Y-80236500D02*
X123111500Y-80236500D01*
X72011839Y-93827079D02*
X72011839Y-90825750D01*
X82601089Y-80236500D02*
X86668750Y-80236500D01*
X70810538Y-95028380D02*
X72011839Y-93827079D01*
X72011839Y-90825750D02*
X82601089Y-80236500D01*
X86668750Y-80236500D02*
X87518750Y-80236500D01*
X104187500Y-83666498D02*
X104187500Y-83064000D01*
X110537500Y-90016498D02*
X104187500Y-83666498D01*
X110537500Y-92612500D02*
X110537500Y-90016498D01*
X129587500Y-90016498D02*
X123237500Y-83666498D01*
X123237500Y-83666498D02*
X123237500Y-83064000D01*
X129587500Y-92612500D02*
X129587500Y-90016498D01*
X48387500Y-52412500D02*
X49387499Y-53412499D01*
X57912500Y-71462500D02*
X58912499Y-72462499D01*
X58912499Y-72462499D02*
X60112501Y-72462499D01*
X45825001Y-34362499D02*
X46125000Y-34062500D01*
X60112501Y-72462499D02*
X60412500Y-72162500D01*
X60650538Y-72400538D02*
X60412500Y-72162500D01*
X44624999Y-34362499D02*
X45825001Y-34362499D01*
X43625000Y-33362500D02*
X44624999Y-34362499D01*
X60650538Y-79788380D02*
X60650538Y-72400538D01*
X50567499Y-53412499D02*
X50847500Y-53692500D01*
X49387499Y-53412499D02*
X50567499Y-53412499D01*
X63190538Y-79788380D02*
X71516418Y-71462500D01*
X76962500Y-71462500D02*
X77962499Y-72462499D01*
X62675000Y-33362500D02*
X63674999Y-34362499D01*
X67437500Y-52412500D02*
X68437499Y-53412499D01*
X77962499Y-72462499D02*
X79162501Y-72462499D01*
X68437499Y-53412499D02*
X69617499Y-53412499D01*
X64875001Y-34362499D02*
X65175000Y-34062500D01*
X71516418Y-71462500D02*
X76962500Y-71462500D01*
X79162501Y-72462499D02*
X79462500Y-72162500D01*
X69617499Y-53412499D02*
X69897500Y-53692500D01*
X63674999Y-34362499D02*
X64875001Y-34362499D01*
X88687501Y-91512499D02*
X88987500Y-91212500D01*
X87487499Y-91512499D02*
X88687501Y-91512499D01*
X88687501Y-53412499D02*
X88987500Y-53112500D01*
X86487500Y-90512500D02*
X87487499Y-91512499D01*
X83925001Y-34362499D02*
X84225000Y-34062500D01*
X96012500Y-71462500D02*
X97012499Y-72462499D01*
X81725000Y-33362500D02*
X82724999Y-34362499D01*
X86487500Y-52412500D02*
X87487499Y-53412499D01*
X82724999Y-34362499D02*
X83925001Y-34362499D01*
X87487499Y-53412499D02*
X88687501Y-53412499D01*
X97012499Y-72462499D02*
X98192499Y-72462499D01*
X98192499Y-72462499D02*
X98472500Y-72742500D01*
X102975001Y-34362499D02*
X103275000Y-34062500D01*
X107737501Y-53412499D02*
X108037500Y-53112500D01*
X115062500Y-71462500D02*
X116062499Y-72462499D01*
X101774999Y-34362499D02*
X102975001Y-34362499D01*
X98458041Y-74887501D02*
X111637499Y-74887501D01*
X117262501Y-72462499D02*
X117562500Y-72162500D01*
X100775000Y-33362500D02*
X101774999Y-34362499D01*
X114062501Y-72462499D02*
X115062500Y-71462500D01*
X106537499Y-53412499D02*
X107737501Y-53412499D01*
X116062499Y-72462499D02*
X117262501Y-72462499D01*
X106537499Y-91512499D02*
X107737501Y-91512499D01*
X68270538Y-79788380D02*
X70022147Y-78036771D01*
X105537500Y-52412500D02*
X106537499Y-53412499D01*
X105537500Y-90512500D02*
X106537499Y-91512499D01*
X95308771Y-78036771D02*
X98458041Y-74887501D01*
X70022147Y-78036771D02*
X95308771Y-78036771D01*
X111637499Y-74887501D02*
X114062501Y-72462499D01*
X126987921Y-78587079D02*
X130219500Y-75355500D01*
X122678499Y-81537501D02*
X124037499Y-81537501D01*
X122312499Y-81903501D02*
X122678499Y-81537501D01*
X126787501Y-91512499D02*
X127087500Y-91212500D01*
X124587500Y-90512500D02*
X125587499Y-91512499D01*
X135112499Y-72462499D02*
X136312501Y-72462499D01*
X120824999Y-34362499D02*
X122025001Y-34362499D01*
X127601511Y-55837501D02*
X127087500Y-55323490D01*
X133956001Y-62133001D02*
X134021001Y-62068001D01*
X122428000Y-44702998D02*
X124041997Y-43089001D01*
X124041997Y-43089001D02*
X124812001Y-43089001D01*
X72011839Y-78587079D02*
X96164921Y-78587079D01*
X127087500Y-55323490D02*
X127087500Y-53112500D01*
X126409500Y-79165500D02*
X126987921Y-78587079D01*
X130556000Y-67906000D02*
X130556000Y-64762998D01*
X133112501Y-72462499D02*
X134112500Y-71462500D01*
X124037499Y-81537501D02*
X125901500Y-79673500D01*
X122312499Y-88237499D02*
X122312499Y-81903501D01*
X130556000Y-64762998D02*
X133185997Y-62133001D01*
X134021001Y-60361001D02*
X129497501Y-55837501D01*
X124877001Y-38825491D02*
X122325000Y-36273490D01*
X96164921Y-78587079D02*
X99414489Y-75337511D01*
X126387500Y-52412500D02*
X124587500Y-52412500D01*
X124877001Y-43024001D02*
X124877001Y-38825491D01*
X124587500Y-52412500D02*
X122428000Y-50253000D01*
X124587500Y-90512500D02*
X122312499Y-88237499D01*
X134112500Y-71462500D02*
X130556000Y-67906000D01*
X99414489Y-75337511D02*
X130201511Y-75337511D01*
X130219500Y-75355500D02*
X133112501Y-72462499D01*
X125901500Y-79673500D02*
X126409500Y-79165500D01*
X125587499Y-91512499D02*
X126787501Y-91512499D01*
X129497501Y-55837501D02*
X127601511Y-55837501D01*
X122428000Y-50253000D02*
X122428000Y-44702998D01*
X130201511Y-75337511D02*
X130219500Y-75355500D01*
X133185997Y-62133001D02*
X133956001Y-62133001D01*
X134021001Y-62068001D02*
X134021001Y-60361001D01*
X70810538Y-79788380D02*
X72011839Y-78587079D01*
X119825000Y-33362500D02*
X120824999Y-34362499D01*
X122025001Y-34362499D02*
X122325000Y-34062500D01*
X134112500Y-71462500D02*
X135112499Y-72462499D01*
X127087500Y-53112500D02*
X126387500Y-52412500D01*
X122325000Y-36273490D02*
X122325000Y-34062500D01*
X136312501Y-72462499D02*
X136612500Y-72162500D01*
X124812001Y-43089001D02*
X124877001Y-43024001D01*
X30081997Y-40665001D02*
X43154999Y-40665001D01*
X34245000Y-35190000D02*
X42195000Y-35190000D01*
X53030538Y-79788380D02*
X53030538Y-78549105D01*
X36656401Y-49662499D02*
X36656401Y-46896401D01*
X52270000Y-77788567D02*
X52270000Y-68830998D01*
X34570001Y-44810001D02*
X28880999Y-44810001D01*
X43154999Y-40665001D02*
X43295001Y-40524999D01*
X28880999Y-44810001D02*
X28268999Y-44198001D01*
X37872513Y-62937511D02*
X36493298Y-62937510D01*
X36493298Y-62937510D02*
X36137489Y-62581701D01*
X35387499Y-53308501D02*
X35387499Y-50931401D01*
X47749013Y-64310011D02*
X39245013Y-64310011D01*
X39245013Y-64310011D02*
X37872513Y-62937511D01*
X36137489Y-62581701D02*
X36137489Y-54058491D01*
X28268999Y-42477999D02*
X30081997Y-40665001D01*
X36656401Y-46896401D02*
X34570001Y-44810001D01*
X43295001Y-35265001D02*
X43220000Y-35190000D01*
X28268999Y-44198001D02*
X28268999Y-42477999D01*
X43220000Y-35190000D02*
X42195000Y-35190000D01*
X43295001Y-40524999D02*
X43295001Y-35265001D01*
X35387499Y-50931401D02*
X36656401Y-49662499D01*
X36137489Y-54058491D02*
X35387499Y-53308501D01*
X52270000Y-68830998D02*
X47749013Y-64310011D01*
X53030538Y-78549105D02*
X52270000Y-77788567D01*
X80730600Y-88757200D02*
X81327500Y-89354100D01*
X35475150Y-70036152D02*
X35475150Y-56339150D01*
X28448730Y-39690000D02*
X33220000Y-39690000D01*
X78559497Y-26087501D02*
X79911999Y-24734999D01*
X33220000Y-39690000D02*
X34245000Y-39690000D01*
X35475150Y-56339150D02*
X34973501Y-55837501D01*
X34973501Y-55837501D02*
X30801499Y-55837501D01*
X138152629Y-26297371D02*
X140200000Y-24250000D01*
X34245000Y-37878502D02*
X30624999Y-34258501D01*
X27537630Y-52573632D02*
X27537630Y-40601100D01*
X121317497Y-24734999D02*
X122879869Y-26297371D01*
X50490538Y-79788380D02*
X50829005Y-79788380D01*
X30801499Y-55837501D02*
X27537630Y-52573632D01*
X50947999Y-25760001D02*
X52070501Y-24637499D01*
X40326499Y-74887501D02*
X35475150Y-70036152D01*
X45589659Y-74887501D02*
X40326499Y-74887501D01*
X27537630Y-40601100D02*
X28448730Y-39690000D01*
X30624999Y-34258501D02*
X30624999Y-31816499D01*
X34245000Y-39690000D02*
X42195000Y-39690000D01*
X101916498Y-24384000D02*
X103619999Y-26087501D01*
X50490538Y-79788380D02*
X45589659Y-74887501D01*
X65519999Y-26087501D02*
X78559497Y-26087501D01*
X116659497Y-26087501D02*
X118011999Y-24734999D01*
X84569999Y-26087501D02*
X97863497Y-26087501D01*
X46142499Y-25760001D02*
X50947999Y-25760001D01*
X97863497Y-26087501D02*
X99566998Y-24384000D01*
X122879869Y-26297371D02*
X138152629Y-26297371D01*
X64069997Y-24637499D02*
X65519999Y-26087501D01*
X99566998Y-24384000D02*
X101916498Y-24384000D01*
X52070501Y-24637499D02*
X64069997Y-24637499D01*
X83217497Y-24734999D02*
X84569999Y-26087501D01*
X45117497Y-24734999D02*
X46142499Y-25760001D01*
X37706499Y-24734999D02*
X45117497Y-24734999D01*
X103619999Y-26087501D02*
X116659497Y-26087501D01*
X140200000Y-24250000D02*
X141250000Y-24250000D01*
X34245000Y-39690000D02*
X34245000Y-37878502D01*
X79911999Y-24734999D02*
X83217497Y-24734999D01*
X118011999Y-24734999D02*
X121317497Y-24734999D01*
X30624999Y-31816499D02*
X37706499Y-24734999D01*
M02*
