G04 #@! TF.GenerationSoftware,KiCad,Pcbnew,(5.1.4)-1*
G04 #@! TF.CreationDate,2021-01-05T09:43:32-08:00*
G04 #@! TF.ProjectId,andante-classic,616e6461-6e74-4652-9d63-6c6173736963,rev?*
G04 #@! TF.SameCoordinates,Original*
G04 #@! TF.FileFunction,Profile,NP*
%FSLAX46Y46*%
G04 Gerber Fmt 4.6, Leading zero omitted, Abs format (unit mm)*
G04 Created by KiCad (PCBNEW (5.1.4)-1) date 2021-01-05 09:43:32*
%MOMM*%
%LPD*%
G04 APERTURE LIST*
%ADD10C,0.100000*%
G04 APERTURE END LIST*
D10*
X135047500Y-39283437D02*
G75*
G02X134347500Y-38583437I0J700000D01*
G01*
X135447500Y-21334999D02*
G75*
G02X134347500Y-21334997I-550000J0D01*
G01*
X134347500Y-27668331D02*
G75*
G02X135447500Y-27668333I550000J-2D01*
G01*
X147935000Y-77185000D02*
X139810000Y-77185000D01*
X134347500Y-30001664D02*
X134347500Y-27668331D01*
X32934999Y-58835000D02*
X24809999Y-58835000D01*
X121210000Y-58035000D02*
G75*
G03X121210000Y-58035000I-1150000J0D01*
G01*
X83110000Y-58035000D02*
G75*
G03X83110000Y-58035000I-1150000J0D01*
G01*
X102160000Y-77535000D02*
G75*
G03X102160000Y-77535000I-1150000J0D01*
G01*
X102160000Y-39535000D02*
G75*
G03X102160000Y-39535000I-1150000J0D01*
G01*
X134347500Y-23334996D02*
G75*
G02X135447500Y-23335000I550000J-3D01*
G01*
X139810000Y-58333437D02*
G75*
G02X139110000Y-57633437I0J700000D01*
G01*
X134347500Y-36334997D02*
X134347500Y-38583437D01*
X147935000Y-58333437D02*
G75*
G02X148635000Y-59033437I0J-700000D01*
G01*
X138409999Y-39283436D02*
G75*
G02X139110000Y-39983437I0J-700001D01*
G01*
X135447500Y-23335000D02*
X135447500Y-25668333D01*
X142447499Y-37284999D02*
G75*
G02X141747500Y-37985000I-700000J-1D01*
G01*
X142447500Y-20035000D02*
X142447500Y-37285000D01*
X139110000Y-77885000D02*
G75*
G02X139810000Y-77185000I700000J0D01*
G01*
X20047500Y-19335001D02*
X133647500Y-19335001D01*
X139110000Y-39983437D02*
X139110000Y-57633437D01*
X136147500Y-19335001D02*
X141747500Y-19335001D01*
X23409999Y-39785000D02*
G75*
G02X24109999Y-40485000I0J-700000D01*
G01*
X20047500Y-39785000D02*
G75*
G02X19347500Y-39085000I0J700000D01*
G01*
X134347500Y-25668331D02*
X134347500Y-23334997D01*
X135447500Y-25668333D02*
G75*
G02X134347500Y-25668331I-550000J0D01*
G01*
X135447500Y-27668333D02*
X135447500Y-30001666D01*
X148635000Y-59033437D02*
X148635000Y-76485000D01*
X19347501Y-20035000D02*
G75*
G02X20047500Y-19335001I699999J0D01*
G01*
X134347500Y-34334997D02*
X134347500Y-32001664D01*
X135447500Y-32001666D02*
X135447500Y-34334999D01*
X42460000Y-77885000D02*
X34334999Y-77885000D01*
X34335000Y-77884999D02*
G75*
G02X33634999Y-77185000I-1J700000D01*
G01*
X135447499Y-37285000D02*
X135447500Y-36335000D01*
X42460000Y-77885000D02*
G75*
G02X43160000Y-78585000I0J-700000D01*
G01*
X134347500Y-32001664D02*
G75*
G02X135447500Y-32001666I550000J-2D01*
G01*
X139110000Y-96235000D02*
G75*
G02X138410000Y-96935000I-700000J0D01*
G01*
X135447500Y-34334999D02*
G75*
G02X134347500Y-34334997I-550000J0D01*
G01*
X138410000Y-96935000D02*
X43860000Y-96935000D01*
X139110000Y-77885000D02*
X139110000Y-96235000D01*
X32934999Y-58835000D02*
G75*
G02X33634999Y-59535000I0J-700000D01*
G01*
X136147500Y-37985001D02*
G75*
G02X135447499Y-37285000I0J700001D01*
G01*
X135447501Y-20035000D02*
G75*
G02X136147500Y-19335001I699999J0D01*
G01*
X43860000Y-96935000D02*
G75*
G02X43160000Y-96235000I0J700000D01*
G01*
X19347500Y-39085000D02*
X19347501Y-20035000D01*
X141747500Y-19335000D02*
G75*
G02X142447500Y-20035000I0J-700000D01*
G01*
X24109999Y-58135000D02*
X24109999Y-40485000D01*
X24809999Y-58835000D02*
G75*
G02X24109999Y-58135000I0J700000D01*
G01*
X148635000Y-76485000D02*
G75*
G02X147935000Y-77185000I-700000J0D01*
G01*
X43160000Y-96235000D02*
X43160000Y-78585000D01*
X135047500Y-39283437D02*
X138410000Y-39283437D01*
X134347500Y-20035000D02*
X134347500Y-21334997D01*
X23409999Y-39785000D02*
X20047500Y-39785000D01*
X64060000Y-39535000D02*
G75*
G03X64060000Y-39535000I-1150000J0D01*
G01*
X134347500Y-36334996D02*
G75*
G02X135447500Y-36335000I550000J-3D01*
G01*
X135447500Y-21334999D02*
X135447500Y-20035000D01*
X133647500Y-19335000D02*
G75*
G02X134347500Y-20035000I0J-700000D01*
G01*
X139810000Y-58333437D02*
X147935000Y-58333437D01*
X135447500Y-30001666D02*
G75*
G02X134347500Y-30001664I-550000J0D01*
G01*
X33634999Y-77185000D02*
X33634999Y-59535000D01*
X141747500Y-37985000D02*
X136147500Y-37985000D01*
M02*
