M48
; DRILL file {KiCad (5.1.4)-1} date 1/5/2021 9:43:34 AM
; FORMAT={-:-/ absolute / inch / decimal}
; #@! TF.CreationDate,2021-01-05T09:43:34-08:00
; #@! TF.GenerationSoftware,Kicad,Pcbnew,(5.1.4)-1
; #@! TF.FileFunction,Plated,1,2,PTH
FMAT,2
INCH
T1C0.0295
T2C0.0315
T3C0.0354
T4C0.0390
T5C0.0430
T6C0.0472
T7C0.0579
%
G90
G05
T1
X3.1956Y-3.2776
X3.1956Y-3.3564
T2
X3.0734Y-3.5114
X3.0734Y-3.6098
X3.0734Y-3.7082
X3.1994Y-3.5114
X3.1994Y-3.6098
X3.1994Y-3.7082
T4
X1.6769Y-2.4639
X1.7769Y-2.4639
X1.1144Y-0.9639
X1.2144Y-0.9639
X2.6144Y-0.9639
X2.7144Y-0.9639
X5.4269Y-2.4639
X5.5269Y-2.4639
X3.9269Y-2.4639
X4.0269Y-2.4639
X4.1144Y-0.9639
X4.2144Y-0.9639
X4.8644Y-0.9639
X4.9644Y-0.9639
X4.3019Y-1.7139
X4.4019Y-1.7139
X2.0519Y-1.7139
X2.1519Y-1.7139
X3.3644Y-0.9639
X3.4644Y-0.9639
X4.3019Y-3.2139
X4.4019Y-3.2139
X5.0519Y-1.7139
X5.1519Y-1.7139
X5.0519Y-3.2139
X5.1519Y-3.2139
X2.4269Y-2.4639
X2.5269Y-2.4639
X1.8644Y-0.9639
X1.9644Y-0.9639
X1.3019Y-1.7139
X1.4019Y-1.7139
X3.5519Y-1.7139
X3.6519Y-1.7139
X4.6769Y-2.4639
X4.7769Y-2.4639
X3.1769Y-2.4639
X3.2769Y-2.4639
X3.5519Y-3.2139
X3.6519Y-3.2139
X2.8019Y-1.7139
X2.9019Y-1.7139
T5
X1.7878Y-3.1413
X1.7878Y-3.7413
X1.8878Y-3.1413
X1.8878Y-3.7413
X1.9878Y-3.1413
X1.9878Y-3.7413
X2.0878Y-3.1413
X2.0878Y-3.7413
X2.1878Y-3.1413
X2.1878Y-3.7413
X2.2878Y-3.1413
X2.2878Y-3.7413
X2.3878Y-3.1413
X2.3878Y-3.7413
X2.4878Y-3.1413
X2.4878Y-3.7413
X2.5878Y-3.1413
X2.5878Y-3.7413
X2.6878Y-3.1413
X2.6878Y-3.7413
X2.7878Y-3.1413
X2.7878Y-3.4413
X2.7878Y-3.5413
X2.7878Y-3.6413
X2.7878Y-3.7413
X2.8878Y-3.1413
X2.8878Y-3.7413
X2.9878Y-3.1413
X2.9878Y-3.7413
T6
X1.155Y-2.0635
X1.3519Y-2.1462
X3.405Y-2.0635
X3.6019Y-2.1462
X4.53Y-2.8135
X4.7269Y-2.8962
X3.03Y-2.8135
X3.2269Y-2.8962
X3.405Y-3.5635
X3.6019Y-3.6462
X2.655Y-2.0635
X2.8519Y-2.1462
X1.53Y-2.8135
X1.7269Y-2.8962
X0.9675Y-1.3135
X1.1644Y-1.3962
X2.4675Y-1.3135
X2.6644Y-1.3962
X5.28Y-2.8135
X5.4769Y-2.8962
X3.78Y-2.8135
X3.9769Y-2.8962
X3.9675Y-1.3135
X4.1644Y-1.3962
X4.7175Y-1.3135
X4.9144Y-1.3962
X4.155Y-2.0635
X4.3519Y-2.1462
X1.905Y-2.0635
X2.1019Y-2.1462
X3.2175Y-1.3135
X3.4144Y-1.3962
X4.155Y-3.5635
X4.3519Y-3.6462
X4.905Y-2.0635
X5.1019Y-2.1462
X4.905Y-3.5635
X5.1019Y-3.6462
X2.28Y-2.8135
X2.4769Y-2.8962
X1.7175Y-1.3135
X1.9144Y-1.3962
T7
X4.6269Y-2.8639
X4.6284Y-2.841
X4.8253Y-2.8214
X4.8769Y-2.7639
X3.1269Y-2.8639
X3.1284Y-2.841
X3.3253Y-2.8214
X3.3769Y-2.7639
X3.5019Y-3.6139
X3.5034Y-3.591
X3.7003Y-3.5714
X3.7519Y-3.5139
X2.7519Y-2.1139
X2.7534Y-2.091
X2.9503Y-2.0714
X3.0019Y-2.0139
X1.6269Y-2.8639
X1.6284Y-2.841
X1.8253Y-2.8214
X1.8769Y-2.7639
X1.0644Y-1.3639
X1.0659Y-1.341
X1.2628Y-1.3214
X1.3144Y-1.2639
X2.5644Y-1.3639
X2.5659Y-1.341
X2.7628Y-1.3214
X2.8144Y-1.2639
X5.3769Y-2.8639
X5.3784Y-2.841
X5.5753Y-2.8214
X5.6269Y-2.7639
X3.8769Y-2.8639
X3.8784Y-2.841
X4.0753Y-2.8214
X4.1269Y-2.7639
X4.0644Y-1.3639
X4.0659Y-1.341
X4.2628Y-1.3214
X4.3144Y-1.2639
X4.8144Y-1.3639
X4.8159Y-1.341
X5.0128Y-1.3214
X5.0644Y-1.2639
X4.2519Y-2.1139
X4.2534Y-2.091
X4.4503Y-2.0714
X4.5019Y-2.0139
X2.0019Y-2.1139
X2.0034Y-2.091
X2.2003Y-2.0714
X2.2519Y-2.0139
X3.3144Y-1.3639
X3.3159Y-1.341
X3.5128Y-1.3214
X3.5644Y-1.2639
X4.2519Y-3.6139
X4.2534Y-3.591
X4.4503Y-3.5714
X4.5019Y-3.5139
X5.0019Y-2.1139
X5.0034Y-2.091
X5.2003Y-2.0714
X5.2519Y-2.0139
X5.0019Y-3.6139
X5.0034Y-3.591
X5.2003Y-3.5714
X5.2519Y-3.5139
X2.3769Y-2.8639
X2.3784Y-2.841
X2.5753Y-2.8214
X2.6269Y-2.7639
X1.8144Y-1.3639
X1.8159Y-1.341
X2.0128Y-1.3214
X2.0644Y-1.2639
X1.2519Y-2.1139
X1.2534Y-2.091
X1.4503Y-2.0714
X1.5019Y-2.0139
X3.5019Y-2.1139
X3.5034Y-2.091
X3.7003Y-2.0714
X3.7519Y-2.0139
T3
G00X5.3799Y-1.2657
M15
G01X5.3799Y-1.2815
M16
G05
G00X5.561Y-0.9469
M15
G01X5.561Y-0.9626
M16
G05
G00X5.561Y-1.065
M15
G01X5.561Y-1.0807
M16
G05
G00X5.561Y-1.2224
M15
G01X5.561Y-1.2382
M16
G05
T0
M30
