G04 #@! TF.GenerationSoftware,KiCad,Pcbnew,(5.1.4)-1*
G04 #@! TF.CreationDate,2021-01-05T09:43:32-08:00*
G04 #@! TF.ProjectId,andante-classic,616e6461-6e74-4652-9d63-6c6173736963,rev?*
G04 #@! TF.SameCoordinates,Original*
G04 #@! TF.FileFunction,Legend,Bot*
G04 #@! TF.FilePolarity,Positive*
%FSLAX46Y46*%
G04 Gerber Fmt 4.6, Leading zero omitted, Abs format (unit mm)*
G04 Created by KiCad (PCBNEW (5.1.4)-1) date 2021-01-05 09:43:32*
%MOMM*%
%LPD*%
G04 APERTURE LIST*
%ADD10C,0.200000*%
%ADD11C,0.381000*%
%ADD12C,0.120000*%
%ADD13C,0.150000*%
%ADD14R,1.302000X1.302000*%
%ADD15R,2.007000X2.007000*%
%ADD16C,2.007000*%
%ADD17C,0.902000*%
%ADD18C,1.802000*%
%ADD19C,2.102000*%
%ADD20C,1.852000*%
%ADD21C,2.352000*%
%ADD22C,4.089800*%
%ADD23C,2.352000*%
%ADD24C,1.854600*%
%ADD25O,1.852000X1.302000*%
%ADD26C,0.100000*%
%ADD27C,1.302000*%
%ADD28C,1.702000*%
%ADD29R,1.702000X1.702000*%
%ADD30O,1.702000X2.102000*%
%ADD31R,1.652000X1.402000*%
G04 APERTURE END LIST*
D10*
X118872000Y-24560000D02*
X118872000Y-24860000D01*
X118872000Y-23960000D02*
X118872000Y-23660000D01*
X118522000Y-23960000D02*
X119272000Y-23960000D01*
X119272000Y-24560000D02*
X118872000Y-23960000D01*
X118522000Y-24560000D02*
X119272000Y-24560000D01*
X118872000Y-23960000D02*
X118522000Y-24560000D01*
X118172000Y-21560000D02*
X119572000Y-21560000D01*
X118172000Y-21760000D02*
X119572000Y-21760000D01*
X118172000Y-21960000D02*
X119572000Y-21960000D01*
X118172000Y-22160000D02*
X119572000Y-22160000D01*
X119572000Y-21560000D02*
X119572000Y-26360000D01*
X118172000Y-26360000D02*
X119572000Y-26360000D01*
X118172000Y-21560000D02*
X118172000Y-26360000D01*
X100076000Y-24560000D02*
X100076000Y-24860000D01*
X100076000Y-23960000D02*
X100076000Y-23660000D01*
X99726000Y-23960000D02*
X100476000Y-23960000D01*
X100476000Y-24560000D02*
X100076000Y-23960000D01*
X99726000Y-24560000D02*
X100476000Y-24560000D01*
X100076000Y-23960000D02*
X99726000Y-24560000D01*
X99376000Y-21560000D02*
X100776000Y-21560000D01*
X99376000Y-21760000D02*
X100776000Y-21760000D01*
X99376000Y-21960000D02*
X100776000Y-21960000D01*
X99376000Y-22160000D02*
X100776000Y-22160000D01*
X100776000Y-21560000D02*
X100776000Y-26360000D01*
X99376000Y-26360000D02*
X100776000Y-26360000D01*
X99376000Y-21560000D02*
X99376000Y-26360000D01*
X66548000Y-43864000D02*
X66548000Y-44164000D01*
X66548000Y-43264000D02*
X66548000Y-42964000D01*
X66198000Y-43264000D02*
X66948000Y-43264000D01*
X66948000Y-43864000D02*
X66548000Y-43264000D01*
X66198000Y-43864000D02*
X66948000Y-43864000D01*
X66548000Y-43264000D02*
X66198000Y-43864000D01*
X65848000Y-40864000D02*
X67248000Y-40864000D01*
X65848000Y-41064000D02*
X67248000Y-41064000D01*
X65848000Y-41264000D02*
X67248000Y-41264000D01*
X65848000Y-41464000D02*
X67248000Y-41464000D01*
X67248000Y-40864000D02*
X67248000Y-45664000D01*
X65848000Y-45664000D02*
X67248000Y-45664000D01*
X65848000Y-40864000D02*
X65848000Y-45664000D01*
X104187500Y-81964000D02*
X104187500Y-82264000D01*
X104187500Y-81364000D02*
X104187500Y-81064000D01*
X103837500Y-81364000D02*
X104587500Y-81364000D01*
X104587500Y-81964000D02*
X104187500Y-81364000D01*
X103837500Y-81964000D02*
X104587500Y-81964000D01*
X104187500Y-81364000D02*
X103837500Y-81964000D01*
X103487500Y-78964000D02*
X104887500Y-78964000D01*
X103487500Y-79164000D02*
X104887500Y-79164000D01*
X103487500Y-79364000D02*
X104887500Y-79364000D01*
X103487500Y-79564000D02*
X104887500Y-79564000D01*
X104887500Y-78964000D02*
X104887500Y-83764000D01*
X103487500Y-83764000D02*
X104887500Y-83764000D01*
X103487500Y-78964000D02*
X103487500Y-83764000D01*
X133096000Y-62908000D02*
X133096000Y-63208000D01*
X133096000Y-62308000D02*
X133096000Y-62008000D01*
X132746000Y-62308000D02*
X133496000Y-62308000D01*
X133496000Y-62908000D02*
X133096000Y-62308000D01*
X132746000Y-62908000D02*
X133496000Y-62908000D01*
X133096000Y-62308000D02*
X132746000Y-62908000D01*
X132396000Y-59908000D02*
X133796000Y-59908000D01*
X132396000Y-60108000D02*
X133796000Y-60108000D01*
X132396000Y-60308000D02*
X133796000Y-60308000D01*
X132396000Y-60508000D02*
X133796000Y-60508000D01*
X133796000Y-59908000D02*
X133796000Y-64708000D01*
X132396000Y-64708000D02*
X133796000Y-64708000D01*
X132396000Y-59908000D02*
X132396000Y-64708000D01*
X113792000Y-62784000D02*
X113792000Y-63084000D01*
X113792000Y-62184000D02*
X113792000Y-61884000D01*
X113442000Y-62184000D02*
X114192000Y-62184000D01*
X114192000Y-62784000D02*
X113792000Y-62184000D01*
X113442000Y-62784000D02*
X114192000Y-62784000D01*
X113792000Y-62184000D02*
X113442000Y-62784000D01*
X113092000Y-59784000D02*
X114492000Y-59784000D01*
X113092000Y-59984000D02*
X114492000Y-59984000D01*
X113092000Y-60184000D02*
X114492000Y-60184000D01*
X113092000Y-60384000D02*
X114492000Y-60384000D01*
X114492000Y-59784000D02*
X114492000Y-64584000D01*
X113092000Y-64584000D02*
X114492000Y-64584000D01*
X113092000Y-59784000D02*
X113092000Y-64584000D01*
X85852000Y-43864000D02*
X85852000Y-44164000D01*
X85852000Y-43264000D02*
X85852000Y-42964000D01*
X85502000Y-43264000D02*
X86252000Y-43264000D01*
X86252000Y-43864000D02*
X85852000Y-43264000D01*
X85502000Y-43864000D02*
X86252000Y-43864000D01*
X85852000Y-43264000D02*
X85502000Y-43864000D01*
X85152000Y-40864000D02*
X86552000Y-40864000D01*
X85152000Y-41064000D02*
X86552000Y-41064000D01*
X85152000Y-41264000D02*
X86552000Y-41264000D01*
X85152000Y-41464000D02*
X86552000Y-41464000D01*
X86552000Y-40864000D02*
X86552000Y-45664000D01*
X85152000Y-45664000D02*
X86552000Y-45664000D01*
X85152000Y-40864000D02*
X85152000Y-45664000D01*
X87518750Y-81964000D02*
X87518750Y-82264000D01*
X87518750Y-81364000D02*
X87518750Y-81064000D01*
X87168750Y-81364000D02*
X87918750Y-81364000D01*
X87918750Y-81964000D02*
X87518750Y-81364000D01*
X87168750Y-81964000D02*
X87918750Y-81964000D01*
X87518750Y-81364000D02*
X87168750Y-81964000D01*
X86818750Y-78964000D02*
X88218750Y-78964000D01*
X86818750Y-79164000D02*
X88218750Y-79164000D01*
X86818750Y-79364000D02*
X88218750Y-79364000D01*
X86818750Y-79564000D02*
X88218750Y-79564000D01*
X88218750Y-78964000D02*
X88218750Y-83764000D01*
X86818750Y-83764000D02*
X88218750Y-83764000D01*
X86818750Y-78964000D02*
X86818750Y-83764000D01*
X104648000Y-43864000D02*
X104648000Y-44164000D01*
X104648000Y-43264000D02*
X104648000Y-42964000D01*
X104298000Y-43264000D02*
X105048000Y-43264000D01*
X105048000Y-43864000D02*
X104648000Y-43264000D01*
X104298000Y-43864000D02*
X105048000Y-43864000D01*
X104648000Y-43264000D02*
X104298000Y-43864000D01*
X103948000Y-40864000D02*
X105348000Y-40864000D01*
X103948000Y-41064000D02*
X105348000Y-41064000D01*
X103948000Y-41264000D02*
X105348000Y-41264000D01*
X103948000Y-41464000D02*
X105348000Y-41464000D01*
X105348000Y-40864000D02*
X105348000Y-45664000D01*
X103948000Y-45664000D02*
X105348000Y-45664000D01*
X103948000Y-40864000D02*
X103948000Y-45664000D01*
X37512500Y-63262500D02*
X37512500Y-63562500D01*
X37512500Y-62662500D02*
X37512500Y-62362500D01*
X37162500Y-62662500D02*
X37912500Y-62662500D01*
X37912500Y-63262500D02*
X37512500Y-62662500D01*
X37162500Y-63262500D02*
X37912500Y-63262500D01*
X37512500Y-62662500D02*
X37162500Y-63262500D01*
X36812500Y-60262500D02*
X38212500Y-60262500D01*
X36812500Y-60462500D02*
X38212500Y-60462500D01*
X36812500Y-60662500D02*
X38212500Y-60662500D01*
X36812500Y-60862500D02*
X38212500Y-60862500D01*
X38212500Y-60262500D02*
X38212500Y-65062500D01*
X36812500Y-65062500D02*
X38212500Y-65062500D01*
X36812500Y-60262500D02*
X36812500Y-65062500D01*
X29194000Y-45038000D02*
X29194000Y-45338000D01*
X29194000Y-44438000D02*
X29194000Y-44138000D01*
X28844000Y-44438000D02*
X29594000Y-44438000D01*
X29594000Y-45038000D02*
X29194000Y-44438000D01*
X28844000Y-45038000D02*
X29594000Y-45038000D01*
X29194000Y-44438000D02*
X28844000Y-45038000D01*
X28494000Y-42038000D02*
X29894000Y-42038000D01*
X28494000Y-42238000D02*
X29894000Y-42238000D01*
X28494000Y-42438000D02*
X29894000Y-42438000D01*
X28494000Y-42638000D02*
X29894000Y-42638000D01*
X29894000Y-42038000D02*
X29894000Y-46838000D01*
X28494000Y-46838000D02*
X29894000Y-46838000D01*
X28494000Y-42038000D02*
X28494000Y-46838000D01*
X47244000Y-43864000D02*
X47244000Y-44164000D01*
X47244000Y-43264000D02*
X47244000Y-42964000D01*
X46894000Y-43264000D02*
X47644000Y-43264000D01*
X47644000Y-43864000D02*
X47244000Y-43264000D01*
X46894000Y-43864000D02*
X47644000Y-43864000D01*
X47244000Y-43264000D02*
X46894000Y-43864000D01*
X46544000Y-40864000D02*
X47944000Y-40864000D01*
X46544000Y-41064000D02*
X47944000Y-41064000D01*
X46544000Y-41264000D02*
X47944000Y-41264000D01*
X46544000Y-41464000D02*
X47944000Y-41464000D01*
X47944000Y-40864000D02*
X47944000Y-45664000D01*
X46544000Y-45664000D02*
X47944000Y-45664000D01*
X46544000Y-40864000D02*
X46544000Y-45664000D01*
X123952000Y-43864000D02*
X123952000Y-44164000D01*
X123952000Y-43264000D02*
X123952000Y-42964000D01*
X123602000Y-43264000D02*
X124352000Y-43264000D01*
X124352000Y-43864000D02*
X123952000Y-43264000D01*
X123602000Y-43864000D02*
X124352000Y-43864000D01*
X123952000Y-43264000D02*
X123602000Y-43864000D01*
X123252000Y-40864000D02*
X124652000Y-40864000D01*
X123252000Y-41064000D02*
X124652000Y-41064000D01*
X123252000Y-41264000D02*
X124652000Y-41264000D01*
X123252000Y-41464000D02*
X124652000Y-41464000D01*
X124652000Y-40864000D02*
X124652000Y-45664000D01*
X123252000Y-45664000D02*
X124652000Y-45664000D01*
X123252000Y-40864000D02*
X123252000Y-45664000D01*
X123237500Y-81964000D02*
X123237500Y-82264000D01*
X123237500Y-81364000D02*
X123237500Y-81064000D01*
X122887500Y-81364000D02*
X123637500Y-81364000D01*
X123637500Y-81964000D02*
X123237500Y-81364000D01*
X122887500Y-81964000D02*
X123637500Y-81964000D01*
X123237500Y-81364000D02*
X122887500Y-81964000D01*
X122537500Y-78964000D02*
X123937500Y-78964000D01*
X122537500Y-79164000D02*
X123937500Y-79164000D01*
X122537500Y-79364000D02*
X123937500Y-79364000D01*
X122537500Y-79564000D02*
X123937500Y-79564000D01*
X123937500Y-78964000D02*
X123937500Y-83764000D01*
X122537500Y-83764000D02*
X123937500Y-83764000D01*
X122537500Y-78964000D02*
X122537500Y-83764000D01*
X75692000Y-62784000D02*
X75692000Y-63084000D01*
X75692000Y-62184000D02*
X75692000Y-61884000D01*
X75342000Y-62184000D02*
X76092000Y-62184000D01*
X76092000Y-62784000D02*
X75692000Y-62184000D01*
X75342000Y-62784000D02*
X76092000Y-62784000D01*
X75692000Y-62184000D02*
X75342000Y-62784000D01*
X74992000Y-59784000D02*
X76392000Y-59784000D01*
X74992000Y-59984000D02*
X76392000Y-59984000D01*
X74992000Y-60184000D02*
X76392000Y-60184000D01*
X74992000Y-60384000D02*
X76392000Y-60384000D01*
X76392000Y-59784000D02*
X76392000Y-64584000D01*
X74992000Y-64584000D02*
X76392000Y-64584000D01*
X74992000Y-59784000D02*
X74992000Y-64584000D01*
X56896000Y-62660000D02*
X56896000Y-62960000D01*
X56896000Y-62060000D02*
X56896000Y-61760000D01*
X56546000Y-62060000D02*
X57296000Y-62060000D01*
X57296000Y-62660000D02*
X56896000Y-62060000D01*
X56546000Y-62660000D02*
X57296000Y-62660000D01*
X56896000Y-62060000D02*
X56546000Y-62660000D01*
X56196000Y-59660000D02*
X57596000Y-59660000D01*
X56196000Y-59860000D02*
X57596000Y-59860000D01*
X56196000Y-60060000D02*
X57596000Y-60060000D01*
X56196000Y-60260000D02*
X57596000Y-60260000D01*
X57596000Y-59660000D02*
X57596000Y-64460000D01*
X56196000Y-64460000D02*
X57596000Y-64460000D01*
X56196000Y-59660000D02*
X56196000Y-64460000D01*
D11*
X77160538Y-78518380D02*
X44140538Y-78518380D01*
X77160538Y-96298380D02*
X77160538Y-78518380D01*
X44140538Y-96298380D02*
X77160538Y-96298380D01*
X44140538Y-78518380D02*
X44140538Y-96298380D01*
D12*
X81028750Y-86112000D02*
X82243750Y-86112000D01*
X77068750Y-86052000D02*
X74808750Y-86052000D01*
X77068750Y-85552000D02*
X74808750Y-85552000D01*
X78668750Y-82952000D02*
X78668750Y-81952000D01*
X77068750Y-82952000D02*
X78668750Y-82952000D01*
X77068750Y-81952000D02*
X77068750Y-82952000D01*
X78668750Y-81952000D02*
X77068750Y-81952000D01*
X78668750Y-85552000D02*
X78668750Y-86552000D01*
X77068750Y-85552000D02*
X78668750Y-85552000D01*
X77068750Y-86552000D02*
X77068750Y-85552000D01*
X78668750Y-86552000D02*
X77068750Y-86552000D01*
X81028750Y-81192000D02*
X81028750Y-82112000D01*
X81028750Y-87312000D02*
X81028750Y-86392000D01*
X79168750Y-83752000D02*
X74808750Y-83752000D01*
X79168750Y-84752000D02*
X79168750Y-83752000D01*
X74808750Y-84752000D02*
X79168750Y-84752000D01*
X81028750Y-82112000D02*
X81028750Y-82392000D01*
X82628750Y-82112000D02*
X81028750Y-82112000D01*
X82628750Y-81192000D02*
X82628750Y-82112000D01*
X74808750Y-81192000D02*
X82628750Y-81192000D01*
X74808750Y-87312000D02*
X74808750Y-81192000D01*
X82628750Y-87312000D02*
X74808750Y-87312000D01*
X82628750Y-86392000D02*
X82628750Y-87312000D01*
X81028750Y-86392000D02*
X82628750Y-86392000D01*
X81028750Y-86112000D02*
X81028750Y-86392000D01*
D10*
X94996000Y-62784000D02*
X94996000Y-63084000D01*
X94996000Y-62184000D02*
X94996000Y-61884000D01*
X94646000Y-62184000D02*
X95396000Y-62184000D01*
X95396000Y-62784000D02*
X94996000Y-62184000D01*
X94646000Y-62784000D02*
X95396000Y-62784000D01*
X94996000Y-62184000D02*
X94646000Y-62784000D01*
X94296000Y-59784000D02*
X95696000Y-59784000D01*
X94296000Y-59984000D02*
X95696000Y-59984000D01*
X94296000Y-60184000D02*
X95696000Y-60184000D01*
X94296000Y-60384000D02*
X95696000Y-60384000D01*
X95696000Y-59784000D02*
X95696000Y-64584000D01*
X94296000Y-64584000D02*
X95696000Y-64584000D01*
X94296000Y-59784000D02*
X94296000Y-64584000D01*
D12*
X34990000Y-34210000D02*
X41450000Y-34210000D01*
X34990000Y-38740000D02*
X34990000Y-36140000D01*
X34990000Y-40670000D02*
X41450000Y-40670000D01*
X41450000Y-38740000D02*
X41450000Y-36140000D01*
X34990000Y-40640000D02*
X34990000Y-40670000D01*
X34990000Y-34210000D02*
X34990000Y-34240000D01*
X41450000Y-34210000D02*
X41450000Y-34240000D01*
X41450000Y-40670000D02*
X41450000Y-40640000D01*
D10*
X23368000Y-24560000D02*
X23368000Y-24860000D01*
X23368000Y-23960000D02*
X23368000Y-23660000D01*
X23018000Y-23960000D02*
X23768000Y-23960000D01*
X23768000Y-24560000D02*
X23368000Y-23960000D01*
X23018000Y-24560000D02*
X23768000Y-24560000D01*
X23368000Y-23960000D02*
X23018000Y-24560000D01*
X22668000Y-21560000D02*
X24068000Y-21560000D01*
X22668000Y-21760000D02*
X24068000Y-21760000D01*
X22668000Y-21960000D02*
X24068000Y-21960000D01*
X22668000Y-22160000D02*
X24068000Y-22160000D01*
X24068000Y-21560000D02*
X24068000Y-26360000D01*
X22668000Y-26360000D02*
X24068000Y-26360000D01*
X22668000Y-21560000D02*
X22668000Y-26360000D01*
X42672000Y-24560000D02*
X42672000Y-24860000D01*
X42672000Y-23960000D02*
X42672000Y-23660000D01*
X42322000Y-23960000D02*
X43072000Y-23960000D01*
X43072000Y-24560000D02*
X42672000Y-23960000D01*
X42322000Y-24560000D02*
X43072000Y-24560000D01*
X42672000Y-23960000D02*
X42322000Y-24560000D01*
X41972000Y-21560000D02*
X43372000Y-21560000D01*
X41972000Y-21760000D02*
X43372000Y-21760000D01*
X41972000Y-21960000D02*
X43372000Y-21960000D01*
X41972000Y-22160000D02*
X43372000Y-22160000D01*
X43372000Y-21560000D02*
X43372000Y-26360000D01*
X41972000Y-26360000D02*
X43372000Y-26360000D01*
X41972000Y-21560000D02*
X41972000Y-26360000D01*
X80772000Y-24560000D02*
X80772000Y-24860000D01*
X80772000Y-23960000D02*
X80772000Y-23660000D01*
X80422000Y-23960000D02*
X81172000Y-23960000D01*
X81172000Y-24560000D02*
X80772000Y-23960000D01*
X80422000Y-24560000D02*
X81172000Y-24560000D01*
X80772000Y-23960000D02*
X80422000Y-24560000D01*
X80072000Y-21560000D02*
X81472000Y-21560000D01*
X80072000Y-21760000D02*
X81472000Y-21760000D01*
X80072000Y-21960000D02*
X81472000Y-21960000D01*
X80072000Y-22160000D02*
X81472000Y-22160000D01*
X81472000Y-21560000D02*
X81472000Y-26360000D01*
X80072000Y-26360000D02*
X81472000Y-26360000D01*
X80072000Y-21560000D02*
X80072000Y-26360000D01*
X61976000Y-24560000D02*
X61976000Y-24860000D01*
X61976000Y-23960000D02*
X61976000Y-23660000D01*
X61626000Y-23960000D02*
X62376000Y-23960000D01*
X62376000Y-24560000D02*
X61976000Y-23960000D01*
X61626000Y-24560000D02*
X62376000Y-24560000D01*
X61976000Y-23960000D02*
X61626000Y-24560000D01*
X61276000Y-21560000D02*
X62676000Y-21560000D01*
X61276000Y-21760000D02*
X62676000Y-21760000D01*
X61276000Y-21960000D02*
X62676000Y-21960000D01*
X61276000Y-22160000D02*
X62676000Y-22160000D01*
X62676000Y-21560000D02*
X62676000Y-26360000D01*
X61276000Y-26360000D02*
X62676000Y-26360000D01*
X61276000Y-21560000D02*
X61276000Y-26360000D01*
D13*
X120588666Y-23743333D02*
X119888666Y-23743333D01*
X119888666Y-23910000D01*
X119922000Y-24010000D01*
X119988666Y-24076666D01*
X120055333Y-24110000D01*
X120188666Y-24143333D01*
X120288666Y-24143333D01*
X120422000Y-24110000D01*
X120488666Y-24076666D01*
X120555333Y-24010000D01*
X120588666Y-23910000D01*
X120588666Y-23743333D01*
X119888666Y-24743333D02*
X119888666Y-24610000D01*
X119922000Y-24543333D01*
X119955333Y-24510000D01*
X120055333Y-24443333D01*
X120188666Y-24410000D01*
X120455333Y-24410000D01*
X120522000Y-24443333D01*
X120555333Y-24476666D01*
X120588666Y-24543333D01*
X120588666Y-24676666D01*
X120555333Y-24743333D01*
X120522000Y-24776666D01*
X120455333Y-24810000D01*
X120288666Y-24810000D01*
X120222000Y-24776666D01*
X120188666Y-24743333D01*
X120155333Y-24676666D01*
X120155333Y-24543333D01*
X120188666Y-24476666D01*
X120222000Y-24443333D01*
X120288666Y-24410000D01*
X101792666Y-23743333D02*
X101092666Y-23743333D01*
X101092666Y-23910000D01*
X101126000Y-24010000D01*
X101192666Y-24076666D01*
X101259333Y-24110000D01*
X101392666Y-24143333D01*
X101492666Y-24143333D01*
X101626000Y-24110000D01*
X101692666Y-24076666D01*
X101759333Y-24010000D01*
X101792666Y-23910000D01*
X101792666Y-23743333D01*
X101092666Y-24776666D02*
X101092666Y-24443333D01*
X101426000Y-24410000D01*
X101392666Y-24443333D01*
X101359333Y-24510000D01*
X101359333Y-24676666D01*
X101392666Y-24743333D01*
X101426000Y-24776666D01*
X101492666Y-24810000D01*
X101659333Y-24810000D01*
X101726000Y-24776666D01*
X101759333Y-24743333D01*
X101792666Y-24676666D01*
X101792666Y-24510000D01*
X101759333Y-24443333D01*
X101726000Y-24410000D01*
X68264666Y-43047333D02*
X67564666Y-43047333D01*
X67564666Y-43214000D01*
X67598000Y-43314000D01*
X67664666Y-43380666D01*
X67731333Y-43414000D01*
X67864666Y-43447333D01*
X67964666Y-43447333D01*
X68098000Y-43414000D01*
X68164666Y-43380666D01*
X68231333Y-43314000D01*
X68264666Y-43214000D01*
X68264666Y-43047333D01*
X68264666Y-43780666D02*
X68264666Y-43914000D01*
X68231333Y-43980666D01*
X68198000Y-44014000D01*
X68098000Y-44080666D01*
X67964666Y-44114000D01*
X67698000Y-44114000D01*
X67631333Y-44080666D01*
X67598000Y-44047333D01*
X67564666Y-43980666D01*
X67564666Y-43847333D01*
X67598000Y-43780666D01*
X67631333Y-43747333D01*
X67698000Y-43714000D01*
X67864666Y-43714000D01*
X67931333Y-43747333D01*
X67964666Y-43780666D01*
X67998000Y-43847333D01*
X67998000Y-43980666D01*
X67964666Y-44047333D01*
X67931333Y-44080666D01*
X67864666Y-44114000D01*
X105904166Y-80814000D02*
X105204166Y-80814000D01*
X105204166Y-80980666D01*
X105237500Y-81080666D01*
X105304166Y-81147333D01*
X105370833Y-81180666D01*
X105504166Y-81214000D01*
X105604166Y-81214000D01*
X105737500Y-81180666D01*
X105804166Y-81147333D01*
X105870833Y-81080666D01*
X105904166Y-80980666D01*
X105904166Y-80814000D01*
X105270833Y-81480666D02*
X105237500Y-81514000D01*
X105204166Y-81580666D01*
X105204166Y-81747333D01*
X105237500Y-81814000D01*
X105270833Y-81847333D01*
X105337500Y-81880666D01*
X105404166Y-81880666D01*
X105504166Y-81847333D01*
X105904166Y-81447333D01*
X105904166Y-81880666D01*
X105204166Y-82314000D02*
X105204166Y-82380666D01*
X105237500Y-82447333D01*
X105270833Y-82480666D01*
X105337500Y-82514000D01*
X105470833Y-82547333D01*
X105637500Y-82547333D01*
X105770833Y-82514000D01*
X105837500Y-82480666D01*
X105870833Y-82447333D01*
X105904166Y-82380666D01*
X105904166Y-82314000D01*
X105870833Y-82247333D01*
X105837500Y-82214000D01*
X105770833Y-82180666D01*
X105637500Y-82147333D01*
X105470833Y-82147333D01*
X105337500Y-82180666D01*
X105270833Y-82214000D01*
X105237500Y-82247333D01*
X105204166Y-82314000D01*
X134812666Y-61758000D02*
X134112666Y-61758000D01*
X134112666Y-61924666D01*
X134146000Y-62024666D01*
X134212666Y-62091333D01*
X134279333Y-62124666D01*
X134412666Y-62158000D01*
X134512666Y-62158000D01*
X134646000Y-62124666D01*
X134712666Y-62091333D01*
X134779333Y-62024666D01*
X134812666Y-61924666D01*
X134812666Y-61758000D01*
X134812666Y-62824666D02*
X134812666Y-62424666D01*
X134812666Y-62624666D02*
X134112666Y-62624666D01*
X134212666Y-62558000D01*
X134279333Y-62491333D01*
X134312666Y-62424666D01*
X134412666Y-63224666D02*
X134379333Y-63158000D01*
X134346000Y-63124666D01*
X134279333Y-63091333D01*
X134246000Y-63091333D01*
X134179333Y-63124666D01*
X134146000Y-63158000D01*
X134112666Y-63224666D01*
X134112666Y-63358000D01*
X134146000Y-63424666D01*
X134179333Y-63458000D01*
X134246000Y-63491333D01*
X134279333Y-63491333D01*
X134346000Y-63458000D01*
X134379333Y-63424666D01*
X134412666Y-63358000D01*
X134412666Y-63224666D01*
X134446000Y-63158000D01*
X134479333Y-63124666D01*
X134546000Y-63091333D01*
X134679333Y-63091333D01*
X134746000Y-63124666D01*
X134779333Y-63158000D01*
X134812666Y-63224666D01*
X134812666Y-63358000D01*
X134779333Y-63424666D01*
X134746000Y-63458000D01*
X134679333Y-63491333D01*
X134546000Y-63491333D01*
X134479333Y-63458000D01*
X134446000Y-63424666D01*
X134412666Y-63358000D01*
X115508666Y-61634000D02*
X114808666Y-61634000D01*
X114808666Y-61800666D01*
X114842000Y-61900666D01*
X114908666Y-61967333D01*
X114975333Y-62000666D01*
X115108666Y-62034000D01*
X115208666Y-62034000D01*
X115342000Y-62000666D01*
X115408666Y-61967333D01*
X115475333Y-61900666D01*
X115508666Y-61800666D01*
X115508666Y-61634000D01*
X115508666Y-62700666D02*
X115508666Y-62300666D01*
X115508666Y-62500666D02*
X114808666Y-62500666D01*
X114908666Y-62434000D01*
X114975333Y-62367333D01*
X115008666Y-62300666D01*
X114808666Y-62934000D02*
X114808666Y-63400666D01*
X115508666Y-63100666D01*
X87568666Y-42714000D02*
X86868666Y-42714000D01*
X86868666Y-42880666D01*
X86902000Y-42980666D01*
X86968666Y-43047333D01*
X87035333Y-43080666D01*
X87168666Y-43114000D01*
X87268666Y-43114000D01*
X87402000Y-43080666D01*
X87468666Y-43047333D01*
X87535333Y-42980666D01*
X87568666Y-42880666D01*
X87568666Y-42714000D01*
X87568666Y-43780666D02*
X87568666Y-43380666D01*
X87568666Y-43580666D02*
X86868666Y-43580666D01*
X86968666Y-43514000D01*
X87035333Y-43447333D01*
X87068666Y-43380666D01*
X86868666Y-44214000D02*
X86868666Y-44280666D01*
X86902000Y-44347333D01*
X86935333Y-44380666D01*
X87002000Y-44414000D01*
X87135333Y-44447333D01*
X87302000Y-44447333D01*
X87435333Y-44414000D01*
X87502000Y-44380666D01*
X87535333Y-44347333D01*
X87568666Y-44280666D01*
X87568666Y-44214000D01*
X87535333Y-44147333D01*
X87502000Y-44114000D01*
X87435333Y-44080666D01*
X87302000Y-44047333D01*
X87135333Y-44047333D01*
X87002000Y-44080666D01*
X86935333Y-44114000D01*
X86902000Y-44147333D01*
X86868666Y-44214000D01*
X89235416Y-80814000D02*
X88535416Y-80814000D01*
X88535416Y-80980666D01*
X88568750Y-81080666D01*
X88635416Y-81147333D01*
X88702083Y-81180666D01*
X88835416Y-81214000D01*
X88935416Y-81214000D01*
X89068750Y-81180666D01*
X89135416Y-81147333D01*
X89202083Y-81080666D01*
X89235416Y-80980666D01*
X89235416Y-80814000D01*
X89235416Y-81880666D02*
X89235416Y-81480666D01*
X89235416Y-81680666D02*
X88535416Y-81680666D01*
X88635416Y-81614000D01*
X88702083Y-81547333D01*
X88735416Y-81480666D01*
X89235416Y-82214000D02*
X89235416Y-82347333D01*
X89202083Y-82414000D01*
X89168750Y-82447333D01*
X89068750Y-82514000D01*
X88935416Y-82547333D01*
X88668750Y-82547333D01*
X88602083Y-82514000D01*
X88568750Y-82480666D01*
X88535416Y-82414000D01*
X88535416Y-82280666D01*
X88568750Y-82214000D01*
X88602083Y-82180666D01*
X88668750Y-82147333D01*
X88835416Y-82147333D01*
X88902083Y-82180666D01*
X88935416Y-82214000D01*
X88968750Y-82280666D01*
X88968750Y-82414000D01*
X88935416Y-82480666D01*
X88902083Y-82514000D01*
X88835416Y-82547333D01*
X106364666Y-42714000D02*
X105664666Y-42714000D01*
X105664666Y-42880666D01*
X105698000Y-42980666D01*
X105764666Y-43047333D01*
X105831333Y-43080666D01*
X105964666Y-43114000D01*
X106064666Y-43114000D01*
X106198000Y-43080666D01*
X106264666Y-43047333D01*
X106331333Y-42980666D01*
X106364666Y-42880666D01*
X106364666Y-42714000D01*
X106364666Y-43780666D02*
X106364666Y-43380666D01*
X106364666Y-43580666D02*
X105664666Y-43580666D01*
X105764666Y-43514000D01*
X105831333Y-43447333D01*
X105864666Y-43380666D01*
X106364666Y-44447333D02*
X106364666Y-44047333D01*
X106364666Y-44247333D02*
X105664666Y-44247333D01*
X105764666Y-44180666D01*
X105831333Y-44114000D01*
X105864666Y-44047333D01*
X39229166Y-62112500D02*
X38529166Y-62112500D01*
X38529166Y-62279166D01*
X38562500Y-62379166D01*
X38629166Y-62445833D01*
X38695833Y-62479166D01*
X38829166Y-62512500D01*
X38929166Y-62512500D01*
X39062500Y-62479166D01*
X39129166Y-62445833D01*
X39195833Y-62379166D01*
X39229166Y-62279166D01*
X39229166Y-62112500D01*
X39229166Y-63179166D02*
X39229166Y-62779166D01*
X39229166Y-62979166D02*
X38529166Y-62979166D01*
X38629166Y-62912500D01*
X38695833Y-62845833D01*
X38729166Y-62779166D01*
X38529166Y-63412500D02*
X38529166Y-63845833D01*
X38795833Y-63612500D01*
X38795833Y-63712500D01*
X38829166Y-63779166D01*
X38862500Y-63812500D01*
X38929166Y-63845833D01*
X39095833Y-63845833D01*
X39162500Y-63812500D01*
X39195833Y-63779166D01*
X39229166Y-63712500D01*
X39229166Y-63512500D01*
X39195833Y-63445833D01*
X39162500Y-63412500D01*
X30910666Y-44221333D02*
X30210666Y-44221333D01*
X30210666Y-44388000D01*
X30244000Y-44488000D01*
X30310666Y-44554666D01*
X30377333Y-44588000D01*
X30510666Y-44621333D01*
X30610666Y-44621333D01*
X30744000Y-44588000D01*
X30810666Y-44554666D01*
X30877333Y-44488000D01*
X30910666Y-44388000D01*
X30910666Y-44221333D01*
X30210666Y-44854666D02*
X30210666Y-45321333D01*
X30910666Y-45021333D01*
X48960666Y-43047333D02*
X48260666Y-43047333D01*
X48260666Y-43214000D01*
X48294000Y-43314000D01*
X48360666Y-43380666D01*
X48427333Y-43414000D01*
X48560666Y-43447333D01*
X48660666Y-43447333D01*
X48794000Y-43414000D01*
X48860666Y-43380666D01*
X48927333Y-43314000D01*
X48960666Y-43214000D01*
X48960666Y-43047333D01*
X48560666Y-43847333D02*
X48527333Y-43780666D01*
X48494000Y-43747333D01*
X48427333Y-43714000D01*
X48394000Y-43714000D01*
X48327333Y-43747333D01*
X48294000Y-43780666D01*
X48260666Y-43847333D01*
X48260666Y-43980666D01*
X48294000Y-44047333D01*
X48327333Y-44080666D01*
X48394000Y-44114000D01*
X48427333Y-44114000D01*
X48494000Y-44080666D01*
X48527333Y-44047333D01*
X48560666Y-43980666D01*
X48560666Y-43847333D01*
X48594000Y-43780666D01*
X48627333Y-43747333D01*
X48694000Y-43714000D01*
X48827333Y-43714000D01*
X48894000Y-43747333D01*
X48927333Y-43780666D01*
X48960666Y-43847333D01*
X48960666Y-43980666D01*
X48927333Y-44047333D01*
X48894000Y-44080666D01*
X48827333Y-44114000D01*
X48694000Y-44114000D01*
X48627333Y-44080666D01*
X48594000Y-44047333D01*
X48560666Y-43980666D01*
X125668666Y-42714000D02*
X124968666Y-42714000D01*
X124968666Y-42880666D01*
X125002000Y-42980666D01*
X125068666Y-43047333D01*
X125135333Y-43080666D01*
X125268666Y-43114000D01*
X125368666Y-43114000D01*
X125502000Y-43080666D01*
X125568666Y-43047333D01*
X125635333Y-42980666D01*
X125668666Y-42880666D01*
X125668666Y-42714000D01*
X125668666Y-43780666D02*
X125668666Y-43380666D01*
X125668666Y-43580666D02*
X124968666Y-43580666D01*
X125068666Y-43514000D01*
X125135333Y-43447333D01*
X125168666Y-43380666D01*
X125035333Y-44047333D02*
X125002000Y-44080666D01*
X124968666Y-44147333D01*
X124968666Y-44314000D01*
X125002000Y-44380666D01*
X125035333Y-44414000D01*
X125102000Y-44447333D01*
X125168666Y-44447333D01*
X125268666Y-44414000D01*
X125668666Y-44014000D01*
X125668666Y-44447333D01*
X124954166Y-80814000D02*
X124254166Y-80814000D01*
X124254166Y-80980666D01*
X124287500Y-81080666D01*
X124354166Y-81147333D01*
X124420833Y-81180666D01*
X124554166Y-81214000D01*
X124654166Y-81214000D01*
X124787500Y-81180666D01*
X124854166Y-81147333D01*
X124920833Y-81080666D01*
X124954166Y-80980666D01*
X124954166Y-80814000D01*
X124320833Y-81480666D02*
X124287500Y-81514000D01*
X124254166Y-81580666D01*
X124254166Y-81747333D01*
X124287500Y-81814000D01*
X124320833Y-81847333D01*
X124387500Y-81880666D01*
X124454166Y-81880666D01*
X124554166Y-81847333D01*
X124954166Y-81447333D01*
X124954166Y-81880666D01*
X124954166Y-82547333D02*
X124954166Y-82147333D01*
X124954166Y-82347333D02*
X124254166Y-82347333D01*
X124354166Y-82280666D01*
X124420833Y-82214000D01*
X124454166Y-82147333D01*
X77408666Y-61634000D02*
X76708666Y-61634000D01*
X76708666Y-61800666D01*
X76742000Y-61900666D01*
X76808666Y-61967333D01*
X76875333Y-62000666D01*
X77008666Y-62034000D01*
X77108666Y-62034000D01*
X77242000Y-62000666D01*
X77308666Y-61967333D01*
X77375333Y-61900666D01*
X77408666Y-61800666D01*
X77408666Y-61634000D01*
X77408666Y-62700666D02*
X77408666Y-62300666D01*
X77408666Y-62500666D02*
X76708666Y-62500666D01*
X76808666Y-62434000D01*
X76875333Y-62367333D01*
X76908666Y-62300666D01*
X76708666Y-63334000D02*
X76708666Y-63000666D01*
X77042000Y-62967333D01*
X77008666Y-63000666D01*
X76975333Y-63067333D01*
X76975333Y-63234000D01*
X77008666Y-63300666D01*
X77042000Y-63334000D01*
X77108666Y-63367333D01*
X77275333Y-63367333D01*
X77342000Y-63334000D01*
X77375333Y-63300666D01*
X77408666Y-63234000D01*
X77408666Y-63067333D01*
X77375333Y-63000666D01*
X77342000Y-62967333D01*
X127936547Y-83283928D02*
X128698452Y-83283928D01*
X130476547Y-83283928D02*
X131238452Y-83283928D01*
X130857500Y-83664880D02*
X130857500Y-82902976D01*
X80311547Y-64233928D02*
X81073452Y-64233928D01*
X82851547Y-64233928D02*
X83613452Y-64233928D01*
X83232500Y-64614880D02*
X83232500Y-63852976D01*
X58612666Y-61510000D02*
X57912666Y-61510000D01*
X57912666Y-61676666D01*
X57946000Y-61776666D01*
X58012666Y-61843333D01*
X58079333Y-61876666D01*
X58212666Y-61910000D01*
X58312666Y-61910000D01*
X58446000Y-61876666D01*
X58512666Y-61843333D01*
X58579333Y-61776666D01*
X58612666Y-61676666D01*
X58612666Y-61510000D01*
X58612666Y-62576666D02*
X58612666Y-62176666D01*
X58612666Y-62376666D02*
X57912666Y-62376666D01*
X58012666Y-62310000D01*
X58079333Y-62243333D01*
X58112666Y-62176666D01*
X58146000Y-63176666D02*
X58612666Y-63176666D01*
X57879333Y-63010000D02*
X58379333Y-62843333D01*
X58379333Y-63276666D01*
X32686547Y-45183928D02*
X33448452Y-45183928D01*
X35226547Y-45183928D02*
X35988452Y-45183928D01*
X35607500Y-45564880D02*
X35607500Y-44802976D01*
X42211547Y-64233928D02*
X42973452Y-64233928D01*
X44751547Y-64233928D02*
X45513452Y-64233928D01*
X45132500Y-64614880D02*
X45132500Y-63852976D01*
X85074047Y-26133928D02*
X85835952Y-26133928D01*
X87614047Y-26133928D02*
X88375952Y-26133928D01*
X87995000Y-26514880D02*
X87995000Y-25752976D01*
X118411547Y-64233928D02*
X119173452Y-64233928D01*
X120951547Y-64233928D02*
X121713452Y-64233928D01*
X121332500Y-64614880D02*
X121332500Y-63852976D01*
X49982442Y-92145570D02*
X49982442Y-92221760D01*
X50020538Y-92297950D01*
X50058633Y-92336046D01*
X50134823Y-92374141D01*
X50287204Y-92412236D01*
X50477680Y-92412236D01*
X50630061Y-92374141D01*
X50706252Y-92336046D01*
X50744347Y-92297950D01*
X50782442Y-92221760D01*
X50782442Y-92145570D01*
X50744347Y-92069379D01*
X50706252Y-92031284D01*
X50630061Y-91993189D01*
X50477680Y-91955093D01*
X50287204Y-91955093D01*
X50134823Y-91993189D01*
X50058633Y-92031284D01*
X50020538Y-92069379D01*
X49982442Y-92145570D01*
X49982442Y-92907474D02*
X49982442Y-92983665D01*
X50020538Y-93059855D01*
X50058633Y-93097950D01*
X50134823Y-93136046D01*
X50287204Y-93174141D01*
X50477680Y-93174141D01*
X50630061Y-93136046D01*
X50706252Y-93097950D01*
X50744347Y-93059855D01*
X50782442Y-92983665D01*
X50782442Y-92907474D01*
X50744347Y-92831284D01*
X50706252Y-92793189D01*
X50630061Y-92755093D01*
X50477680Y-92716998D01*
X50287204Y-92716998D01*
X50134823Y-92755093D01*
X50058633Y-92793189D01*
X50020538Y-92831284D01*
X49982442Y-92907474D01*
X50325299Y-93631284D02*
X50287204Y-93555093D01*
X50249109Y-93516998D01*
X50172918Y-93478903D01*
X50134823Y-93478903D01*
X50058633Y-93516998D01*
X50020538Y-93555093D01*
X49982442Y-93631284D01*
X49982442Y-93783665D01*
X50020538Y-93859855D01*
X50058633Y-93897950D01*
X50134823Y-93936046D01*
X50172918Y-93936046D01*
X50249109Y-93897950D01*
X50287204Y-93859855D01*
X50325299Y-93783665D01*
X50325299Y-93631284D01*
X50363395Y-93555093D01*
X50401490Y-93516998D01*
X50477680Y-93478903D01*
X50630061Y-93478903D01*
X50706252Y-93516998D01*
X50744347Y-93555093D01*
X50782442Y-93631284D01*
X50782442Y-93783665D01*
X50744347Y-93859855D01*
X50706252Y-93897950D01*
X50630061Y-93936046D01*
X50477680Y-93936046D01*
X50401490Y-93897950D01*
X50363395Y-93859855D01*
X50325299Y-93783665D01*
X60282442Y-92145570D02*
X60282442Y-92221760D01*
X60320538Y-92297950D01*
X60358633Y-92336046D01*
X60434823Y-92374141D01*
X60587204Y-92412236D01*
X60777680Y-92412236D01*
X60930061Y-92374141D01*
X61006252Y-92336046D01*
X61044347Y-92297950D01*
X61082442Y-92221760D01*
X61082442Y-92145570D01*
X61044347Y-92069379D01*
X61006252Y-92031284D01*
X60930061Y-91993189D01*
X60777680Y-91955093D01*
X60587204Y-91955093D01*
X60434823Y-91993189D01*
X60358633Y-92031284D01*
X60320538Y-92069379D01*
X60282442Y-92145570D01*
X60358633Y-92716998D02*
X60320538Y-92755093D01*
X60282442Y-92831284D01*
X60282442Y-93021760D01*
X60320538Y-93097950D01*
X60358633Y-93136046D01*
X60434823Y-93174141D01*
X60511014Y-93174141D01*
X60625299Y-93136046D01*
X61082442Y-92678903D01*
X61082442Y-93174141D01*
X60282442Y-93669379D02*
X60282442Y-93745570D01*
X60320538Y-93821760D01*
X60358633Y-93859855D01*
X60434823Y-93897950D01*
X60587204Y-93936046D01*
X60777680Y-93936046D01*
X60930061Y-93897950D01*
X61006252Y-93859855D01*
X61044347Y-93821760D01*
X61082442Y-93745570D01*
X61082442Y-93669379D01*
X61044347Y-93593189D01*
X61006252Y-93555093D01*
X60930061Y-93516998D01*
X60777680Y-93478903D01*
X60587204Y-93478903D01*
X60434823Y-93516998D01*
X60358633Y-93555093D01*
X60320538Y-93593189D01*
X60282442Y-93669379D01*
X57672442Y-92145570D02*
X57672442Y-92221760D01*
X57710538Y-92297950D01*
X57748633Y-92336046D01*
X57824823Y-92374141D01*
X57977204Y-92412236D01*
X58167680Y-92412236D01*
X58320061Y-92374141D01*
X58396252Y-92336046D01*
X58434347Y-92297950D01*
X58472442Y-92221760D01*
X58472442Y-92145570D01*
X58434347Y-92069379D01*
X58396252Y-92031284D01*
X58320061Y-91993189D01*
X58167680Y-91955093D01*
X57977204Y-91955093D01*
X57824823Y-91993189D01*
X57748633Y-92031284D01*
X57710538Y-92069379D01*
X57672442Y-92145570D01*
X58472442Y-93174141D02*
X58472442Y-92716998D01*
X58472442Y-92945570D02*
X57672442Y-92945570D01*
X57786728Y-92869379D01*
X57862918Y-92793189D01*
X57901014Y-92716998D01*
X57672442Y-93440808D02*
X57672442Y-93974141D01*
X58472442Y-93631284D01*
X55170538Y-92259856D02*
X55132442Y-92183665D01*
X55132442Y-92069380D01*
X55170538Y-91955094D01*
X55246728Y-91878903D01*
X55322918Y-91840808D01*
X55475299Y-91802713D01*
X55589585Y-91802713D01*
X55741966Y-91840808D01*
X55818157Y-91878903D01*
X55894347Y-91955094D01*
X55932442Y-92069380D01*
X55932442Y-92145570D01*
X55894347Y-92259856D01*
X55856252Y-92297951D01*
X55589585Y-92297951D01*
X55589585Y-92145570D01*
X55932442Y-92640808D02*
X55132442Y-92640808D01*
X55932442Y-93097951D01*
X55132442Y-93097951D01*
X55932442Y-93478903D02*
X55132442Y-93478903D01*
X55132442Y-93669380D01*
X55170538Y-93783665D01*
X55246728Y-93859856D01*
X55322918Y-93897951D01*
X55475299Y-93936046D01*
X55589585Y-93936046D01*
X55741966Y-93897951D01*
X55818157Y-93859856D01*
X55894347Y-93783665D01*
X55932442Y-93669380D01*
X55932442Y-93478903D01*
X52630538Y-92259856D02*
X52592442Y-92183665D01*
X52592442Y-92069380D01*
X52630538Y-91955094D01*
X52706728Y-91878903D01*
X52782918Y-91840808D01*
X52935299Y-91802713D01*
X53049585Y-91802713D01*
X53201966Y-91840808D01*
X53278157Y-91878903D01*
X53354347Y-91955094D01*
X53392442Y-92069380D01*
X53392442Y-92145570D01*
X53354347Y-92259856D01*
X53316252Y-92297951D01*
X53049585Y-92297951D01*
X53049585Y-92145570D01*
X53392442Y-92640808D02*
X52592442Y-92640808D01*
X53392442Y-93097951D01*
X52592442Y-93097951D01*
X53392442Y-93478903D02*
X52592442Y-93478903D01*
X52592442Y-93669380D01*
X52630538Y-93783665D01*
X52706728Y-93859856D01*
X52782918Y-93897951D01*
X52935299Y-93936046D01*
X53049585Y-93936046D01*
X53201966Y-93897951D01*
X53278157Y-93859856D01*
X53354347Y-93783665D01*
X53392442Y-93669380D01*
X53392442Y-93478903D01*
X62782442Y-92145570D02*
X62782442Y-92221760D01*
X62820538Y-92297950D01*
X62858633Y-92336046D01*
X62934823Y-92374141D01*
X63087204Y-92412236D01*
X63277680Y-92412236D01*
X63430061Y-92374141D01*
X63506252Y-92336046D01*
X63544347Y-92297950D01*
X63582442Y-92221760D01*
X63582442Y-92145570D01*
X63544347Y-92069379D01*
X63506252Y-92031284D01*
X63430061Y-91993189D01*
X63277680Y-91955093D01*
X63087204Y-91955093D01*
X62934823Y-91993189D01*
X62858633Y-92031284D01*
X62820538Y-92069379D01*
X62782442Y-92145570D01*
X62858633Y-92716998D02*
X62820538Y-92755093D01*
X62782442Y-92831284D01*
X62782442Y-93021760D01*
X62820538Y-93097950D01*
X62858633Y-93136046D01*
X62934823Y-93174141D01*
X63011014Y-93174141D01*
X63125299Y-93136046D01*
X63582442Y-92678903D01*
X63582442Y-93174141D01*
X62858633Y-93478903D02*
X62820538Y-93516998D01*
X62782442Y-93593189D01*
X62782442Y-93783665D01*
X62820538Y-93859855D01*
X62858633Y-93897950D01*
X62934823Y-93936046D01*
X63011014Y-93936046D01*
X63125299Y-93897950D01*
X63582442Y-93440808D01*
X63582442Y-93936046D01*
X65282442Y-92145570D02*
X65282442Y-92221760D01*
X65320538Y-92297950D01*
X65358633Y-92336046D01*
X65434823Y-92374141D01*
X65587204Y-92412236D01*
X65777680Y-92412236D01*
X65930061Y-92374141D01*
X66006252Y-92336046D01*
X66044347Y-92297950D01*
X66082442Y-92221760D01*
X66082442Y-92145570D01*
X66044347Y-92069379D01*
X66006252Y-92031284D01*
X65930061Y-91993189D01*
X65777680Y-91955093D01*
X65587204Y-91955093D01*
X65434823Y-91993189D01*
X65358633Y-92031284D01*
X65320538Y-92069379D01*
X65282442Y-92145570D01*
X65358633Y-92716998D02*
X65320538Y-92755093D01*
X65282442Y-92831284D01*
X65282442Y-93021760D01*
X65320538Y-93097950D01*
X65358633Y-93136046D01*
X65434823Y-93174141D01*
X65511014Y-93174141D01*
X65625299Y-93136046D01*
X66082442Y-92678903D01*
X66082442Y-93174141D01*
X65549109Y-93859855D02*
X66082442Y-93859855D01*
X65244347Y-93669379D02*
X65815776Y-93478903D01*
X65815776Y-93974141D01*
X68632442Y-92412236D02*
X68632442Y-91955093D01*
X68632442Y-92183665D02*
X67832442Y-92183665D01*
X67946728Y-92107474D01*
X68022918Y-92031284D01*
X68061014Y-91955093D01*
X67832442Y-92907474D02*
X67832442Y-92983665D01*
X67870538Y-93059855D01*
X67908633Y-93097950D01*
X67984823Y-93136046D01*
X68137204Y-93174141D01*
X68327680Y-93174141D01*
X68480061Y-93136046D01*
X68556252Y-93097950D01*
X68594347Y-93059855D01*
X68632442Y-92983665D01*
X68632442Y-92907474D01*
X68594347Y-92831284D01*
X68556252Y-92793189D01*
X68480061Y-92755093D01*
X68327680Y-92716998D01*
X68137204Y-92716998D01*
X67984823Y-92755093D01*
X67908633Y-92793189D01*
X67870538Y-92831284D01*
X67832442Y-92907474D01*
X67832442Y-93669379D02*
X67832442Y-93745570D01*
X67870538Y-93821760D01*
X67908633Y-93859855D01*
X67984823Y-93897950D01*
X68137204Y-93936046D01*
X68327680Y-93936046D01*
X68480061Y-93897950D01*
X68556252Y-93859855D01*
X68594347Y-93821760D01*
X68632442Y-93745570D01*
X68632442Y-93669379D01*
X68594347Y-93593189D01*
X68556252Y-93555093D01*
X68480061Y-93516998D01*
X68327680Y-93478903D01*
X68137204Y-93478903D01*
X67984823Y-93516998D01*
X67908633Y-93555093D01*
X67870538Y-93593189D01*
X67832442Y-93669379D01*
X73712442Y-92412236D02*
X73712442Y-91955093D01*
X73712442Y-92183665D02*
X72912442Y-92183665D01*
X73026728Y-92107474D01*
X73102918Y-92031284D01*
X73141014Y-91955093D01*
X72912442Y-92907474D02*
X72912442Y-92983665D01*
X72950538Y-93059855D01*
X72988633Y-93097950D01*
X73064823Y-93136046D01*
X73217204Y-93174141D01*
X73407680Y-93174141D01*
X73560061Y-93136046D01*
X73636252Y-93097950D01*
X73674347Y-93059855D01*
X73712442Y-92983665D01*
X73712442Y-92907474D01*
X73674347Y-92831284D01*
X73636252Y-92793189D01*
X73560061Y-92755093D01*
X73407680Y-92716998D01*
X73217204Y-92716998D01*
X73064823Y-92755093D01*
X72988633Y-92793189D01*
X72950538Y-92831284D01*
X72912442Y-92907474D01*
X73179109Y-93859855D02*
X73712442Y-93859855D01*
X72874347Y-93669379D02*
X73445776Y-93478903D01*
X73445776Y-93974141D01*
X71172442Y-81337855D02*
X71172442Y-80880712D01*
X71172442Y-81109284D02*
X70372442Y-81109284D01*
X70486728Y-81033093D01*
X70562918Y-80956903D01*
X70601014Y-80880712D01*
X71172442Y-82099760D02*
X71172442Y-81642617D01*
X71172442Y-81871189D02*
X70372442Y-81871189D01*
X70486728Y-81794998D01*
X70562918Y-81718808D01*
X70601014Y-81642617D01*
X71172442Y-82861665D02*
X71172442Y-82404522D01*
X71172442Y-82633093D02*
X70372442Y-82633093D01*
X70486728Y-82556903D01*
X70562918Y-82480712D01*
X70601014Y-82404522D01*
X68632442Y-81337855D02*
X68632442Y-80880712D01*
X68632442Y-81109284D02*
X67832442Y-81109284D01*
X67946728Y-81033093D01*
X68022918Y-80956903D01*
X68061014Y-80880712D01*
X68632442Y-82099760D02*
X68632442Y-81642617D01*
X68632442Y-81871189D02*
X67832442Y-81871189D01*
X67946728Y-81794998D01*
X68022918Y-81718808D01*
X68061014Y-81642617D01*
X67832442Y-82366427D02*
X67832442Y-82861665D01*
X68137204Y-82594998D01*
X68137204Y-82709284D01*
X68175299Y-82785474D01*
X68213395Y-82823569D01*
X68289585Y-82861665D01*
X68480061Y-82861665D01*
X68556252Y-82823569D01*
X68594347Y-82785474D01*
X68632442Y-82709284D01*
X68632442Y-82480712D01*
X68594347Y-82404522D01*
X68556252Y-82366427D01*
X57672442Y-81071189D02*
X57672442Y-81147379D01*
X57710538Y-81223569D01*
X57748633Y-81261665D01*
X57824823Y-81299760D01*
X57977204Y-81337855D01*
X58167680Y-81337855D01*
X58320061Y-81299760D01*
X58396252Y-81261665D01*
X58434347Y-81223569D01*
X58472442Y-81147379D01*
X58472442Y-81071189D01*
X58434347Y-80994998D01*
X58396252Y-80956903D01*
X58320061Y-80918808D01*
X58167680Y-80880712D01*
X57977204Y-80880712D01*
X57824823Y-80918808D01*
X57748633Y-80956903D01*
X57710538Y-80994998D01*
X57672442Y-81071189D01*
X57672442Y-81604522D02*
X57672442Y-82099760D01*
X57977204Y-81833093D01*
X57977204Y-81947379D01*
X58015299Y-82023569D01*
X58053395Y-82061665D01*
X58129585Y-82099760D01*
X58320061Y-82099760D01*
X58396252Y-82061665D01*
X58434347Y-82023569D01*
X58472442Y-81947379D01*
X58472442Y-81718808D01*
X58434347Y-81642617D01*
X58396252Y-81604522D01*
X58472442Y-82861665D02*
X58472442Y-82404522D01*
X58472442Y-82633093D02*
X57672442Y-82633093D01*
X57786728Y-82556903D01*
X57862918Y-82480712D01*
X57901014Y-82404522D01*
X55132442Y-80804522D02*
X55932442Y-81071189D01*
X55132442Y-81337855D01*
X55856252Y-82061665D02*
X55894347Y-82023569D01*
X55932442Y-81909284D01*
X55932442Y-81833093D01*
X55894347Y-81718808D01*
X55818157Y-81642617D01*
X55741966Y-81604522D01*
X55589585Y-81566427D01*
X55475299Y-81566427D01*
X55322918Y-81604522D01*
X55246728Y-81642617D01*
X55170538Y-81718808D01*
X55132442Y-81833093D01*
X55132442Y-81909284D01*
X55170538Y-82023569D01*
X55208633Y-82061665D01*
X55856252Y-82861665D02*
X55894347Y-82823569D01*
X55932442Y-82709284D01*
X55932442Y-82633093D01*
X55894347Y-82518808D01*
X55818157Y-82442617D01*
X55741966Y-82404522D01*
X55589585Y-82366427D01*
X55475299Y-82366427D01*
X55322918Y-82404522D01*
X55246728Y-82442617D01*
X55170538Y-82518808D01*
X55132442Y-82633093D01*
X55132442Y-82709284D01*
X55170538Y-82823569D01*
X55208633Y-82861665D01*
X50090538Y-81344189D02*
X50052442Y-81267998D01*
X50052442Y-81153713D01*
X50090538Y-81039427D01*
X50166728Y-80963236D01*
X50242918Y-80925141D01*
X50395299Y-80887046D01*
X50509585Y-80887046D01*
X50661966Y-80925141D01*
X50738157Y-80963236D01*
X50814347Y-81039427D01*
X50852442Y-81153713D01*
X50852442Y-81229903D01*
X50814347Y-81344189D01*
X50776252Y-81382284D01*
X50509585Y-81382284D01*
X50509585Y-81229903D01*
X50852442Y-81725141D02*
X50052442Y-81725141D01*
X50852442Y-82182284D01*
X50052442Y-82182284D01*
X50852442Y-82563236D02*
X50052442Y-82563236D01*
X50052442Y-82753713D01*
X50090538Y-82867998D01*
X50166728Y-82944189D01*
X50242918Y-82982284D01*
X50395299Y-83020379D01*
X50509585Y-83020379D01*
X50661966Y-82982284D01*
X50738157Y-82944189D01*
X50814347Y-82867998D01*
X50852442Y-82753713D01*
X50852442Y-82563236D01*
X48312442Y-81382284D02*
X47931490Y-81115617D01*
X48312442Y-80925141D02*
X47512442Y-80925141D01*
X47512442Y-81229903D01*
X47550538Y-81306093D01*
X47588633Y-81344188D01*
X47664823Y-81382284D01*
X47779109Y-81382284D01*
X47855299Y-81344188D01*
X47893395Y-81306093D01*
X47931490Y-81229903D01*
X47931490Y-80925141D01*
X48083871Y-81687045D02*
X48083871Y-82067998D01*
X48312442Y-81610855D02*
X47512442Y-81877522D01*
X48312442Y-82144188D01*
X47512442Y-82334665D02*
X48312442Y-82525141D01*
X47741014Y-82677522D01*
X48312442Y-82829903D01*
X47512442Y-83020379D01*
X60212442Y-81071189D02*
X60212442Y-81147379D01*
X60250538Y-81223569D01*
X60288633Y-81261665D01*
X60364823Y-81299760D01*
X60517204Y-81337855D01*
X60707680Y-81337855D01*
X60860061Y-81299760D01*
X60936252Y-81261665D01*
X60974347Y-81223569D01*
X61012442Y-81147379D01*
X61012442Y-81071189D01*
X60974347Y-80994998D01*
X60936252Y-80956903D01*
X60860061Y-80918808D01*
X60707680Y-80880712D01*
X60517204Y-80880712D01*
X60364823Y-80918808D01*
X60288633Y-80956903D01*
X60250538Y-80994998D01*
X60212442Y-81071189D01*
X60288633Y-81642617D02*
X60250538Y-81680712D01*
X60212442Y-81756903D01*
X60212442Y-81947379D01*
X60250538Y-82023569D01*
X60288633Y-82061665D01*
X60364823Y-82099760D01*
X60441014Y-82099760D01*
X60555299Y-82061665D01*
X61012442Y-81604522D01*
X61012442Y-82099760D01*
X61012442Y-82480712D02*
X61012442Y-82633093D01*
X60974347Y-82709284D01*
X60936252Y-82747379D01*
X60821966Y-82823569D01*
X60669585Y-82861665D01*
X60364823Y-82861665D01*
X60288633Y-82823569D01*
X60250538Y-82785474D01*
X60212442Y-82709284D01*
X60212442Y-82556903D01*
X60250538Y-82480712D01*
X60288633Y-82442617D01*
X60364823Y-82404522D01*
X60555299Y-82404522D01*
X60631490Y-82442617D01*
X60669585Y-82480712D01*
X60707680Y-82556903D01*
X60707680Y-82709284D01*
X60669585Y-82785474D01*
X60631490Y-82823569D01*
X60555299Y-82861665D01*
X62752442Y-81071189D02*
X62752442Y-81147379D01*
X62790538Y-81223569D01*
X62828633Y-81261665D01*
X62904823Y-81299760D01*
X63057204Y-81337855D01*
X63247680Y-81337855D01*
X63400061Y-81299760D01*
X63476252Y-81261665D01*
X63514347Y-81223569D01*
X63552442Y-81147379D01*
X63552442Y-81071189D01*
X63514347Y-80994998D01*
X63476252Y-80956903D01*
X63400061Y-80918808D01*
X63247680Y-80880712D01*
X63057204Y-80880712D01*
X62904823Y-80918808D01*
X62828633Y-80956903D01*
X62790538Y-80994998D01*
X62752442Y-81071189D01*
X62752442Y-81833093D02*
X62752442Y-81909284D01*
X62790538Y-81985474D01*
X62828633Y-82023569D01*
X62904823Y-82061665D01*
X63057204Y-82099760D01*
X63247680Y-82099760D01*
X63400061Y-82061665D01*
X63476252Y-82023569D01*
X63514347Y-81985474D01*
X63552442Y-81909284D01*
X63552442Y-81833093D01*
X63514347Y-81756903D01*
X63476252Y-81718808D01*
X63400061Y-81680712D01*
X63247680Y-81642617D01*
X63057204Y-81642617D01*
X62904823Y-81680712D01*
X62828633Y-81718808D01*
X62790538Y-81756903D01*
X62752442Y-81833093D01*
X62828633Y-82404522D02*
X62790538Y-82442617D01*
X62752442Y-82518808D01*
X62752442Y-82709284D01*
X62790538Y-82785474D01*
X62828633Y-82823569D01*
X62904823Y-82861665D01*
X62981014Y-82861665D01*
X63095299Y-82823569D01*
X63552442Y-82366427D01*
X63552442Y-82861665D01*
X66092442Y-81337855D02*
X66092442Y-80880712D01*
X66092442Y-81109284D02*
X65292442Y-81109284D01*
X65406728Y-81033093D01*
X65482918Y-80956903D01*
X65521014Y-80880712D01*
X66092442Y-82099760D02*
X66092442Y-81642617D01*
X66092442Y-81871189D02*
X65292442Y-81871189D01*
X65406728Y-81794998D01*
X65482918Y-81718808D01*
X65521014Y-81642617D01*
X65292442Y-82823569D02*
X65292442Y-82442617D01*
X65673395Y-82404522D01*
X65635299Y-82442617D01*
X65597204Y-82518808D01*
X65597204Y-82709284D01*
X65635299Y-82785474D01*
X65673395Y-82823569D01*
X65749585Y-82861665D01*
X65940061Y-82861665D01*
X66016252Y-82823569D01*
X66054347Y-82785474D01*
X66092442Y-82709284D01*
X66092442Y-82518808D01*
X66054347Y-82442617D01*
X66016252Y-82404522D01*
X72912442Y-81071189D02*
X72912442Y-81147379D01*
X72950538Y-81223569D01*
X72988633Y-81261665D01*
X73064823Y-81299760D01*
X73217204Y-81337855D01*
X73407680Y-81337855D01*
X73560061Y-81299760D01*
X73636252Y-81261665D01*
X73674347Y-81223569D01*
X73712442Y-81147379D01*
X73712442Y-81071189D01*
X73674347Y-80994998D01*
X73636252Y-80956903D01*
X73560061Y-80918808D01*
X73407680Y-80880712D01*
X73217204Y-80880712D01*
X73064823Y-80918808D01*
X72988633Y-80956903D01*
X72950538Y-80994998D01*
X72912442Y-81071189D01*
X73712442Y-82099760D02*
X73712442Y-81642617D01*
X73712442Y-81871189D02*
X72912442Y-81871189D01*
X73026728Y-81794998D01*
X73102918Y-81718808D01*
X73141014Y-81642617D01*
X72912442Y-82594998D02*
X72912442Y-82671189D01*
X72950538Y-82747379D01*
X72988633Y-82785474D01*
X73064823Y-82823569D01*
X73217204Y-82861665D01*
X73407680Y-82861665D01*
X73560061Y-82823569D01*
X73636252Y-82785474D01*
X73674347Y-82747379D01*
X73712442Y-82671189D01*
X73712442Y-82594998D01*
X73674347Y-82518808D01*
X73636252Y-82480712D01*
X73560061Y-82442617D01*
X73407680Y-82404522D01*
X73217204Y-82404522D01*
X73064823Y-82442617D01*
X72988633Y-82480712D01*
X72950538Y-82518808D01*
X72912442Y-82594998D01*
X47512442Y-92145570D02*
X47512442Y-92221760D01*
X47550538Y-92297950D01*
X47588633Y-92336046D01*
X47664823Y-92374141D01*
X47817204Y-92412236D01*
X48007680Y-92412236D01*
X48160061Y-92374141D01*
X48236252Y-92336046D01*
X48274347Y-92297950D01*
X48312442Y-92221760D01*
X48312442Y-92145570D01*
X48274347Y-92069379D01*
X48236252Y-92031284D01*
X48160061Y-91993189D01*
X48007680Y-91955093D01*
X47817204Y-91955093D01*
X47664823Y-91993189D01*
X47588633Y-92031284D01*
X47550538Y-92069379D01*
X47512442Y-92145570D01*
X47512442Y-92907474D02*
X47512442Y-92983665D01*
X47550538Y-93059855D01*
X47588633Y-93097950D01*
X47664823Y-93136046D01*
X47817204Y-93174141D01*
X48007680Y-93174141D01*
X48160061Y-93136046D01*
X48236252Y-93097950D01*
X48274347Y-93059855D01*
X48312442Y-92983665D01*
X48312442Y-92907474D01*
X48274347Y-92831284D01*
X48236252Y-92793189D01*
X48160061Y-92755093D01*
X48007680Y-92716998D01*
X47817204Y-92716998D01*
X47664823Y-92755093D01*
X47588633Y-92793189D01*
X47550538Y-92831284D01*
X47512442Y-92907474D01*
X47512442Y-93859855D02*
X47512442Y-93707474D01*
X47550538Y-93631284D01*
X47588633Y-93593189D01*
X47702918Y-93516998D01*
X47855299Y-93478903D01*
X48160061Y-93478903D01*
X48236252Y-93516998D01*
X48274347Y-93555093D01*
X48312442Y-93631284D01*
X48312442Y-93783665D01*
X48274347Y-93859855D01*
X48236252Y-93897950D01*
X48160061Y-93936046D01*
X47969585Y-93936046D01*
X47893395Y-93897950D01*
X47855299Y-93859855D01*
X47817204Y-93783665D01*
X47817204Y-93631284D01*
X47855299Y-93555093D01*
X47893395Y-93516998D01*
X47969585Y-93478903D01*
X53392442Y-81382284D02*
X53011490Y-81115618D01*
X53392442Y-80925141D02*
X52592442Y-80925141D01*
X52592442Y-81229903D01*
X52630538Y-81306094D01*
X52668633Y-81344189D01*
X52744823Y-81382284D01*
X52859109Y-81382284D01*
X52935299Y-81344189D01*
X52973395Y-81306094D01*
X53011490Y-81229903D01*
X53011490Y-80925141D01*
X53354347Y-81687046D02*
X53392442Y-81801332D01*
X53392442Y-81991808D01*
X53354347Y-82067999D01*
X53316252Y-82106094D01*
X53240061Y-82144189D01*
X53163871Y-82144189D01*
X53087680Y-82106094D01*
X53049585Y-82067999D01*
X53011490Y-81991808D01*
X52973395Y-81839427D01*
X52935299Y-81763237D01*
X52897204Y-81725141D01*
X52821014Y-81687046D01*
X52744823Y-81687046D01*
X52668633Y-81725141D01*
X52630538Y-81763237D01*
X52592442Y-81839427D01*
X52592442Y-82029903D01*
X52630538Y-82144189D01*
X52592442Y-82372760D02*
X52592442Y-82829903D01*
X53392442Y-82601332D02*
X52592442Y-82601332D01*
X45353395Y-92431284D02*
X45391490Y-92545570D01*
X45429585Y-92583665D01*
X45505776Y-92621760D01*
X45620061Y-92621760D01*
X45696252Y-92583665D01*
X45734347Y-92545570D01*
X45772442Y-92469380D01*
X45772442Y-92164618D01*
X44972442Y-92164618D01*
X44972442Y-92431284D01*
X45010538Y-92507475D01*
X45048633Y-92545570D01*
X45124823Y-92583665D01*
X45201014Y-92583665D01*
X45277204Y-92545570D01*
X45315299Y-92507475D01*
X45353395Y-92431284D01*
X45353395Y-92164618D01*
X45467680Y-92964618D02*
X45467680Y-93574141D01*
X45353395Y-81191807D02*
X45391490Y-81306093D01*
X45429585Y-81344188D01*
X45505776Y-81382283D01*
X45620061Y-81382283D01*
X45696252Y-81344188D01*
X45734347Y-81306093D01*
X45772442Y-81229903D01*
X45772442Y-80925141D01*
X44972442Y-80925141D01*
X44972442Y-81191807D01*
X45010538Y-81267998D01*
X45048633Y-81306093D01*
X45124823Y-81344188D01*
X45201014Y-81344188D01*
X45277204Y-81306093D01*
X45315299Y-81267998D01*
X45353395Y-81191807D01*
X45353395Y-80925141D01*
X45467680Y-81725141D02*
X45467680Y-82334664D01*
X45772442Y-82029903D02*
X45162918Y-82029903D01*
X108886547Y-83283928D02*
X109648452Y-83283928D01*
X111426547Y-83283928D02*
X112188452Y-83283928D01*
X111807500Y-83664880D02*
X111807500Y-82902976D01*
X137461547Y-64233928D02*
X138223452Y-64233928D01*
X140001547Y-64233928D02*
X140763452Y-64233928D01*
X140382500Y-64614880D02*
X140382500Y-63852976D01*
X61261547Y-64233928D02*
X62023452Y-64233928D01*
X63801547Y-64233928D02*
X64563452Y-64233928D01*
X64182500Y-64614880D02*
X64182500Y-63852976D01*
X99361547Y-64233928D02*
X100123452Y-64233928D01*
X101901547Y-64233928D02*
X102663452Y-64233928D01*
X102282500Y-64614880D02*
X102282500Y-63852976D01*
X84266369Y-84585333D02*
X83552083Y-84585333D01*
X83409226Y-84632952D01*
X83313988Y-84728190D01*
X83266369Y-84871047D01*
X83266369Y-84966285D01*
X83266369Y-83585333D02*
X83266369Y-84156761D01*
X83266369Y-83871047D02*
X84266369Y-83871047D01*
X84123511Y-83966285D01*
X84028273Y-84061523D01*
X83980654Y-84156761D01*
X104124047Y-26133928D02*
X104885952Y-26133928D01*
X106664047Y-26133928D02*
X107425952Y-26133928D01*
X107045000Y-26514880D02*
X107045000Y-25752976D01*
X89836547Y-83283928D02*
X90598452Y-83283928D01*
X92376547Y-83283928D02*
X93138452Y-83283928D01*
X92757500Y-83664880D02*
X92757500Y-82902976D01*
X123174047Y-26133928D02*
X123935952Y-26133928D01*
X125714047Y-26133928D02*
X126475952Y-26133928D01*
X126095000Y-26514880D02*
X126095000Y-25752976D01*
X46974047Y-26133928D02*
X47735952Y-26133928D01*
X49514047Y-26133928D02*
X50275952Y-26133928D01*
X49895000Y-26514880D02*
X49895000Y-25752976D01*
X51736547Y-45183928D02*
X52498452Y-45183928D01*
X54276547Y-45183928D02*
X55038452Y-45183928D01*
X54657500Y-45564880D02*
X54657500Y-44802976D01*
X89836547Y-45183928D02*
X90598452Y-45183928D01*
X92376547Y-45183928D02*
X93138452Y-45183928D01*
X92757500Y-45564880D02*
X92757500Y-44802976D01*
X27924047Y-26133928D02*
X28685952Y-26133928D01*
X30464047Y-26133928D02*
X31225952Y-26133928D01*
X30845000Y-26514880D02*
X30845000Y-25752976D01*
X66024047Y-26133928D02*
X66785952Y-26133928D01*
X68564047Y-26133928D02*
X69325952Y-26133928D01*
X68945000Y-26514880D02*
X68945000Y-25752976D01*
X127936547Y-45183928D02*
X128698452Y-45183928D01*
X130476547Y-45183928D02*
X131238452Y-45183928D01*
X130857500Y-45564880D02*
X130857500Y-44802976D01*
X96712666Y-61634000D02*
X96012666Y-61634000D01*
X96012666Y-61800666D01*
X96046000Y-61900666D01*
X96112666Y-61967333D01*
X96179333Y-62000666D01*
X96312666Y-62034000D01*
X96412666Y-62034000D01*
X96546000Y-62000666D01*
X96612666Y-61967333D01*
X96679333Y-61900666D01*
X96712666Y-61800666D01*
X96712666Y-61634000D01*
X96712666Y-62700666D02*
X96712666Y-62300666D01*
X96712666Y-62500666D02*
X96012666Y-62500666D01*
X96112666Y-62434000D01*
X96179333Y-62367333D01*
X96212666Y-62300666D01*
X96012666Y-63300666D02*
X96012666Y-63167333D01*
X96046000Y-63100666D01*
X96079333Y-63067333D01*
X96179333Y-63000666D01*
X96312666Y-62967333D01*
X96579333Y-62967333D01*
X96646000Y-63000666D01*
X96679333Y-63034000D01*
X96712666Y-63100666D01*
X96712666Y-63234000D01*
X96679333Y-63300666D01*
X96646000Y-63334000D01*
X96579333Y-63367333D01*
X96412666Y-63367333D01*
X96346000Y-63334000D01*
X96312666Y-63300666D01*
X96279333Y-63234000D01*
X96279333Y-63100666D01*
X96312666Y-63034000D01*
X96346000Y-63000666D01*
X96412666Y-62967333D01*
X40029523Y-41894761D02*
X39886666Y-41942380D01*
X39648571Y-41942380D01*
X39553333Y-41894761D01*
X39505714Y-41847142D01*
X39458095Y-41751904D01*
X39458095Y-41656666D01*
X39505714Y-41561428D01*
X39553333Y-41513809D01*
X39648571Y-41466190D01*
X39839047Y-41418571D01*
X39934285Y-41370952D01*
X39981904Y-41323333D01*
X40029523Y-41228095D01*
X40029523Y-41132857D01*
X39981904Y-41037619D01*
X39934285Y-40990000D01*
X39839047Y-40942380D01*
X39600952Y-40942380D01*
X39458095Y-40990000D01*
X39124761Y-40942380D02*
X38886666Y-41942380D01*
X38696190Y-41228095D01*
X38505714Y-41942380D01*
X38267619Y-40942380D01*
X37934285Y-41037619D02*
X37886666Y-40990000D01*
X37791428Y-40942380D01*
X37553333Y-40942380D01*
X37458095Y-40990000D01*
X37410476Y-41037619D01*
X37362857Y-41132857D01*
X37362857Y-41228095D01*
X37410476Y-41370952D01*
X37981904Y-41942380D01*
X37362857Y-41942380D01*
X37029523Y-40942380D02*
X36410476Y-40942380D01*
X36743809Y-41323333D01*
X36600952Y-41323333D01*
X36505714Y-41370952D01*
X36458095Y-41418571D01*
X36410476Y-41513809D01*
X36410476Y-41751904D01*
X36458095Y-41847142D01*
X36505714Y-41894761D01*
X36600952Y-41942380D01*
X36886666Y-41942380D01*
X36981904Y-41894761D01*
X37029523Y-41847142D01*
X25084666Y-23743333D02*
X24384666Y-23743333D01*
X24384666Y-23910000D01*
X24418000Y-24010000D01*
X24484666Y-24076666D01*
X24551333Y-24110000D01*
X24684666Y-24143333D01*
X24784666Y-24143333D01*
X24918000Y-24110000D01*
X24984666Y-24076666D01*
X25051333Y-24010000D01*
X25084666Y-23910000D01*
X25084666Y-23743333D01*
X25084666Y-24810000D02*
X25084666Y-24410000D01*
X25084666Y-24610000D02*
X24384666Y-24610000D01*
X24484666Y-24543333D01*
X24551333Y-24476666D01*
X24584666Y-24410000D01*
X44388666Y-23743333D02*
X43688666Y-23743333D01*
X43688666Y-23910000D01*
X43722000Y-24010000D01*
X43788666Y-24076666D01*
X43855333Y-24110000D01*
X43988666Y-24143333D01*
X44088666Y-24143333D01*
X44222000Y-24110000D01*
X44288666Y-24076666D01*
X44355333Y-24010000D01*
X44388666Y-23910000D01*
X44388666Y-23743333D01*
X43755333Y-24410000D02*
X43722000Y-24443333D01*
X43688666Y-24510000D01*
X43688666Y-24676666D01*
X43722000Y-24743333D01*
X43755333Y-24776666D01*
X43822000Y-24810000D01*
X43888666Y-24810000D01*
X43988666Y-24776666D01*
X44388666Y-24376666D01*
X44388666Y-24810000D01*
X82488666Y-23743333D02*
X81788666Y-23743333D01*
X81788666Y-23910000D01*
X81822000Y-24010000D01*
X81888666Y-24076666D01*
X81955333Y-24110000D01*
X82088666Y-24143333D01*
X82188666Y-24143333D01*
X82322000Y-24110000D01*
X82388666Y-24076666D01*
X82455333Y-24010000D01*
X82488666Y-23910000D01*
X82488666Y-23743333D01*
X82022000Y-24743333D02*
X82488666Y-24743333D01*
X81755333Y-24576666D02*
X82255333Y-24410000D01*
X82255333Y-24843333D01*
X63692666Y-23743333D02*
X62992666Y-23743333D01*
X62992666Y-23910000D01*
X63026000Y-24010000D01*
X63092666Y-24076666D01*
X63159333Y-24110000D01*
X63292666Y-24143333D01*
X63392666Y-24143333D01*
X63526000Y-24110000D01*
X63592666Y-24076666D01*
X63659333Y-24010000D01*
X63692666Y-23910000D01*
X63692666Y-23743333D01*
X62992666Y-24376666D02*
X62992666Y-24810000D01*
X63259333Y-24576666D01*
X63259333Y-24676666D01*
X63292666Y-24743333D01*
X63326000Y-24776666D01*
X63392666Y-24810000D01*
X63559333Y-24810000D01*
X63626000Y-24776666D01*
X63659333Y-24743333D01*
X63692666Y-24676666D01*
X63692666Y-24476666D01*
X63659333Y-24410000D01*
X63626000Y-24376666D01*
X70786547Y-45183928D02*
X71548452Y-45183928D01*
X73326547Y-45183928D02*
X74088452Y-45183928D01*
X73707500Y-45564880D02*
X73707500Y-44802976D01*
X108886547Y-45183928D02*
X109648452Y-45183928D01*
X111426547Y-45183928D02*
X112188452Y-45183928D01*
X111807500Y-45564880D02*
X111807500Y-44802976D01*
%LPC*%
D14*
X118872000Y-22860000D03*
X118872000Y-25660000D03*
X100076000Y-22860000D03*
X100076000Y-25660000D03*
X66548000Y-42164000D03*
X66548000Y-44964000D03*
X104187500Y-80264000D03*
X104187500Y-83064000D03*
X133096000Y-61208000D03*
X133096000Y-64008000D03*
X113792000Y-61084000D03*
X113792000Y-63884000D03*
X85852000Y-42164000D03*
X85852000Y-44964000D03*
X87518750Y-80264000D03*
X87518750Y-83064000D03*
X104648000Y-42164000D03*
X104648000Y-44964000D03*
X37512500Y-61562500D03*
X37512500Y-64362500D03*
X29194000Y-43338000D03*
X29194000Y-46138000D03*
X47244000Y-42164000D03*
X47244000Y-44964000D03*
X123952000Y-42164000D03*
X123952000Y-44964000D03*
X123237500Y-80264000D03*
X123237500Y-83064000D03*
X75692000Y-61084000D03*
X75692000Y-63884000D03*
D15*
X128317500Y-81632500D03*
D16*
X130857500Y-81632500D03*
D17*
X134807500Y-82512500D03*
D18*
X124087500Y-86712500D03*
X135087500Y-86712500D03*
D19*
X129587500Y-92612500D03*
X124587500Y-90512500D03*
D20*
X124507500Y-86712500D03*
X134667500Y-86712500D03*
D21*
X132087500Y-90712500D03*
D22*
X129587500Y-86712500D03*
D21*
X132742505Y-89982504D03*
D23*
X133397500Y-89252500D02*
X132087510Y-90712508D01*
D21*
X127047500Y-91792500D03*
X127067729Y-91502516D03*
D23*
X127087500Y-91212500D02*
X127047958Y-91792532D01*
D15*
X80692500Y-62582500D03*
D16*
X83232500Y-62582500D03*
D17*
X87182500Y-63462500D03*
D18*
X76462500Y-67662500D03*
X87462500Y-67662500D03*
D19*
X81962500Y-73562500D03*
X76962500Y-71462500D03*
D20*
X76882500Y-67662500D03*
X87042500Y-67662500D03*
D21*
X84462500Y-71662500D03*
D22*
X81962500Y-67662500D03*
D21*
X85117505Y-70932504D03*
D23*
X85772500Y-70202500D02*
X84462510Y-71662508D01*
D21*
X79422500Y-72742500D03*
X79442729Y-72452516D03*
D23*
X79462500Y-72162500D02*
X79422958Y-72742532D01*
D14*
X56896000Y-60960000D03*
X56896000Y-63760000D03*
D15*
X33067500Y-43532500D03*
D16*
X35607500Y-43532500D03*
D17*
X39557500Y-44412500D03*
D18*
X28837500Y-48612500D03*
X39837500Y-48612500D03*
D19*
X34337500Y-54512500D03*
X29337500Y-52412500D03*
D20*
X29257500Y-48612500D03*
X39417500Y-48612500D03*
D21*
X36837500Y-52612500D03*
D22*
X34337500Y-48612500D03*
D21*
X37492505Y-51882504D03*
D23*
X38147500Y-51152500D02*
X36837510Y-52612508D01*
D21*
X31797500Y-53692500D03*
X31817729Y-53402516D03*
D23*
X31837500Y-53112500D02*
X31797958Y-53692532D01*
D15*
X42592500Y-62582500D03*
D16*
X45132500Y-62582500D03*
D17*
X49082500Y-63462500D03*
D18*
X38362500Y-67662500D03*
X49362500Y-67662500D03*
D19*
X43862500Y-73562500D03*
X38862500Y-71462500D03*
D20*
X38782500Y-67662500D03*
X48942500Y-67662500D03*
D21*
X46362500Y-71662500D03*
D22*
X43862500Y-67662500D03*
D21*
X47017505Y-70932504D03*
D23*
X47672500Y-70202500D02*
X46362510Y-71662508D01*
D21*
X41322500Y-72742500D03*
X41342729Y-72452516D03*
D23*
X41362500Y-72162500D02*
X41322958Y-72742532D01*
D15*
X85455000Y-24482500D03*
D16*
X87995000Y-24482500D03*
D17*
X91945000Y-25362500D03*
D18*
X81225000Y-29562500D03*
X92225000Y-29562500D03*
D19*
X86725000Y-35462500D03*
X81725000Y-33362500D03*
D20*
X81645000Y-29562500D03*
X91805000Y-29562500D03*
D21*
X89225000Y-33562500D03*
D22*
X86725000Y-29562500D03*
D21*
X89880005Y-32832504D03*
D23*
X90535000Y-32102500D02*
X89225010Y-33562508D01*
D21*
X84185000Y-34642500D03*
X84205229Y-34352516D03*
D23*
X84225000Y-34062500D02*
X84185458Y-34642532D01*
D15*
X118792500Y-62582500D03*
D16*
X121332500Y-62582500D03*
D17*
X125282500Y-63462500D03*
D18*
X114562500Y-67662500D03*
X125562500Y-67662500D03*
D19*
X120062500Y-73562500D03*
X115062500Y-71462500D03*
D20*
X114982500Y-67662500D03*
X125142500Y-67662500D03*
D21*
X122562500Y-71662500D03*
D22*
X120062500Y-67662500D03*
D21*
X123217505Y-70932504D03*
D23*
X123872500Y-70202500D02*
X122562510Y-71662508D01*
D21*
X117522500Y-72742500D03*
X117542729Y-72452516D03*
D23*
X117562500Y-72162500D02*
X117522958Y-72742532D01*
D24*
X47950538Y-95028380D03*
X50490538Y-95028380D03*
X53030538Y-95028380D03*
X55570538Y-95028380D03*
X58110538Y-95028380D03*
X60650538Y-95028380D03*
X63190538Y-95028380D03*
X65730538Y-95028380D03*
X68270538Y-95028380D03*
X70810538Y-95028380D03*
X73350538Y-95028380D03*
X75890538Y-79788380D03*
X73350538Y-79788380D03*
X70810538Y-79788380D03*
X68270538Y-79788380D03*
X65730538Y-79788380D03*
X63190538Y-79788380D03*
X60650538Y-79788380D03*
X58110538Y-79788380D03*
X55570538Y-79788380D03*
X53030538Y-79788380D03*
X50490538Y-79788380D03*
X75890538Y-95028380D03*
X47950538Y-79788380D03*
X45410538Y-79788380D03*
X45410538Y-95028380D03*
X70810538Y-92488380D03*
X70810538Y-89948380D03*
X70810538Y-87408380D03*
D15*
X109267500Y-81632500D03*
D16*
X111807500Y-81632500D03*
D17*
X115757500Y-82512500D03*
D18*
X105037500Y-86712500D03*
X116037500Y-86712500D03*
D19*
X110537500Y-92612500D03*
X105537500Y-90512500D03*
D20*
X105457500Y-86712500D03*
X115617500Y-86712500D03*
D21*
X113037500Y-90712500D03*
D22*
X110537500Y-86712500D03*
D21*
X113692505Y-89982504D03*
D23*
X114347500Y-89252500D02*
X113037510Y-90712508D01*
D21*
X107997500Y-91792500D03*
X108017729Y-91502516D03*
D23*
X108037500Y-91212500D02*
X107997958Y-91792532D01*
D15*
X137842500Y-62582500D03*
D16*
X140382500Y-62582500D03*
D17*
X144332500Y-63462500D03*
D18*
X133612500Y-67662500D03*
X144612500Y-67662500D03*
D19*
X139112500Y-73562500D03*
X134112500Y-71462500D03*
D20*
X134032500Y-67662500D03*
X144192500Y-67662500D03*
D21*
X141612500Y-71662500D03*
D22*
X139112500Y-67662500D03*
D21*
X142267505Y-70932504D03*
D23*
X142922500Y-70202500D02*
X141612510Y-71662508D01*
D21*
X136572500Y-72742500D03*
X136592729Y-72452516D03*
D23*
X136612500Y-72162500D02*
X136572958Y-72742532D01*
D15*
X61642500Y-62582500D03*
D16*
X64182500Y-62582500D03*
D17*
X68132500Y-63462500D03*
D18*
X57412500Y-67662500D03*
X68412500Y-67662500D03*
D19*
X62912500Y-73562500D03*
X57912500Y-71462500D03*
D20*
X57832500Y-67662500D03*
X67992500Y-67662500D03*
D21*
X65412500Y-71662500D03*
D22*
X62912500Y-67662500D03*
D21*
X66067505Y-70932504D03*
D23*
X66722500Y-70202500D02*
X65412510Y-71662508D01*
D21*
X60372500Y-72742500D03*
X60392729Y-72452516D03*
D23*
X60412500Y-72162500D02*
X60372958Y-72742532D01*
D15*
X99742500Y-62582500D03*
D16*
X102282500Y-62582500D03*
D17*
X106232500Y-63462500D03*
D18*
X95512500Y-67662500D03*
X106512500Y-67662500D03*
D19*
X101012500Y-73562500D03*
X96012500Y-71462500D03*
D20*
X95932500Y-67662500D03*
X106092500Y-67662500D03*
D21*
X103512500Y-71662500D03*
D22*
X101012500Y-67662500D03*
D21*
X104167505Y-70932504D03*
D23*
X104822500Y-70202500D02*
X103512510Y-71662508D01*
D21*
X98472500Y-72742500D03*
X98492729Y-72452516D03*
D23*
X98512500Y-72162500D02*
X98472958Y-72742532D01*
D25*
X81168750Y-83252000D03*
D26*
G36*
X81850088Y-84602306D02*
G01*
X81876419Y-84606212D01*
X81902240Y-84612680D01*
X81927303Y-84621648D01*
X81951367Y-84633029D01*
X81974199Y-84646714D01*
X81995580Y-84662571D01*
X82015303Y-84680447D01*
X82033179Y-84700170D01*
X82049036Y-84721551D01*
X82062721Y-84744383D01*
X82074102Y-84768447D01*
X82083070Y-84793510D01*
X82089538Y-84819331D01*
X82093444Y-84845662D01*
X82094750Y-84872249D01*
X82094750Y-85631751D01*
X82093444Y-85658338D01*
X82089538Y-85684669D01*
X82083070Y-85710490D01*
X82074102Y-85735553D01*
X82062721Y-85759617D01*
X82049036Y-85782449D01*
X82033179Y-85803830D01*
X82015303Y-85823553D01*
X81995580Y-85841429D01*
X81974199Y-85857286D01*
X81951367Y-85870971D01*
X81927303Y-85882352D01*
X81902240Y-85891320D01*
X81876419Y-85897788D01*
X81850088Y-85901694D01*
X81823501Y-85903000D01*
X80513999Y-85903000D01*
X80487412Y-85901694D01*
X80461081Y-85897788D01*
X80435260Y-85891320D01*
X80410197Y-85882352D01*
X80386133Y-85870971D01*
X80363301Y-85857286D01*
X80341920Y-85841429D01*
X80322197Y-85823553D01*
X80304321Y-85803830D01*
X80288464Y-85782449D01*
X80274779Y-85759617D01*
X80263398Y-85735553D01*
X80254430Y-85710490D01*
X80247962Y-85684669D01*
X80244056Y-85658338D01*
X80242750Y-85631751D01*
X80242750Y-84872249D01*
X80244056Y-84845662D01*
X80247962Y-84819331D01*
X80254430Y-84793510D01*
X80263398Y-84768447D01*
X80274779Y-84744383D01*
X80288464Y-84721551D01*
X80304321Y-84700170D01*
X80322197Y-84680447D01*
X80341920Y-84662571D01*
X80363301Y-84646714D01*
X80386133Y-84633029D01*
X80410197Y-84621648D01*
X80435260Y-84612680D01*
X80461081Y-84606212D01*
X80487412Y-84602306D01*
X80513999Y-84601000D01*
X81823501Y-84601000D01*
X81850088Y-84602306D01*
X81850088Y-84602306D01*
G37*
D27*
X81168750Y-85252000D03*
D15*
X104505000Y-24482500D03*
D16*
X107045000Y-24482500D03*
D17*
X110995000Y-25362500D03*
D18*
X100275000Y-29562500D03*
X111275000Y-29562500D03*
D19*
X105775000Y-35462500D03*
X100775000Y-33362500D03*
D20*
X100695000Y-29562500D03*
X110855000Y-29562500D03*
D21*
X108275000Y-33562500D03*
D22*
X105775000Y-29562500D03*
D21*
X108930005Y-32832504D03*
D23*
X109585000Y-32102500D02*
X108275010Y-33562508D01*
D21*
X103235000Y-34642500D03*
X103255229Y-34352516D03*
D23*
X103275000Y-34062500D02*
X103235458Y-34642532D01*
D28*
X78064000Y-94189000D03*
X78064000Y-91689000D03*
X78064000Y-89189000D03*
X81264000Y-94189000D03*
X81264000Y-91689000D03*
D29*
X81264000Y-89189000D03*
D15*
X90217500Y-81632500D03*
D16*
X92757500Y-81632500D03*
D17*
X96707500Y-82512500D03*
D18*
X85987500Y-86712500D03*
X96987500Y-86712500D03*
D19*
X91487500Y-92612500D03*
X86487500Y-90512500D03*
D20*
X86407500Y-86712500D03*
X96567500Y-86712500D03*
D21*
X93987500Y-90712500D03*
D22*
X91487500Y-86712500D03*
D21*
X94642505Y-89982504D03*
D23*
X95297500Y-89252500D02*
X93987510Y-90712508D01*
D21*
X88947500Y-91792500D03*
X88967729Y-91502516D03*
D23*
X88987500Y-91212500D02*
X88947958Y-91792532D01*
D15*
X123555000Y-24482500D03*
D16*
X126095000Y-24482500D03*
D17*
X130045000Y-25362500D03*
D18*
X119325000Y-29562500D03*
X130325000Y-29562500D03*
D19*
X124825000Y-35462500D03*
X119825000Y-33362500D03*
D20*
X119745000Y-29562500D03*
X129905000Y-29562500D03*
D21*
X127325000Y-33562500D03*
D22*
X124825000Y-29562500D03*
D21*
X127980005Y-32832504D03*
D23*
X128635000Y-32102500D02*
X127325010Y-33562508D01*
D21*
X122285000Y-34642500D03*
X122305229Y-34352516D03*
D23*
X122325000Y-34062500D02*
X122285458Y-34642532D01*
D15*
X47355000Y-24482500D03*
D16*
X49895000Y-24482500D03*
D17*
X53845000Y-25362500D03*
D18*
X43125000Y-29562500D03*
X54125000Y-29562500D03*
D19*
X48625000Y-35462500D03*
X43625000Y-33362500D03*
D20*
X43545000Y-29562500D03*
X53705000Y-29562500D03*
D21*
X51125000Y-33562500D03*
D22*
X48625000Y-29562500D03*
D21*
X51780005Y-32832504D03*
D23*
X52435000Y-32102500D02*
X51125010Y-33562508D01*
D21*
X46085000Y-34642500D03*
X46105229Y-34352516D03*
D23*
X46125000Y-34062500D02*
X46085458Y-34642532D01*
D15*
X52117500Y-43532500D03*
D16*
X54657500Y-43532500D03*
D17*
X58607500Y-44412500D03*
D18*
X47887500Y-48612500D03*
X58887500Y-48612500D03*
D19*
X53387500Y-54512500D03*
X48387500Y-52412500D03*
D20*
X48307500Y-48612500D03*
X58467500Y-48612500D03*
D21*
X55887500Y-52612500D03*
D22*
X53387500Y-48612500D03*
D21*
X56542505Y-51882504D03*
D23*
X57197500Y-51152500D02*
X55887510Y-52612508D01*
D21*
X50847500Y-53692500D03*
X50867729Y-53402516D03*
D23*
X50887500Y-53112500D02*
X50847958Y-53692532D01*
D15*
X90217500Y-43532500D03*
D16*
X92757500Y-43532500D03*
D17*
X96707500Y-44412500D03*
D18*
X85987500Y-48612500D03*
X96987500Y-48612500D03*
D19*
X91487500Y-54512500D03*
X86487500Y-52412500D03*
D20*
X86407500Y-48612500D03*
X96567500Y-48612500D03*
D21*
X93987500Y-52612500D03*
D22*
X91487500Y-48612500D03*
D21*
X94642505Y-51882504D03*
D23*
X95297500Y-51152500D02*
X93987510Y-52612508D01*
D21*
X88947500Y-53692500D03*
X88967729Y-53402516D03*
D23*
X88987500Y-53112500D02*
X88947958Y-53692532D01*
D15*
X28305000Y-24482500D03*
D16*
X30845000Y-24482500D03*
D17*
X34795000Y-25362500D03*
D18*
X24075000Y-29562500D03*
X35075000Y-29562500D03*
D19*
X29575000Y-35462500D03*
X24575000Y-33362500D03*
D20*
X24495000Y-29562500D03*
X34655000Y-29562500D03*
D21*
X32075000Y-33562500D03*
D22*
X29575000Y-29562500D03*
D21*
X32730005Y-32832504D03*
D23*
X33385000Y-32102500D02*
X32075010Y-33562508D01*
D21*
X27035000Y-34642500D03*
X27055229Y-34352516D03*
D23*
X27075000Y-34062500D02*
X27035458Y-34642532D01*
D15*
X66405000Y-24482500D03*
D16*
X68945000Y-24482500D03*
D17*
X72895000Y-25362500D03*
D18*
X62175000Y-29562500D03*
X73175000Y-29562500D03*
D19*
X67675000Y-35462500D03*
X62675000Y-33362500D03*
D20*
X62595000Y-29562500D03*
X72755000Y-29562500D03*
D21*
X70175000Y-33562500D03*
D22*
X67675000Y-29562500D03*
D21*
X70830005Y-32832504D03*
D23*
X71485000Y-32102500D02*
X70175010Y-33562508D01*
D21*
X65135000Y-34642500D03*
X65155229Y-34352516D03*
D23*
X65175000Y-34062500D02*
X65135458Y-34642532D01*
D15*
X128317500Y-43532500D03*
D16*
X130857500Y-43532500D03*
D17*
X134807500Y-44412500D03*
D18*
X124087500Y-48612500D03*
X135087500Y-48612500D03*
D19*
X129587500Y-54512500D03*
X124587500Y-52412500D03*
D20*
X124507500Y-48612500D03*
X134667500Y-48612500D03*
D21*
X132087500Y-52612500D03*
D22*
X129587500Y-48612500D03*
D21*
X132742505Y-51882504D03*
D23*
X133397500Y-51152500D02*
X132087510Y-52612508D01*
D21*
X127047500Y-53692500D03*
X127067729Y-53402516D03*
D23*
X127087500Y-53112500D02*
X127047958Y-53692532D01*
D30*
X141250000Y-27250000D03*
D17*
X138950000Y-22650000D03*
X138950000Y-29650000D03*
D30*
X141250000Y-24250000D03*
X141250000Y-31250000D03*
X136650000Y-32350000D03*
D14*
X94996000Y-61084000D03*
X94996000Y-63884000D03*
D31*
X42195000Y-35190000D03*
X42195000Y-39690000D03*
X34245000Y-39690000D03*
X34245000Y-35190000D03*
D14*
X23368000Y-22860000D03*
X23368000Y-25660000D03*
X42672000Y-22860000D03*
X42672000Y-25660000D03*
X80772000Y-22860000D03*
X80772000Y-25660000D03*
X61976000Y-22860000D03*
X61976000Y-25660000D03*
D15*
X71167500Y-43532500D03*
D16*
X73707500Y-43532500D03*
D17*
X77657500Y-44412500D03*
D18*
X66937500Y-48612500D03*
X77937500Y-48612500D03*
D19*
X72437500Y-54512500D03*
X67437500Y-52412500D03*
D20*
X67357500Y-48612500D03*
X77517500Y-48612500D03*
D21*
X74937500Y-52612500D03*
D22*
X72437500Y-48612500D03*
D21*
X75592505Y-51882504D03*
D23*
X76247500Y-51152500D02*
X74937510Y-52612508D01*
D21*
X69897500Y-53692500D03*
X69917729Y-53402516D03*
D23*
X69937500Y-53112500D02*
X69897958Y-53692532D01*
D15*
X109267500Y-43532500D03*
D16*
X111807500Y-43532500D03*
D17*
X115757500Y-44412500D03*
D18*
X105037500Y-48612500D03*
X116037500Y-48612500D03*
D19*
X110537500Y-54512500D03*
X105537500Y-52412500D03*
D20*
X105457500Y-48612500D03*
X115617500Y-48612500D03*
D21*
X113037500Y-52612500D03*
D22*
X110537500Y-48612500D03*
D21*
X113692505Y-51882504D03*
D23*
X114347500Y-51152500D02*
X113037510Y-52612508D01*
D21*
X107997500Y-53692500D03*
X108017729Y-53402516D03*
D23*
X108037500Y-53112500D02*
X107997958Y-53692532D01*
M02*
