M48
; DRILL file {KiCad (5.1.4)-1} date 1/5/2021 9:43:34 AM
; FORMAT={-:-/ absolute / inch / decimal}
; #@! TF.CreationDate,2021-01-05T09:43:34-08:00
; #@! TF.GenerationSoftware,Kicad,Pcbnew,(5.1.4)-1
; #@! TF.FileFunction,NonPlated,1,2,NPTH
FMAT,2
INCH
T1C0.0315
T2C0.0669
T3C0.0689
T4C0.1570
%
G90
G05
T1
X4.5574Y-1.7485
X2.3074Y-1.7485
X1.5574Y-1.7485
X3.8074Y-1.7485
X4.9324Y-2.4985
X5.4705Y-0.8917
X5.4705Y-1.1673
X3.4324Y-2.4985
X3.8074Y-3.2485
X3.0574Y-1.7485
X1.9324Y-2.4985
X1.3699Y-0.9985
X2.8699Y-0.9985
X5.6824Y-2.4985
X4.1824Y-2.4985
X4.3699Y-0.9985
X5.1199Y-0.9985
X3.6199Y-0.9985
X4.5574Y-3.2485
X5.3074Y-1.7485
X5.3074Y-3.2485
X2.6824Y-2.4985
X2.1199Y-0.9985
T2
X1.1353Y-1.9139
X1.5684Y-1.9139
X3.3853Y-1.9139
X3.8184Y-1.9139
X4.5103Y-2.6639
X4.9434Y-2.6639
X3.0103Y-2.6639
X3.4434Y-2.6639
X3.3853Y-3.4139
X3.8184Y-3.4139
X2.6353Y-1.9139
X3.0684Y-1.9139
X1.5103Y-2.6639
X1.9434Y-2.6639
X0.9478Y-1.1639
X1.3809Y-1.1639
X2.4478Y-1.1639
X2.8809Y-1.1639
X5.2603Y-2.6639
X5.6934Y-2.6639
X3.7603Y-2.6639
X4.1934Y-2.6639
X3.9478Y-1.1639
X4.3809Y-1.1639
X4.6978Y-1.1639
X5.1309Y-1.1639
X4.1353Y-1.9139
X4.5684Y-1.9139
X1.8853Y-1.9139
X2.3184Y-1.9139
X3.1978Y-1.1639
X3.6309Y-1.1639
X4.1353Y-3.4139
X4.5684Y-3.4139
X4.8853Y-1.9139
X5.3184Y-1.9139
X4.8853Y-3.4139
X5.3184Y-3.4139
X2.2603Y-2.6639
X2.6934Y-2.6639
X1.6978Y-1.1639
X2.1309Y-1.1639
T3
X1.1519Y-1.9139
X1.5519Y-1.9139
X3.4019Y-1.9139
X3.8019Y-1.9139
X4.5269Y-2.6639
X4.9269Y-2.6639
X3.0269Y-2.6639
X3.4269Y-2.6639
X3.4019Y-3.4139
X3.8019Y-3.4139
X2.6519Y-1.9139
X3.0519Y-1.9139
X1.5269Y-2.6639
X1.9269Y-2.6639
X0.9644Y-1.1639
X1.3644Y-1.1639
X2.4644Y-1.1639
X2.8644Y-1.1639
X5.2769Y-2.6639
X5.6769Y-2.6639
X3.7769Y-2.6639
X4.1769Y-2.6639
X3.9644Y-1.1639
X4.3644Y-1.1639
X4.7144Y-1.1639
X5.1144Y-1.1639
X4.1519Y-1.9139
X4.5519Y-1.9139
X1.9019Y-1.9139
X2.3019Y-1.9139
X3.2144Y-1.1639
X3.6144Y-1.1639
X4.1519Y-3.4139
X4.5519Y-3.4139
X4.9019Y-1.9139
X5.3019Y-1.9139
X4.9019Y-3.4139
X5.3019Y-3.4139
X2.2769Y-2.6639
X2.6769Y-2.6639
X1.7144Y-1.1639
X2.1144Y-1.1639
T4
X4.7269Y-2.6639
X3.2269Y-2.6639
X3.6019Y-3.4139
X2.8519Y-1.9139
X1.7269Y-2.6639
X1.1644Y-1.1639
X2.6644Y-1.1639
X5.4769Y-2.6639
X3.9769Y-2.6639
X4.1644Y-1.1639
X4.9144Y-1.1639
X4.3519Y-1.9139
X2.1019Y-1.9139
X3.4144Y-1.1639
X4.3519Y-3.4139
X5.1019Y-1.9139
X5.1019Y-3.4139
X2.4769Y-2.6639
X1.9144Y-1.1639
X1.3519Y-1.9139
X3.6019Y-1.9139
T0
M30
