G04 #@! TF.GenerationSoftware,KiCad,Pcbnew,(5.1.4)-1*
G04 #@! TF.CreationDate,2021-01-05T09:44:38-08:00*
G04 #@! TF.ProjectId,andante-classic,616e6461-6e74-4652-9d63-6c6173736963,rev?*
G04 #@! TF.SameCoordinates,Original*
G04 #@! TF.FileFunction,Copper,L1,Top*
G04 #@! TF.FilePolarity,Positive*
%FSLAX46Y46*%
G04 Gerber Fmt 4.6, Leading zero omitted, Abs format (unit mm)*
G04 Created by KiCad (PCBNEW (5.1.4)-1) date 2021-01-05 09:44:38*
%MOMM*%
%LPD*%
G04 APERTURE LIST*
%ADD10C,0.300000*%
%ADD11C,0.800000*%
G04 APERTURE END LIST*
D10*
X198637142Y-180548571D02*
X198637142Y-179762857D01*
X198565714Y-179620000D01*
X198422857Y-179548571D01*
X198137142Y-179548571D01*
X197994285Y-179620000D01*
X198637142Y-180477142D02*
X198494285Y-180548571D01*
X198137142Y-180548571D01*
X197994285Y-180477142D01*
X197922857Y-180334285D01*
X197922857Y-180191428D01*
X197994285Y-180048571D01*
X198137142Y-179977142D01*
X198494285Y-179977142D01*
X198637142Y-179905714D01*
X199351428Y-179548571D02*
X199351428Y-180548571D01*
X199351428Y-179691428D02*
X199422857Y-179620000D01*
X199565714Y-179548571D01*
X199780000Y-179548571D01*
X199922857Y-179620000D01*
X199994285Y-179762857D01*
X199994285Y-180548571D01*
X201351428Y-180548571D02*
X201351428Y-179048571D01*
X201351428Y-180477142D02*
X201208571Y-180548571D01*
X200922857Y-180548571D01*
X200780000Y-180477142D01*
X200708571Y-180405714D01*
X200637142Y-180262857D01*
X200637142Y-179834285D01*
X200708571Y-179691428D01*
X200780000Y-179620000D01*
X200922857Y-179548571D01*
X201208571Y-179548571D01*
X201351428Y-179620000D01*
X202708571Y-180548571D02*
X202708571Y-179762857D01*
X202637142Y-179620000D01*
X202494285Y-179548571D01*
X202208571Y-179548571D01*
X202065714Y-179620000D01*
X202708571Y-180477142D02*
X202565714Y-180548571D01*
X202208571Y-180548571D01*
X202065714Y-180477142D01*
X201994285Y-180334285D01*
X201994285Y-180191428D01*
X202065714Y-180048571D01*
X202208571Y-179977142D01*
X202565714Y-179977142D01*
X202708571Y-179905714D01*
X203422857Y-179548571D02*
X203422857Y-180548571D01*
X203422857Y-179691428D02*
X203494285Y-179620000D01*
X203637142Y-179548571D01*
X203851428Y-179548571D01*
X203994285Y-179620000D01*
X204065714Y-179762857D01*
X204065714Y-180548571D01*
X204565714Y-179548571D02*
X205137142Y-179548571D01*
X204780000Y-179048571D02*
X204780000Y-180334285D01*
X204851428Y-180477142D01*
X204994285Y-180548571D01*
X205137142Y-180548571D01*
X206208571Y-180477142D02*
X206065714Y-180548571D01*
X205780000Y-180548571D01*
X205637142Y-180477142D01*
X205565714Y-180334285D01*
X205565714Y-179762857D01*
X205637142Y-179620000D01*
X205780000Y-179548571D01*
X206065714Y-179548571D01*
X206208571Y-179620000D01*
X206280000Y-179762857D01*
X206280000Y-179905714D01*
X205565714Y-180048571D01*
X207565714Y-179548571D02*
X207565714Y-180548571D01*
X207208571Y-178977142D02*
X206851428Y-180048571D01*
X207780000Y-180048571D01*
X208280000Y-179191428D02*
X208351428Y-179120000D01*
X208494285Y-179048571D01*
X208851428Y-179048571D01*
X208994285Y-179120000D01*
X209065714Y-179191428D01*
X209137142Y-179334285D01*
X209137142Y-179477142D01*
X209065714Y-179691428D01*
X208208571Y-180548571D01*
X209137142Y-180548571D01*
D11*
X165300000Y-131640000D03*
M02*
