G04 #@! TF.GenerationSoftware,KiCad,Pcbnew,(5.1.4)-1*
G04 #@! TF.CreationDate,2021-01-05T09:44:38-08:00*
G04 #@! TF.ProjectId,andante-classic,616e6461-6e74-4652-9d63-6c6173736963,rev?*
G04 #@! TF.SameCoordinates,Original*
G04 #@! TF.FileFunction,Legend,Bot*
G04 #@! TF.FilePolarity,Positive*
%FSLAX46Y46*%
G04 Gerber Fmt 4.6, Leading zero omitted, Abs format (unit mm)*
G04 Created by KiCad (PCBNEW (5.1.4)-1) date 2021-01-05 09:44:38*
%MOMM*%
%LPD*%
G04 APERTURE LIST*
%ADD10C,0.150000*%
%ADD11C,0.100000*%
G04 APERTURE END LIST*
D10*
X188931607Y-161258000D02*
X188931607Y-161972286D01*
X188979226Y-162115143D01*
X189074464Y-162210381D01*
X189217321Y-162258000D01*
X189312560Y-162258000D01*
X187979226Y-162258000D02*
X188455417Y-162258000D01*
X188455417Y-161258000D01*
X187074464Y-162162762D02*
X187122083Y-162210381D01*
X187264940Y-162258000D01*
X187360179Y-162258000D01*
X187503036Y-162210381D01*
X187598274Y-162115143D01*
X187645893Y-162019905D01*
X187693512Y-161829429D01*
X187693512Y-161686572D01*
X187645893Y-161496096D01*
X187598274Y-161400858D01*
X187503036Y-161305620D01*
X187360179Y-161258000D01*
X187264940Y-161258000D01*
X187122083Y-161305620D01*
X187074464Y-161353239D01*
X186360179Y-161258000D02*
X186360179Y-161972286D01*
X186407798Y-162115143D01*
X186503036Y-162210381D01*
X186645893Y-162258000D01*
X186741131Y-162258000D01*
X185407798Y-162258000D02*
X185883988Y-162258000D01*
X185883988Y-161258000D01*
X184503036Y-162162762D02*
X184550655Y-162210381D01*
X184693512Y-162258000D01*
X184788750Y-162258000D01*
X184931607Y-162210381D01*
X185026845Y-162115143D01*
X185074464Y-162019905D01*
X185122083Y-161829429D01*
X185122083Y-161686572D01*
X185074464Y-161496096D01*
X185026845Y-161400858D01*
X184931607Y-161305620D01*
X184788750Y-161258000D01*
X184693512Y-161258000D01*
X184550655Y-161305620D01*
X184503036Y-161353239D01*
X183788750Y-161258000D02*
X183788750Y-161972286D01*
X183836369Y-162115143D01*
X183931607Y-162210381D01*
X184074464Y-162258000D01*
X184169702Y-162258000D01*
X182836369Y-162258000D02*
X183312560Y-162258000D01*
X183312560Y-161258000D01*
X181931607Y-162162762D02*
X181979226Y-162210381D01*
X182122083Y-162258000D01*
X182217321Y-162258000D01*
X182360179Y-162210381D01*
X182455417Y-162115143D01*
X182503036Y-162019905D01*
X182550655Y-161829429D01*
X182550655Y-161686572D01*
X182503036Y-161496096D01*
X182455417Y-161400858D01*
X182360179Y-161305620D01*
X182217321Y-161258000D01*
X182122083Y-161258000D01*
X181979226Y-161305620D01*
X181931607Y-161353239D01*
X181217321Y-161258000D02*
X181217321Y-161972286D01*
X181264940Y-162115143D01*
X181360179Y-162210381D01*
X181503036Y-162258000D01*
X181598274Y-162258000D01*
X180264940Y-162258000D02*
X180741131Y-162258000D01*
X180741131Y-161258000D01*
X179360179Y-162162762D02*
X179407798Y-162210381D01*
X179550655Y-162258000D01*
X179645893Y-162258000D01*
X179788750Y-162210381D01*
X179883988Y-162115143D01*
X179931607Y-162019905D01*
X179979226Y-161829429D01*
X179979226Y-161686572D01*
X179931607Y-161496096D01*
X179883988Y-161400858D01*
X179788750Y-161305620D01*
X179645893Y-161258000D01*
X179550655Y-161258000D01*
X179407798Y-161305620D01*
X179360179Y-161353239D01*
%LPC*%
D11*
G36*
X167850000Y-134590000D02*
G01*
X166200000Y-134640000D01*
X166990000Y-133180000D01*
X167850000Y-134590000D01*
G37*
X167850000Y-134590000D02*
X166200000Y-134640000D01*
X166990000Y-133180000D01*
X167850000Y-134590000D01*
M02*
